<ttFont>
          <CharString index="0">
            -106 callgsubr
            -135 return
          </CharString>
          <CharString index="1">
            rmoveto
            -142 hlineto
            -400 -1095 rlineto
            -123 -45 -38 -111 -114 hhcurveto
            -141 439 164 68 callsubr
            -2 -44 -3 22 47 30 82 13 37 33 96 rcurveline
            445 8 41 -112 rlineto
            -104 38 -1 -77 -114 hhcurveto
            -135 552 -87 callgsubr
            -45 -2 -44 -3 -7 61 -35 100 -16 41 rrcurveto
            -564 755 rmoveto
            13 -75 30 -106 36 -98 93 -257 rcurveline
            -341 hlineto
            92 266 44 128 22 95 9 47 rlinecurve
            endchar
          </CharString>
          <CharString index="2">
            -99 callgsubr
            rrcurveto
            -6 -61 -2 return
          </CharString>
          <CharString index="3">
            -66 callgsubr
            588 -28 callsubr
            return
          </CharString>
          <CharString index="4">
            12 451 rlineto
            -135 hlineto
            -222 -128 -73 -121 15 callsubr
            336 54 vlineto
            111 4 90 -11 -172 vvcurveto
            135 498 -43 callgsubr
            3 -50 2 -71 4 -56 rrcurveto
            -241 307 hlineto
            return
          </CharString>
          <CharString index="5">
            -43 callgsubr
            -107 callsubr
            return
          </CharString>
          <CharString index="6">
            rmoveto
            -281 -235 -227 -341 -322 225 -200 297 300 210 219 345 327 -222 199 -294 hvcurveto
            -4 -144 rmoveto
            167 4 51 -236 -201 -42 callsubr
            -166 -3 -63 227 208 vvcurveto
            179 52 186 159 4 vhcurveto
            endchar
          </CharString>
          <CharString index="7">
            vlineto
            -107 callsubr
            return
          </CharString>
          <CharString index="8">
            rmoveto
            -466 -43 callgsubr
            -105 callgsubr
            -650 -2 vlineto
            -32 47 -42 61 -69 88 -626 790 rcurveline
            -321 -43 callgsubr
            -82 callsubr
            5 -165 -54 -8 -92 -5 rrcurveto
            -135 467 -28 callsubr
            634 -1 vlineto
            38 -55 39 -53 35 -45 655 -837 rcurveline
            174 1141 hlineto
            return
          </CharString>
          <CharString index="9">
            -88 callgsubr
            -45 callgsubr
            hintmask 11011000
            -72 callsubr
            -351 128 -284 462 327 245 170 471 vhcurveto
            513 vlineto
            -45 callgsubr
            endchar
          </CharString>
          <CharString index="10">
            rmoveto
            -12 397 rlineto
            -1025 -102 callsubr
            return
          </CharString>
          <CharString index="11">
            -92 callsubr
            rrcurveto
            return
          </CharString>
          <CharString index="12">
            -158 -100 callsubr
            return
          </CharString>
          <CharString index="13">
            -101 -76 callgsubr
            -64 -49 vvcurveto
            -345 vlineto
            -75 callgsubr
            return
          </CharString>
          <CharString index="14">
            -87 callgsubr
            -81 -2 -44 -3 return
          </CharString>
          <CharString index="15">
            29 1 81 -78 callsubr
            return
          </CharString>
          <CharString index="16">
            -83 -178 1 hvcurveto
            -292 vlineto
            -108 1 -60 callsubr
            hhcurveto
            -133 537 156 vlineto
            -29 -1 -60 79 callsubr
            79 39 vvcurveto
            275 vlineto
            316 -1 -95 137 -250 hhcurveto
            return
          </CharString>
          <CharString index="17">
            rmoveto
            -76 -98 -118 -63 -114 4 rrcurveto
            -201 7 -69 188 203 vvcurveto
            232 93 125 132 8 vhcurveto
            37 2 81 -10 32 -60 rrcurveto
            -17 -27 -8 -38 -24 vvcurveto
            -57 34 -79 105 3 vhcurveto
            88 2 50 71 80 vvcurveto
            143 -133 138 -261 -316 -217 -259 -308 return
          </CharString>
          <CharString index="18">
            rmoveto
            hintmask 01100101
            -479 158 vlineto
            -7 87 rlineto
            2 hlineto
            hintmask 10101010
            -66 109 138 -35 107 hhcurveto
            317 209 171 242 268 -262 126 -206 83 hvcurveto
            -226 91 -105 67 128 vvcurveto
            102 104 73 116 1 vhcurveto
            191 2 127 60 callsubr
            hintmask 10010101
            23 callsubr
            -70 callgsubr
          </CharString>
          <CharString index="19">
            rmoveto
            -73 -64 -71 -85 -86 62 -68 74 73 63 68 86 85 -57 71 -78 hvcurveto
            356 hmoveto
            -73 -64 -71 -85 -86 62 -68 74 73 63 68 86 85 -57 71 -78 hvcurveto
            return
          </CharString>
          <CharString index="20">
            rmoveto
            94 -83 249 216 54 52 27 91 -64 59 rlinecurve
            -65 53 -84 -33 -43 -69 rrcurveto
            return
          </CharString>
          <CharString index="21">
            rmoveto
            -364 -156 hlineto
            117 77 callgsubr
            -38 -45 -32 -96 -17 -50 -59 -178 -46 -161 -24 -70 rrcurveto
            -2 hlineto
            -200 459 rlineto
            hintmask 00110000
            -33 70 -6 78 104 12 rrcurveto
            hintmask 11010000
            131 -510 -13 callgsubr
            94 4 8 -60 12 -64 78 -153 rlinecurve
            325 -649 rlineto
            -172 -47 -73 -164 -55 hhcurveto
            2 vlineto
            hintmask 10101000
            15 86 -56 58 -65 -2 rrcurveto
            -75 -2 -54 -66 -73 vvcurveto
            -101 81 -67 106 185 81 149 334 114 vhcurveto
            257 731 42 123 53 90 84 21 rlinecurve
            endchar
          </CharString>
          <CharString index="22">
            1943 rmoveto
            -73 -65 -71 -86 -86 63 -68 73 73 64 68 86 86 -58 71 -77 hvcurveto
            357 hmoveto
            -73 -65 -71 -86 -86 63 -68 73 73 64 68 86 86 -58 71 -77 hvcurveto
            return
          </CharString>
          <CharString index="23">
            -1 -481 rmoveto
            -46 -43 -57 -29 -63 hhcurveto
            -58 -55 31 76 -2 hvcurveto
            -3 117 128 65 153 15 rrcurveto
            endchar
          </CharString>
          <CharString index="24">
            rmoveto
            130 -830 vlineto
            -29 -395 rlineto
            127 hlineto
            21 142 38 114 95 2 277 4 rcurveline
            -2 vlineto
            -11 -11 -49 -50 -46 -59 -470 -621 rcurveline
            -148 883 vlineto
            30 402 rlineto
            -127 hlineto
            -21 -145 -43 -119 -129 3 -288 7 rcurveline
            2 vlineto
            36 32 39 40 40 53 rrcurveto
            endchar
          </CharString>
          <CharString index="25">
            -105 callgsubr
            -785 vlineto
            return
          </CharString>
          <CharString index="26">
            260 0 135 1141 -20 callsubr
            1340 83 hintmask 00000000
            hintmask 10011000
            1334 48 callgsubr
            -466 82 callsubr
            80 4 44 3 rrcurveto
            -2 vlineto
            -35 -32 -28 -30 -57 -77 -156 -216 rcurveline
            -2 hlineto
            -180 232 rlineto
            hintmask 10011000
            78 -61 0 62 150 hhcurveto
            135 -624 83 callgsubr
            30 -78 callsubr
            20 -59 37 -76 46 -58 330 -417 rcurveline
            -238 -318 -100 -135 -77 -66 -77 -18 rlinecurve
            -135 451 -87 callgsubr
            -73 -4 -44 -3 rrcurveto
            2 vlineto
            32 32 24 30 57 77 179 248 rcurveline
            2 hlineto
            208 -264 rlineto
            -78 62 20 -62 -150 hhcurveto
            -135 612 -87 callgsubr
            -10 -2 -44 -3 -22 45 -39 52 -46 58 -386 491 rcurveline
            197 269 rlineto
            hintmask 10011000
            109 149 86 70 95 13 rrcurveto
            endchar
          </CharString>
          <CharString index="27">
            818 62 callgsubr
            169 1055 270 5 callgsubr
            1873 48 callgsubr
            -473 hlineto
            -316 -846 -34 -87 -29 -89 -34 -94 rlinecurve
            -2 hlineto
            -21 70 -56 158 -37 95 -310 793 rcurveline
            -453 -43 callgsubr
            29 1 82 -78 callsubr
            -5 -35 -3 -75 -1 -74 -12 -785 rcurveline
            -3 -165 -51 65 callsubr
            -82 24 callsubr
            35 4 -13 callsubr
            370 vlineto
            4 123 -3 134 -4 153 rrcurveto
            2 hlineto
            42 -197 69 -189 33 -76 275 -674 rcurveline
            191 hlineto
            419 1122 rlineto
            2 hlineto
            5 -125 10 -181 2 -49 17 -434 rcurveline
            6 -165 -60 75 callsubr
            569 -93 callsubr
            5 35 6 75 -3 74 -31 785 rcurveline
            hintmask 10111000
            -6 165 60 8 92 5 rrcurveto
            endchar
          </CharString>
          <CharString index="28">
            -98 callgsubr
            -135 return
          </CharString>
          <CharString index="29">
            2 44 3 return
          </CharString>
          <CharString index="30">
            152 -135 135 return
          </CharString>
          <CharString index="31">
            rmoveto
            -128 -118 -107 -140 5 hvcurveto
            -146 6 124 -82 114 hhcurveto
            118 126 97 153 -4 hvcurveto
            153 -5 -123 72 -115 hhcurveto
            -1 -123 rmoveto
            44 1 37 -38 -92 vvcurveto
            -63 -33 -34 -35 -1 vhcurveto
            -48 -1 -35 44 85 vvcurveto
            69 35 29 35 1 vhcurveto
            return
          </CharString>
          <CharString index="32">
            rmoveto
            -158 -114 -183 -94 -171 hhcurveto
            -276 -154 251 354 295 135 57 callsubr
            116 -114 24 callgsubr
            hintmask 10011100
            479 -22 callsubr
            hintmask 10101100
            7 -87 rlineto
            -2 hlineto
            hintmask 11001100
            66 -109 -136 35 -107 hhcurveto
            -477 -239 -398 82 callgsubr
            280 -322 422 169 247 51 277 200 hvcurveto
            endchar
          </CharString>
          <CharString index="33">
            rmoveto
            -162 -100 callsubr
            608 -87 callgsubr
            -101 24 callsubr
            35 3 76 74 vvcurveto
            return
          </CharString>
          <CharString index="34">
            -50 0 154 716 44 callsubr
            42 57 229 93 243 99 255 70 hintmask 00000000
            hintmask 11011110
            1025 1024 rmoveto
            -361 -156 hlineto
            99 77 callgsubr
            -35 -32 -32 -39 -33 -40 -77 -93 rcurveline
            -2 hlineto
            -95 110 rlineto
            hintmask 10111110
            -49 57 -20 52 76 4 rrcurveto
            hintmask 11011110
            131 -454 -13 callgsubr
            57 4 17 -49 66 -78 34 -40 rlinecurve
            200 -236 -178 -204 -56 -64 -44 -48 -56 -22 rlinecurve
            -131 339 156 vlineto
            -93 -8 rlineto
            2 vlineto
            24 15 54 63 14 18 95 114 rcurveline
            2 hlineto
            121 -128 50 -55 3 -42 -86 -4 rlinecurve
            -131 483 156 vlineto
            -70 -4 -27 49 -34 41 -37 43 rlinecurve
            -238 277 137 168 rlineto
            hintmask 10111110
            60 74 64 55 82 34 rrcurveto
            endchar
          </CharString>
          <CharString index="35">
            135 -589 -89 callgsubr
            -496 vlineto
            return
          </CharString>
          <CharString index="36">
            -107 callgsubr
            138 vlineto
            47 2 41 -57 91 -136 73 -97 rlinecurve
            -115 85 56 -64 87 hhcurveto
            235 133 hlineto
            -84 -72 102 42 -32 hvcurveto
            return
          </CharString>
          <CharString index="37">
            vvcurveto
            -380 vlineto
            -75 callgsubr
            return
          </CharString>
          <CharString index="38">
            -70 -33 183 395 138 230 144 69 callsubr
            -301 983 -292 283 64 callgsubr
            return
          </CharString>
          <CharString index="39">
            1158 rmoveto
            94 83 -168 286 -43 69 -84 33 -65 -53 rlinecurve
            -64 -59 27 -91 54 -52 rrcurveto
            return
          </CharString>
          <CharString index="40">
            -158 vlineto
            -92 callsubr
            return
          </CharString>
          <CharString index="41">
            -79 -70 -72 -89 -88 62 -71 90 88 57 71 88 89 -63 72 -85 hvcurveto
            return
          </CharString>
          <CharString index="42">
            40 33 99 15 -70 vvcurveto
            -84 -181 -34 -65 -12 vhcurveto
            16 -106 rlineto
            158 22 307 65 191 vvcurveto
            98 -64 43 -85 2 vhcurveto
            return
          </CharString>
          <CharString index="43">
            135 -588 -89 callgsubr
            return
          </CharString>
          <CharString index="44">
            rmoveto
            -452 hlineto
            hintmask 11001000
            -158 vlineto
            hintmask 10101000
            -53 callgsubr
            hintmask 10011000
            -65 113 67 52 119 -7 rrcurveto
            hintmask 10101000
            135 -603 83 callgsubr
            26 -78 callsubr
            rrcurveto
            -44 39 -88 39 -63 vhcurveto
            378 -595 rlineto
            -179 -66 callgsubr
            598 158 vlineto
            -48 callgsubr
            232 vlineto
            267 512 rlineto
            hintmask 10011000
            80 148 57 56 95 15 rrcurveto
            endchar
          </CharString>
          <CharString index="45">
            rmoveto
            -151 -46 -49 -104 -70 vvcurveto
            -78 40 -72 112 -31 vhcurveto
            -148 -55 -46 -95 -85 vvcurveto
            -138 112 -130 355 272 307 127 233 237 -211 71 -314 18 vhcurveto
            -192 11 -70 14 51 vvcurveto
            39 47 23 59 vhcurveto
            41 46 -7 37 hhcurveto
            hintmask 11111100
            240 225 168 238 103 -44 94 -78 67 hvcurveto
            8 44 39 79 38 9 9 -44 48 -34 42 -1 rrcurveto
            98 -2 29 78 48 vvcurveto
            80 -50 52 -92 -130 -85 -123 -125 -45 vhcurveto
            47 -68 -106 17 -71 hhcurveto
            -235 -230 -174 -246 9 hvcurveto
            hintmask 11111010
            5 -139 82 -103 115 -44 rrcurveto
            return
          </CharString>
          <CharString index="46">
            108 8 74 114 vhcurveto
            return
          </CharString>
          <CharString index="47">
            -8 -74 -114 return
          </CharString>
          <CharString index="48">
            -92 5 -46 49 -91 138 -96 145 rcurveline
            -36 55 -54 53 -51 20 rrcurveto
            2 vlineto
            238 67 116 154 5 174 9 326 -234 117 -359 -2 rrcurveto
            -141 -306 rmoveto
            return
          </CharString>
          <CharString index="49">
            -156 103 -117 176 107 104 34 93 92 vhcurveto
            2 hlineto
            return
          </CharString>
          <CharString index="50">
            81 -15 176 -172 198 837 -20 hstemhm
            173 255 321 256 hintmask 00000000
            hintmask 10111000
            1005 1024 rmoveto
            -256 -787 hlineto
            -57 -50 -53 -19 -50 hhcurveto
            -99 -69 88 128 hvcurveto
            647 -255 -1365 vlineto
            -129 -1 39 -85 105 hhcurveto
            99 32 78 77 115 -26 100 -109 343 hvcurveto
            11 9 rlineto
            -132 61 84 -50 89 hhcurveto
            83 58 22 83 79 hvcurveto
            2 hlineto
            hintmask 01111000
            -72 22 67 -29 80 hhcurveto
            104 98 82 66 47 hvcurveto
            -69 86 rlineto
            -29 -32 -24 -7 -19 hhcurveto
            -52 2 71 33 2 hvcurveto
            endchar
          </CharString>
          <CharString index="51">
            1434 19 callgsubr
            -105 callgsubr
            return
          </CharString>
          <CharString index="52">
            111 3 138 -45 -222 vvcurveto
            return
          </CharString>
          <CharString index="53">
            -77 callsubr
            hstemhm
            return
          </CharString>
          <CharString index="54">
            -248 -33 147 1168 -54 callsubr
            426 296 67 callsubr
            868 -56 callsubr
            -821 vlineto
            -116 -32 -47 -59 -14 -36 7 27 -12 vhcurveto
            12 24 7 28 -1 24 -3 69 -42 69 -102 -5 rrcurveto
            -92 -5 -50 -79 -87 vvcurveto
            -127 132 -92 161 276 151 159 395 vhcurveto
            600 73 callgsubr
          </CharString>
          <CharString index="55">
            -66 callgsubr
            1092 vlineto
            12 491 rlineto
            -136 hlineto
            -222 -98 -112 -161 -1 15 callsubr
            return
          </CharString>
          <CharString index="56">
            0 callsubr
            -44 callsubr
            return
          </CharString>
          <CharString index="57">
            -44 callgsubr
            -14 callsubr
            260 284 hintmask 00000000
            hintmask 01110100
            return
          </CharString>
          <CharString index="58">
            384 -33 77 callsubr
            hstemhm
            199 297 683 182 5 callgsubr
            return
          </CharString>
          <CharString index="59">
            -179 -33 148 -129 62 865 144 -69 58 hstemhm
            79 238 -220 156 430 244 -217 154 hintmask 00000000
            hintmask 10100101
            return
          </CharString>
          <CharString index="60">
            1681 rmoveto
            -400 307 rlineto
            -40 hlineto
            -418 -307 55 -92 374 175 365 -178 rlineto
            return
          </CharString>
          <CharString index="61">
            1613 rmoveto
            92 -84 241 221 55 51 41 88 -62 54 rlinecurve
            -58 48 -83 -47 -52 -74 rrcurveto
            152 -237 rmoveto
            66 -105 289 157 67 39 70 73 -45 67 rlinecurve
            -42 67 -98 -22 -75 -68 rrcurveto
            return
          </CharString>
          <CharString index="62">
            -13 -33 145 801 144 hstem
            63 301 429 302 vstem
            return
          </CharString>
          <CharString index="63">
            hstemhm
            248 296 return
          </CharString>
          <CharString index="64">
            131 -462 -13 callgsubr
            109 2 rlineto
            -2 vlineto
            -25 -23 -20 -23 -35 -40 -146 -170 rcurveline
            return
          </CharString>
          <CharString index="65">
            vvcurveto
            -175 -38 -190 -162 -3 vhcurveto
            return
          </CharString>
          <CharString index="66">
            402 -33 150 1200 150 hstem
            72 322 786 323 vstem
            return
          </CharString>
          <CharString index="67">
            413 64 callsubr
            -71 hlineto
            -300 -196 41 -80 131 76 rlineto
            -471 vlineto
            -94 -30 -22 callgsubr
            2 20 2 43 42 vvcurveto
            return
          </CharString>
          <CharString index="68">
            287 2 callsubr
            -152 -84 callgsubr
            return
          </CharString>
          <CharString index="69">
            -107 callsubr
            1081 vlineto
            -103 callsubr
            return
          </CharString>
          <CharString index="70">
            142 468 0 callsubr
            hstemhm
            return
          </CharString>
          <CharString index="71">
            rmoveto
            -66 callsubr
            return
          </CharString>
          <CharString index="72">
            rmoveto
            36 -131 9 -121 -100 -185 79 -58 rcurveline
            93 89 82 118 11 117 5 51 -6 31 -27 55 rrcurveto
            return
          </CharString>
          <CharString index="73">
            135 70 129 -73 129 return
          </CharString>
          <CharString index="74">
            1139 1037 -97 callsubr
            return
          </CharString>
          <CharString index="75">
            944 1546 rmoveto
            -487 -362 -382 -467 -487 344 -356 502 468 371 375 465 467 -343 385 -493 hvcurveto
            -3 -118 rmoveto
            422 274 -336 -395 -395 -267 -330 -423 -435 -272 330 395 395 283 336 418 hvcurveto
            return
          </CharString>
          <CharString index="76">
            232 -5 callgsubr
            406 147 577 156 -144 144 -44 callsubr
            return
          </CharString>
          <CharString index="77">
            131 -61 callgsubr
            -115 189 -13 47 callgsubr
            return
          </CharString>
          <CharString index="78">
            -133 133 return
          </CharString>
          <CharString index="79">
            158 vlineto
            -29 -1 -81 -21 callsubr
            return
          </CharString>
          <CharString index="80">
            7 callgsubr
            -380 vlineto
            -92 -8 -62 -114 vhcurveto
            -182 hlineto
            6 return
          </CharString>
          <CharString index="81">
            135 -590 -22 callsubr
            99 6 rlineto
            -44 40 -89 38 -62 vhcurveto
            441 -726 rlineto
            -181 -90 -55 -71 -57 hhcurveto
            -16 -8 6 8 -6 hvcurveto
            22 28 10 32 31 vvcurveto
            66 -49 59 -92 -110 -46 -86 -84 -120 95 -82 131 136 159 85 297 129 vhcurveto
            318 731 rlineto
            return
          </CharString>
          <CharString index="82">
            rmoveto
            -8 373 rlineto
            -858 hlineto
            hintmask 10111000
            -156 vlineto
            29 1 60 2 44 3 rrcurveto
            -83 callgsubr
            577 156 vlineto
            -173 -6 rlineto
            6 61 2 79 39 vvcurveto
            hintmask 11011000
            536 136 vlineto
            122 60 -41 -173 hvcurveto
            endchar
          </CharString>
          <CharString index="83">
            -104 -61 101 -135 hhcurveto
            -99 -119 -67 -152 -61 hvcurveto
            114 -75 rlineto
            81 55 66 24 52 hhcurveto
            return
          </CharString>
          <CharString index="84">
            1557 rmoveto
            203 178 72 138 66 -34 63 -79 1 hvcurveto
            -96 3 -25 -87 -32 vvcurveto
            -24 6 -29 14 -28 vhcurveto
            -27 -40 -64 -14 -63 hhcurveto
            -63 -63 14 27 -41 hvcurveto
            14 28 6 29 24 vvcurveto
            32 -25 87 -96 -3 vhcurveto
            -79 -1 -34 -63 -66 vvcurveto
            -138 178 -72 203 vhcurveto
            return
          </CharString>
          <CharString index="85">
            -158 vlineto
            return
          </CharString>
          <CharString index="86">
            -2 -44 -3 rrcurveto
            -78 callgsubr
            return
          </CharString>
          <CharString index="87">
            158 -150 150 -135 135 hstemhm
            return
          </CharString>
          <CharString index="88">
            -38 -43 -45 -21 -40 hhcurveto
            -55 -32 33 49 -2 hvcurveto
            -4 115 134 105 130 55 rrcurveto
            return
          </CharString>
          <CharString index="89">
            86 22 68 80 79 vvcurveto
            145 -119 70 -157 -191 -86 -114 -78 -60 38 -42 62 -2 vhcurveto
            75 -2 25 63 36 vvcurveto
            15 -6 31 -22 18 vhcurveto
            9 10 26 15 36 hhcurveto
            69 36 -43 -73 1 hvcurveto
            -63 1 -32 -78 -103 hhcurveto
            -23 -24 2 1 -24 hvcurveto
            return
          </CharString>
          <CharString index="90">
            108 -1 55 -61 -86 vvcurveto
            -81 -50 -57 -78 -22 -48 5 27 -20 vhcurveto
            22 18 7 39 15 vvcurveto
            48 -24 56 -75 -2 vhcurveto
            -62 -2 -40 -55 -60 vvcurveto
            -101 102 -98 169 227 114 118 151 -7 vhcurveto
            -5 102 -59 75 -129 25 rrcurveto
            2 vlineto
            return
          </CharString>
          <CharString index="91">
            1546 rmoveto
            -111 -76 callgsubr
            -69 -49 vvcurveto
            return
          </CharString>
          <CharString index="92">
            hlineto
            -79 callsubr
            return
          </CharString>
          <CharString index="93">
            hstemhm
            61 292 -247 265 return
          </CharString>
          <CharString index="94">
            75 74 vvcurveto
            return
          </CharString>
          <CharString index="95">
            238 -33 166 1185 149 -101 87 0 -20 hstemhm
            72 322 744 154 hintmask 00000000
            hintmask 11001100
            return
          </CharString>
          <CharString index="96">
            65 0 140 1155 138 hstem
            99 129 786 129 vstem
            return
          </CharString>
          <CharString index="97">
            rmoveto
            116 2 rlineto
            153 3 111 -68 -202 vvcurveto
            return
          </CharString>
          <CharString index="98">
            -13 callgsubr
            29 1 return
          </CharString>
          <CharString index="99">
            126 64 116 108 vhcurveto
            -178 -1017 rmoveto
            60 -10 88 -3 60 -3 rrcurveto
            200 -9 96 -43 -83 vvcurveto
            -77 -103 -87 -193 -172 -107 70 111 5 vhcurveto
            2 47 22 54 42 33 rrcurveto
            endchar
          </CharString>
          <CharString index="100">
            456 rmoveto
            -58 76 -34 31 -42 21 rrcurveto
            2 vlineto
            131 146 45 callgsubr
            rlinecurve
            -43 callsubr
            return
          </CharString>
          <CharString index="101">
            -91 -104 -86 -124 -44 hvcurveto
            114 -68 rlineto
            65 42 53 18 33 hhcurveto
            return
          </CharString>
          <CharString index="102">
            0 158 266 149 hstem
            8 1352 vstem
            return
          </CharString>
          <CharString index="103">
            rmoveto
            -111 hlineto
            -26 -28 -97 -35 -190 hhcurveto
            -9 callsubr
            71 48 callsubr
            -136 vlineto
            19 -50 -58 18 -74 hhcurveto
            -304 -203 -241 -330 hvcurveto
            return
          </CharString>
          <CharString index="104">
            rmoveto
            104 31 -156 -106 6 callsubr
            80 callgsubr
            hvcurveto
            return
          </CharString>
          <CharString index="105">
            vlineto
            287 211 141 266 return
          </CharString>
          <CharString index="106">
            163 45 -129 205 hhcurveto
            108 80 38 52 56 hvcurveto
            202 vlineto
            -70 -53 -92 -34 -98 6 rrcurveto
            hintmask 01011000
            11 -146 -33 118 -210 hhcurveto
            -108 -66 -32 -59 -86 hvcurveto
            return
          </CharString>
          <CharString index="107">
            152 -29 callsubr
            return
          </CharString>
          <CharString index="108">
            154 -137 137 -44 callsubr
            615 323 return
          </CharString>
          <CharString index="109">
            -5 callgsubr
            493 164 76 callsubr
            return
          </CharString>
          <CharString index="110">
            1542 rmoveto
            -64 -35 -44 -39 -48 -98 -25 78 -127 hhcurveto
            return
          </CharString>
          <CharString index="111">
            116 56 -145 -143 -113 -59 -118 -110 -113 -62 133 144 return
          </CharString>
          <CharString index="112">
            rmoveto
            -139 110 -907 -1401 133 -99 rlineto
            return
          </CharString>
          <CharString index="113">
            -96 -30 -122 -101 -112 -26 158 102 return
          </CharString>
          <CharString index="114">
            rmoveto
            -244 -7 -139 -209 -192 vvcurveto
            -15 callgsubr
            189 -137 205 -251 -4 vhcurveto
            return
          </CharString>
          <CharString index="115">
            rmoveto
            -453 -43 callgsubr
            157 77 callgsubr
            -35 -42 -45 -69 -28 -75 -192 -471 rcurveline
            -15 59 -25 58 -59 108 -160 291 rcurveline
            return
          </CharString>
          <CharString index="116">
            2 20 2 43 42 vvcurveto
            13 121 112 vlineto
            -307 249 rmoveto
            2 hlineto
            return
          </CharString>
          <CharString index="117">
            1095 1024 rmoveto
            -388 -156 hlineto
            127 77 callgsubr
            -25 -40 -19 -36 -24 -67 -149 -422 rcurveline
            -2 hlineto
            -172 424 rlineto
            return
          </CharString>
          <CharString index="118">
            -66 callsubr
            endchar
          </CharString>
          <CharString index="119">
            102 1438 rmoveto
            -162 -100 callsubr
            return
          </CharString>
          <CharString index="120">
            vlineto
            -41 callgsubr
            return
          </CharString>
          <CharString index="121">
            -104 callsubr
            785 vlineto
            return
          </CharString>
          <CharString index="122">
            vhcurveto
            -275 hlineto
            5 34 40 callsubr
            return
          </CharString>
          <CharString index="123">
            -37 1 -69 -15 -34 -18 rrcurveto
            return
          </CharString>
          <CharString index="124">
            -31 callsubr
            417 308 return
          </CharString>
          <CharString index="125">
            44 0 150 318 144 257 155 return
          </CharString>
          <CharString index="126">
            -97 callgsubr
            hintmask 11101100
            -64 callsubr
            return
          </CharString>
          <CharString index="127">
            -518 rmoveto
            -111 -76 callgsubr
            -69 -49 vvcurveto
            return
          </CharString>
          <CharString index="128">
            rmoveto
            216 vlineto
            -922 -409 rlineto
            -186 vlineto
            922 -401 rlineto
            218 vlineto
            -637 280 rlineto
            2 vlineto
            return
          </CharString>
          <CharString index="129">
            0 150 1186 39 callsubr
            return
          </CharString>
          <CharString index="130">
            134 479 -43 callgsubr
            return
          </CharString>
          <CharString index="131">
            -81 callgsubr
            5 return
          </CharString>
          <CharString index="132">
            -156 0 153 712 159 -150 150 hstemhm
            210 290 318 73 callsubr
            return
          </CharString>
          <CharString index="133">
            rmoveto
            -341 hlineto
            92 266 44 128 22 95 9 47 rlinecurve
            2 hlineto
            13 -75 30 -106 36 -98 rrcurveto
            endchar
          </CharString>
          <CharString index="134">
            110 286 105 257 111 hstemhm
            74 201 -188 200 150 203 -176 215 return
          </CharString>
          <CharString index="135">
            -119 0 144 744 135 hstem
            72 913 vstem
            return
          </CharString>
          <CharString index="136">
            39 vvcurveto
            380 vlineto
            return
          </CharString>
          <CharString index="137">
            16 333 rlineto
            -130 hlineto
            -114 -62 return
          </CharString>
          <CharString index="138">
            -64 callsubr
            -760 vlineto
            return
          </CharString>
          <CharString index="139">
            -29 -1 -81 -2 -44 -3 rrcurveto
            5 35 3 75 72 callsubr
            return
          </CharString>
          <CharString index="140">
            37 callgsubr
            endchar
          </CharString>
          <CharString index="141">
            -32 -555 142 675 138 519 138 return
          </CharString>
          <CharString index="142">
            -111 vlineto
            -26 -28 -97 -35 -190 hhcurveto
            -155 vlineto
            return
          </CharString>
          <CharString index="143">
            hmoveto
            1024 -928 -1024 vlineto
            270 877 rmoveto
            388 -730 -388 hlineto
            endchar
          </CharString>
          <CharString index="144">
            -66 callgsubr
            587 vlineto
            573 220 398 333 return
          </CharString>
          <CharString index="145">
            hintmask 11001000
            -22 callsubr
            hintmask 10101000
            29 1 return
          </CharString>
          <CharString index="146">
            45 callsubr
            173 290 return
          </CharString>
          <CharString index="147">
            3 72 74 vvcurveto
            return
          </CharString>
          <CharString index="148">
            185 279 45 callsubr
            128 290 389 300 vstem
            418 return
          </CharString>
          <CharString index="149">
            54 callsubr
            380 323 return
          </CharString>
          <CharString index="150">
            vlineto
            107 31 -149 -214 -3 hvcurveto
            148 return
          </CharString>
          <CharString index="151">
            154 -131 131 hstemhm
            return
          </CharString>
          <CharString index="152">
            52 callsubr
            hstem
            return
          </CharString>
          <CharString index="153">
            vlineto
            -97 callgsubr
            return
          </CharString>
          <CharString index="154">
            98 vlineto
            155 2 98 return
          </CharString>
          <CharString index="155">
            58 callsubr
            -79 -39 vvcurveto
            return
          </CharString>
          <CharString index="156">
            1953 rmoveto
            -78 -40 -72 -55 -55 hhcurveto
            return
          </CharString>
          <CharString index="157">
            71 callsubr
            268 296 return
          </CharString>
          <CharString index="158" raw="1">
            d51af9a5 075e1d0e  
          </CharString>
          <CharString index="159">
            149 61 -20 return
          </CharString>
          <CharString index="160">
            -922 401 rlineto
            -218 vlineto
            637 -280 rlineto
            -2 vlineto
            return
          </CharString>
          <CharString index="161">
            145 446 -84 callgsubr
            return
          </CharString>
          <CharString index="162">
            152 1124 157 -155 155 -135 135 hstemhm
            return
          </CharString>
          <CharString index="163">
            -326 -33 191 705 160 return
          </CharString>
          <CharString index="164">
            286 286 -1 hvcurveto
            191 -1 return
          </CharString>
          <CharString index="165">
            -78 callsubr
            rrcurveto
            -38 callgsubr
            return
          </CharString>
          <CharString index="166">
            144 hstem
            63 300 return
          </CharString>
          <CharString index="167">
            -118 37 -229 rrcurveto
            return
          </CharString>
          <CharString index="168">
            -112 -33 183 763 59 callsubr
            vstem
            return
          </CharString>
          <CharString index="169">
            1276 158 -152 -54 callsubr
            return
          </CharString>
          <CharString index="170">
            -9 -244 -178 3 rlineto
            endchar
          </CharString>
          <CharString index="171">
            1467 rmoveto
            return
          </CharString>
          <CharString index="172">
            75 callsubr
            467 -87 callgsubr
            return
          </CharString>
          <CharString index="173">
            rmoveto
            184 vlineto
            -923 -10 rlineto
            -174 vlineto
            endchar
          </CharString>
          <CharString index="174">
            hintmask 00000000
            hintmask 11010000
            return
          </CharString>
          <CharString index="175">
            vlineto
            -29 -1 -73 return
          </CharString>
          <CharString index="176">
            hstemhm
            63 301 return
          </CharString>
          <CharString index="177">
            -134 -479 158 hlineto
            -7 87 rlineto
            2 hlineto
            return
          </CharString>
          <CharString index="178">
            0 157 1124 -54 callsubr
            return
          </CharString>
          <CharString index="179">
            74 vvcurveto
            785 46 callsubr
            return
          </CharString>
          <CharString index="180">
            129 5 callgsubr
            return
          </CharString>
          <CharString index="181">
            170 151 163 return
          </CharString>
          <CharString index="182">
            -8 -92 -5 rrcurveto
            -135 return
          </CharString>
          <CharString index="183">
            467 158 return
          </CharString>
          <CharString index="184">
            156 1159 -77 callsubr
            return
          </CharString>
          <CharString index="185">
            88 384 rlineto
            -205 hlineto
            -91 -384 rlineto
            return
          </CharString>
          <CharString index="186">
            -81 callgsubr
            6 61 2 return
          </CharString>
          <CharString index="187">
            0 152 1124 return
          </CharString>
          <CharString index="188">
            135 hlineto
            -92 5 return
          </CharString>
          <CharString index="189">
            hlineto
            38 callsubr
            return
          </CharString>
          <CharString index="190">
            rlineto
            -156 -362 132 hlineto
            hintmask 11101100
            return
          </CharString>
          <CharString index="191">
            -1 54 1 87 1 73 -59 -3 -123 return
          </CharString>
          <CharString index="192">
            -85 2 vhcurveto
            16 callsubr
            return
          </CharString>
          <CharString index="193">
            67 154 73 50 95 15 rrcurveto
            endchar
          </CharString>
          <CharString index="194">
            hintmask 00000000
            hintmask 11011100
            return
          </CharString>
        <CharString name=".notdef">
          -89 0 147 730 147 hstem
          62 270 388 270 vstem
          990 36 callsubr
        </CharString>
        <CharString name="A">
          -5 callsubr
          747 1470 -106 callsubr
        </CharString>
        <CharString name="AE">
          743 0 135 -135 156 258 151 107 -37 callsubr
          885 53 callgsubr
          1776 1037 rmoveto
          -12 397 rlineto
          -1025 -43 callgsubr
          -96 callsubr
          -1 -1 -1 -1 vvcurveto
          -660 -929 rlineto
          -97 -69 -79 -118 -96 hhcurveto
          hintmask 1011101110000000
          -135 458 158 vlineto
          -164 -7 rlineto
          2 vlineto
          44 33 42 59 44 64 72 105 rcurveline
          130 2 143 5 128 3 rrcurveto
          -111 -66 callgsubr
          1081 vlineto
          -103 callsubr
          -40 callgsubr
          74 2 rlineto
          hintmask 0111011101000000
          -55 callsubr
          -756 -472 rmoveto
          -302 hlineto
          166 238 48 69 50 76 50 77 rlinecurve
          -9 -99 -3 -98 -86 vvcurveto
          endchar
        </CharString>
        <CharString name="Aacute">
          -5 callsubr
          482 -91 callgsubr
          38 -409 -106 callsubr
        </CharString>
        <CharString name="Abreve">
          0 158 266 149 1038 189 hstem
          8 1352 vstem
          929 -32 callgsubr
          -299 -360 -106 callsubr
        </CharString>
        <CharString name="Acircumflex">
          -5 callsubr
          1103 -47 callsubr
          -292 -116 -106 callsubr
        </CharString>
        <CharString name="Acute">
          -572 1535 393 hstem
          56 445 vstem
          56 -91 callgsubr
          endchar
        </CharString>
        <CharString name="Adieresis">
          500 -85 callsubr
          -110 -473 -106 callsubr
        </CharString>
        <CharString name="Agrave">
          -5 callsubr
          813 -67 callgsubr
          225 -220 -106 callsubr
        </CharString>
        <CharString name="Amacron">
          0 158 266 149 1125 192 hstem
          8 1352 vstem
          975 1702 -23 callgsubr
          354 -225 -106 callsubr
        </CharString>
        <CharString name="Aogonek">
          -543 186 357 135 -135 158 266 149 hstemhm
          767 203 hintmask 00000000
          hintmask 00111000
          1360 hmoveto
          -87 callgsubr
          -45 -2 -44 -3 -7 61 -35 100 -16 41 -437 1116 rcurveline
          -142 hlineto
          -400 -1095 rlineto
          -123 -45 -38 -111 -114 hhcurveto
          -141 439 164 68 callsubr
          -2 -44 -3 22 47 30 82 13 37 33 96 rcurveline
          445 8 41 -112 rlineto
          hintmask 11011000
          -104 38 -1 -77 -114 hhcurveto
          -135 206 vlineto
          -142 -85 -105 -118 -129 -58 callgsubr
          hintmask 00111000
          -4 115 134 105 130 55 rrcurveto
          -438 573 26 callsubr
        </CharString>
        <CharString name="Aring">
          0 158 266 149 1201 109 hstem
          392 182 181 183 vstem
          780 1385 rmoveto
          89 40 73 87 -4 122 rrcurveto
          170 -8 -141 79 -126 hhcurveto
          85 callgsubr
          5 -130 78 -75 95 -29 -365 -999 rcurveline
          -123 -45 -38 -111 -114 hhcurveto
          -141 439 164 68 callsubr
          -2 -44 -3 22 47 30 82 13 37 33 96 rcurveline
          445 8 41 -112 rlineto
          -104 38 -1 -77 -114 hhcurveto
          -135 552 -87 callgsubr
          -45 -2 -44 -3 -7 61 -35 100 -16 41 rrcurveto
          -518 1116 rmoveto
          -54 4 -38 59 102 vvcurveto
          83 33 52 49 4 vhcurveto
          65 callgsubr
          115 -897 26 callsubr
        </CharString>
        <CharString name="Atilde">
          0 158 266 149 1058 189 -88 189 hstemhm
          8 1352 64 callgsubr
          994 49 callsubr
          hintmask 11011000
          -24 callsubr
          hintmask 11101000
          2 callgsubr
          -363 -419 -106 callsubr
        </CharString>
        <CharString name="B">
          182 0 145 516 144 476 156 -144 144 -44 callsubr
          337 312 -219 323 hintmask 00000000
          hintmask 11101010
          12 callsubr
          697 -2 callsubr
          170 -126 155 -271 42 hvcurveto
          2 vlineto
          hintmask 11101100
          191 52 95 118 7 118 14 251 -210 125 -327 -2 rrcurveto
          -126 -634 rmoveto
          318 vlineto
          hintmask 11011100
          157 53 13 67 2 vhcurveto
          104 3 113 -53 -162 vvcurveto
          -150 -57 -122 -173 -3 vhcurveto
          -107 -148 rmoveto
          3 53 45 -1 68 hhcurveto
          hintmask 11101010
          132 132 -59 -188 -152 -72 -106 -166 -8 hvcurveto
          -3 -64 -64 0 -72 hhcurveto
          5 35 40 callsubr
          endchar
        </CharString>
        <CharString name="Breve">
          -336 1611 189 hstem
          59 718 vstem
          660 -32 callgsubr
          endchar
        </CharString>
        <CharString name="C">
          -12 callsubr
          1292 385 -75 callsubr
        </CharString>
        <CharString name="Cacute">
          -12 callsubr
          609 -91 callgsubr
          456 -1494 -75 callsubr
        </CharString>
        <CharString name="Caron">
          -130 1526 407 hstem
          42 858 vstem
          900 1841 rmoveto
          -55 92 -374 -183 -365 178 -64 -95 400 -307 rlineto
          40 hlineto
          endchar
        </CharString>
        <CharString name="Ccaron">
          238 -33 166 1185 149 -101 87 hstemhm
          72 322 744 154 hintmask 11011000
          1219 -65 callgsubr
          491 -1181 rmoveto
          -158 -114 -183 -94 -171 hhcurveto
          -276 -154 251 354 295 135 57 callsubr
          116 -114 24 callgsubr
          hintmask 10111000
          479 -22 callsubr
          7 -87 rlineto
          -2 hlineto
          hintmask 11011000
          66 -109 -136 35 -107 hhcurveto
          -477 -239 -398 82 callgsubr
          280 -322 422 169 247 51 277 200 hvcurveto
          endchar
        </CharString>
        <CharString name="Ccedilla">
          243 -248 142 73 166 1185 149 -101 87 0 -20 hstemhm
          73 322 376 242 126 154 hintmask 00000000
          hintmask 11100111
          548 -247 rmoveto
          0 callgsubr
          -2 hlineto
          40 106 rlineto
          6 6 -1 7 hhcurveto
          169 247 51 277 200 hvcurveto
          -98 90 rlineto
          -158 -114 -183 -94 -171 hhcurveto
          -276 -154 251 354 295 135 57 callsubr
          116 -114 24 callgsubr
          hintmask 11001111
          479 -22 callsubr
          hintmask 11010111
          7 -87 rlineto
          -2 hlineto
          hintmask 11100111
          66 -109 -136 35 -107 hhcurveto
          -477 -239 -398 -373 -349 205 -287 325 -74 hvcurveto
          endchar
        </CharString>
        <CharString name="Cedilla">
          -501 -248 268 hstem
          337 242 vstem
          282 -138 rmoveto
          60 158 rlineto
          -165 hlineto
          -63 -267 0 callgsubr
          endchar
        </CharString>
        <CharString name="Circumflex">
          -130 1586 402 hstem
          92 858 vstem
          950 -47 callsubr
          endchar
        </CharString>
        <CharString name="D">
          383 0 150 1132 1 callsubr
          hintmask 00000000
          hintmask 10110000
          102 1436 rmoveto
          hintmask 11011000
          -160 -100 callsubr
          587 vlineto
          573 220 398 333 hvcurveto
          hintmask 10111000
          341 -243 366 -540 -2 vhcurveto
          -155 -311 rmoveto
          -52 callgsubr
        </CharString>
        <CharString name="Dcaron">
          383 0 150 1132 1 callsubr
          hintmask 11011000
          1159 -65 callgsubr
          -639 -130 rmoveto
          -160 -100 callsubr
          587 vlineto
          573 220 398 333 341 -243 366 -540 -2 hvcurveto
          -155 -311 rmoveto
          hintmask 10111000
          -52 callgsubr
        </CharString>
        <CharString name="Dcroat">
          -69 callgsubr
        </CharString>
        <CharString name="Delta">
          11 callgsubr
          588 1149 rmoveto
          137 -352 130 -316 132 -338 -258 2 -268 0 -247 1 rrcurveto
          endchar
        </CharString>
        <CharString name="Dieresis">
          -364 227 -85 callsubr
          endchar
        </CharString>
        <CharString name="E">
          -79 callgsubr
          hintmask 00000000
          -33 callsubr
          vlineto
          hintmask 11101110
          1081 hlineto
          -103 callsubr
          -40 callgsubr
          74 2 rlineto
          hintmask 11011101
          -55 callsubr
          endchar
        </CharString>
        <CharString name="Eacute">
          -79 callgsubr
          hintmask 00000000
          hintmask 11101101
          447 -91 callgsubr
          hintmask 11101110
          465 -842 -97 callsubr
          vlineto
          hintmask 11011101
          1081 hlineto
          -103 callsubr
          -40 callgsubr
          74 2 rlineto
          hintmask 11011110
          -55 callsubr
          endchar
        </CharString>
        <CharString name="Ecaron">
          -79 callgsubr
          hintmask 11101101
          1079 -65 callgsubr
          478 -529 rmoveto
          -12 397 rlineto
          -1025 -158 hlineto
          -38 callsubr
          -40 callgsubr
          hintmask 11011110
          74 2 rlineto
          -55 callsubr
          endchar
        </CharString>
        <CharString name="Ecircumflex">
          -79 callgsubr
          hintmask 00000000
          hintmask 11101101
          1086 -47 callsubr
          hintmask 11101110
          117 -549 -97 callsubr
          vlineto
          hintmask 11011101
          1081 hlineto
          -103 callsubr
          -40 callgsubr
          74 2 rlineto
          hintmask 11011110
          -55 callsubr
          endchar
        </CharString>
        <CharString name="Edieresis">
          -80 callgsubr
        </CharString>
        <CharString name="Edotaccent">
          -79 callgsubr
          hintmask 00000000
          hintmask 11101101
          664 1953 -36 callgsubr
          hintmask 11101110
          475 -916 -97 callsubr
          vlineto
          hintmask 11011101
          1081 hlineto
          -103 callsubr
          -40 callgsubr
          74 2 rlineto
          hintmask 11011110
          -55 callsubr
          endchar
        </CharString>
        <CharString name="Egrave">
          -79 callgsubr
          hintmask 00000000
          hintmask 11101101
          792 -67 callgsubr
          hintmask 11101110
          638 -653 -97 callsubr
          vlineto
          hintmask 11011101
          1081 hlineto
          -103 callsubr
          -40 callgsubr
          74 2 rlineto
          hintmask 11011110
          -55 callsubr
          endchar
        </CharString>
        <CharString name="Emacron">
          106 0 156 516 142 468 0 callsubr
          264 192 hstemhm
          248 53 callgsubr
          hintmask 1110111010000000
          954 1702 -23 callgsubr
          hintmask 1110111100000000
          767 -658 -97 callsubr
          vlineto
          hintmask 1101111010000000
          1081 hlineto
          -103 callsubr
          -40 callgsubr
          74 2 rlineto
          hintmask 1101111100000000
          -55 callsubr
          endchar
        </CharString>
        <CharString name="Eogonek">
          106 -534 186 348 156 516 142 468 -51 callsubr
          142 203 -90 6 callgsubr
          hintmask 0111010101000000
          1183 hmoveto
          -103 callsubr
          hintmask 0110110110000000
          -40 callgsubr
          74 2 rlineto
          -55 callsubr
          135 hlineto
          hintmask 1111011010000000
          -12 397 rlineto
          -1025 -102 callsubr
          817 vlineto
          -135 -84 -98 -115 -124 -58 callgsubr
          -4 109 120 100 124 57 rrcurveto
          endchar
        </CharString>
        <CharString name="Eth">
          -69 callgsubr
        </CharString>
        <CharString name="Euro">
          484 -33 166 343 155 124 156 407 149 -14 -20 hstemhm
          85 1493 -1307 292 hintmask 00000000
          hintmask 11110100
          123 913 rmoveto
          -38 -159 rlineto
          hintmask 11110010
          186 hlineto
          -1 -40 -1 -41 3 -40 rrcurveto
          -149 hlineto
          -38 -159 rlineto
          213 hlineto
          -296 80 242 -211 342 hhcurveto
          169 247 51 277 200 hvcurveto
          -98 90 rlineto
          -158 -114 -183 -94 -171 hhcurveto
          -208 -148 117 226 -60 hvcurveto
          451 hlineto
          101 155 rlineto
          -578 hlineto
          -8 42 1 41 3 41 rrcurveto
          609 hlineto
          97 156 rlineto
          -687 hlineto
          50 224 141 184 227 -1 191 -1 101 -113 2 -200 rrcurveto
          134 hlineto
          hintmask 11101100
          50 449 rlineto
          -43 callgsubr
          -3 -87 rlineto
          -2 hlineto
          hintmask 11110100
          72 -109 -126 29 -107 hhcurveto
          -384 -224 -258 -296 -72 hvcurveto
          endchar
        </CharString>
        <CharString name="F">
          -3 0 152 470 142 518 -51 callsubr
          226 135 99 129 hintmask 00000000
          hintmask 11101110
          -33 callsubr
          616 -87 callgsubr
          -109 -21 callsubr
          286 25 vlineto
          111 4 90 -11 -172 vvcurveto
          135 498 -43 callgsubr
          3 -50 2 -71 4 -56 rrcurveto
          -212 357 hlineto
          hintmask 11011110
          -40 callgsubr
          74 2 rlineto
          -55 callsubr
          endchar
        </CharString>
        <CharString name="G">
          -68 callgsubr
          endchar
        </CharString>
        <CharString name="Gamma">
          -3 0 152 1130 -51 callsubr
          460 73 callsubr
          -33 callsubr
          616 -87 callgsubr
          -109 22 callgsubr
          -40 callgsubr
          74 2 rlineto
          -55 callsubr
          endchar
        </CharString>
        <CharString name="Gbreve">
          373 -33 163 429 152 607 149 -101 87 0 -20 178 189 hstemhm
          73 321 717 262 -202 154 hintmask 0000000000000000
          hintmask 1110010010000000
          1037 -32 callgsubr
          hintmask 1110011100000000
          219 -1761 rmoveto
          329 vlineto
          155 44 18 92 5 vhcurveto
          135 -544 -89 callgsubr
          -190 vlineto
          -37 -76 -135 -18 -79 hhcurveto
          -279 -148 254 354 295 132 57 callsubr
          152 -114 37 -229 rrcurveto
          hintmask 1100110010000000
          23 callsubr
          hintmask 1101010010000000
          7 -87 rlineto
          -2 hlineto
          hintmask 1110011100000000
          66 -109 -172 35 -107 hhcurveto
          -477 -235 -398 82 callgsubr
          253 -322 445 hvcurveto
          251 143 102 158 hhcurveto
          endchar
        </CharString>
        <CharString name="Gcommaaccent">
          -68 callgsubr
          -643 -191 -95 callgsubr
        </CharString>
        <CharString name="Grave">
          -572 1535 393 hstem
          69 445 vstem
          441 -67 callgsubr
          endchar
        </CharString>
        <CharString name="H">
          480 0 152 489 158 482 -84 callgsubr
          564 296 87 callgsubr
          1550 -56 callsubr
          -298 -564 321 vlineto
          hintmask 11011100
          165 54 8 92 5 vhcurveto
          hintmask 11101100
          135 -588 -158 vlineto
          -100 callgsubr
          302 vlineto
          564 7 rlineto
          -332 14 callsubr
          hintmask 11011100
          -54 callgsubr
        </CharString>
        <CharString name="I">
          -380 62 callgsubr
          296 67 callsubr
          690 1434 rmoveto
          -588 -158 hlineto
          -100 callgsubr
          785 73 callgsubr
        </CharString>
        <CharString name="Iacute">
          -380 62 callgsubr
          296 67 callsubr
          177 -91 callgsubr
          286 -445 rmoveto
          -588 -158 hlineto
          -100 callgsubr
          785 73 callgsubr
        </CharString>
        <CharString name="Icircumflex">
          -380 62 callgsubr
          296 67 callsubr
          749 1681 rmoveto
          -320 307 rlineto
          -40 hlineto
          -338 -307 55 -92 294 175 285 -178 rlineto
          5 -152 rmoveto
          -588 -158 hlineto
          -100 callgsubr
          785 73 callgsubr
        </CharString>
        <CharString name="Idieresis">
          84 callgsubr
          94 273 -119 296 -93 273 hintmask 00000000
          232 -85 callsubr
          101 -509 19 callgsubr
          hintmask 11101000
          -100 callgsubr
          785 vlineto
          hintmask 11010000
          -54 callgsubr
        </CharString>
        <CharString name="Idotaccent">
          -380 62 callgsubr
          296 67 callsubr
          394 1953 -36 callgsubr
          296 -519 rmoveto
          -588 -158 hlineto
          -100 callgsubr
          785 73 callgsubr
        </CharString>
        <CharString name="Igrave">
          -380 62 callgsubr
          296 67 callsubr
          522 -67 callgsubr
          459 -256 rmoveto
          -588 -158 hlineto
          -100 callgsubr
          785 73 callgsubr
        </CharString>
        <CharString name="Imacron">
          -380 0 152 1130 -77 callsubr
          264 192 -44 callsubr
          5 callgsubr
          684 1702 -23 callgsubr
          588 -261 rmoveto
          -588 -158 hlineto
          -100 callgsubr
          785 vlineto
          -45 callgsubr
          endchar
        </CharString>
        <CharString name="Iogonek">
          -380 -543 186 357 152 1130 -54 callsubr
          224 203 -179 296 hintmask 00000000
          hintmask 10100100
          644 -298 rmoveto
          hintmask 11101000
          -19 callsubr
          3 158 hlineto
          hintmask 11010100
          32 callsubr
          hintmask 11100100
          135 -588 -95 callsubr
          369 vlineto
          hintmask 10101000
          33 callsubr
        </CharString>
        <CharString name="J">
          -53 callsubr
        </CharString>
        <CharString name="K">
          -39 callsubr
          hintmask 00000000
          hintmask 01101010
          1361 1434 -94 callgsubr
          hintmask 10100110
          -62 callgsubr
          endchar
        </CharString>
        <CharString name="Kcommaaccent">
          -39 callsubr
          110 237 hintmask 00000000
          hintmask 01101010
          1361 1434 -94 callgsubr
          hintmask 10100111
          -62 callgsubr
          -730 -1421 -95 callgsubr
        </CharString>
        <CharString name="L">
          66 0 156 1126 -84 callgsubr
          526 130 5 callgsubr
          690 1434 rmoveto
          -588 -158 hlineto
          29 1 81 2 44 3 rrcurveto
          -5 -35 -3 -75 -74 vvcurveto
          -785 -52 callsubr
          785 vlineto
          -45 callgsubr
          endchar
        </CharString>
        <CharString name="Lacute">
          66 0 156 1126 -84 callgsubr
          526 130 5 callgsubr
          204 -91 callgsubr
          259 -445 rmoveto
          -588 -158 hlineto
          29 1 81 2 44 3 rrcurveto
          -5 -35 -3 -75 -74 vvcurveto
          -785 -52 callsubr
          785 vlineto
          -45 callgsubr
          endchar
        </CharString>
        <CharString name="Lcaron">
          66 0 156 875 -20 271 152 34 -20 -44 callsubr
          380 185 hintmask 00000000
          899 1468 -35 callsubr
          -391 hmoveto
          -588 -102 callsubr
          vlineto
          hintmask 11111100
          1092 hlineto
          -34 callgsubr
          -54 callgsubr
        </CharString>
        <CharString name="Lcommaaccent">
          66 0 156 1126 -84 callgsubr
          -15 237 304 130 hintmask 00000000
          hintmask 11010100
          690 1434 rmoveto
          -588 -158 hlineto
          29 1 81 2 44 3 rrcurveto
          -5 -35 -3 -75 -74 vvcurveto
          -785 -52 callsubr
          785 vlineto
          hintmask 10110100
          -97 callgsubr
          hintmask 11001100
          -184 -1421 -95 callgsubr
        </CharString>
        <CharString name="Lslash">
          67 -1 156 893 -20 253 -54 callsubr
          249 296 526 130 87 callgsubr
          691 1433 19 callgsubr
          -105 callgsubr
          -383 vlineto
          -157 -116 rlineto
          -235 vlineto
          157 117 rlineto
          -168 -52 callsubr
          367 vlineto
          153 115 rlineto
          231 vlineto
          -153 -114 rlineto
          186 vlineto
          hintmask 11011100
          -54 callgsubr
        </CharString>
        <CharString name="M">
          -80 callsubr
        </CharString>
        <CharString name="N">
          -11 callgsubr
          766 174 5 callgsubr
          1511 1434 -99 callsubr
          -45 callgsubr
          endchar
        </CharString>
        <CharString name="Nacute">
          -11 callgsubr
          766 174 5 callgsubr
          576 -91 callgsubr
          708 -445 -99 callsubr
          -45 callgsubr
          endchar
        </CharString>
        <CharString name="Ncaron">
          -11 callgsubr
          766 174 hintmask 11011000
          1249 -65 callgsubr
          680 -132 -99 callsubr
          -45 callgsubr
          endchar
        </CharString>
        <CharString name="Ncommaaccent">
          -11 callgsubr
          184 237 345 174 hintmask 00000000
          hintmask 11010100
          1511 1434 -99 callsubr
          hintmask 10111100
          -97 callgsubr
          -925 -1421 -95 callgsubr
        </CharString>
        <CharString name="Ntilde">
          411 0 152 1130 -77 callsubr
          197 189 -88 189 hstemhm
          245 180 766 174 hintmask 00000000
          hintmask 11010110
          1118 49 callsubr
          hintmask 11001110
          -24 callsubr
          hintmask 11010110
          2 callgsubr
          277 -455 -99 callsubr
          hintmask 10110110
          -54 callgsubr
        </CharString>
        <CharString name="O">
          -41 callsubr
          791 1467 -101 callgsubr
        </CharString>
        <CharString name="OE">
          933 -33 166 -133 156 516 142 487 133 -116 149 hstemhm
          73 322 680 53 callgsubr
          hintmask 0111001101000000
          2010 hmoveto
          -103 callsubr
          -40 callgsubr
          74 2 rlineto
          hintmask 0111001110000000
          -55 callsubr
          135 hlineto
          -12 397 rlineto
          -879 hlineto
          hintmask 1010111101000000
          23 -86 -102 10 -76 hhcurveto
          -522 -216 -403 82 callgsubr
          280 -309 422 -8 hvcurveto
          hintmask 0111001101000000
          89 -1 113 6 98 28 rrcurveto
          hintmask 1010111101000000
          167 vmoveto
          -74 -30 -82 -11 -94 7 rrcurveto
          -276 20 -154 231 354 vvcurveto
          295 128 285 286 101 94 -19 -48 71 vhcurveto
          endchar
        </CharString>
        <CharString name="Oacute">
          -41 callsubr
          571 -91 callgsubr
          -7 -412 -101 callgsubr
        </CharString>
        <CharString name="Ocircumflex">
          -41 callsubr
          1225 -47 callsubr
          -370 -119 -101 callgsubr
        </CharString>
        <CharString name="Odieresis">
          402 -33 150 1200 150 hstem
          72 322 90 273 84 273 66 323 vstem
          622 -85 callsubr
          -188 -476 -101 callgsubr
        </CharString>
        <CharString name="Ograve">
          -41 callsubr
          916 -67 callgsubr
          166 -223 -101 callgsubr
        </CharString>
        <CharString name="Ohungarumlaut">
          -41 callsubr
          488 -46 callsubr
          -255 -374 -101 callgsubr
        </CharString>
        <CharString name="Omacron">
          402 -33 150 1200 150 231 192 hstem
          72 322 786 323 vstem
          1078 1702 -23 callgsubr
          295 -228 -101 callgsubr
        </CharString>
        <CharString name="Omega">
          -72 callgsubr
        </CharString>
        <CharString name="Oslash">
          401 -33 150 1200 150 hstemhm
          72 322 -322 1431 -323 323 67 callsubr
          1382 1510 rmoveto
          -162 101 -121 -207 rlineto
          40 -87 -103 23 -118 hhcurveto
          hintmask 11101000
          -485 -234 -407 -343 -227 79 -242 191 -146 hvcurveto
          -118 -202 152 -102 127 216 rlineto
          -30 81 93 -17 108 hhcurveto
          484 234 411 339 204 -76 228 -169 151 hvcurveto
          -778 -960 rmoveto
          -62 123 -24 152 126 vvcurveto
          253 89 316 281 7 vhcurveto
          96 2 79 -29 62 -54 rrcurveto
          117 -174 rmoveto
          42 -104 20 -130 -146 vvcurveto
          -251 -91 -312 -283 -2 vhcurveto
          -82 -1 -67 25 -55 42 rrcurveto
          endchar
        </CharString>
        <CharString name="Otilde">
          402 -33 150 1200 150 164 189 -88 189 hstemhm
          72 322 786 323 87 callgsubr
          1099 49 callsubr
          hintmask 11011100
          -24 callsubr
          hintmask 11101100
          2 callgsubr
          -424 -422 -101 callgsubr
        </CharString>
        <CharString name="P">
          136 0 152 366 147 617 156 -144 144 -44 callsubr
          413 316 87 callgsubr
          102 1438 -74 callsubr
          181 vlineto
          48 -1 38 0 63 2 387 11 187 224 6 219 9 326 -238 141 -359 -2 rrcurveto
          -141 -306 rmoveto
          hintmask 11011100
          144 51 18 87 103 172 -29 -273 -209 -95 -118 -226 -32 -31 3 3 -29 vhcurveto
          endchar
        </CharString>
        <CharString name="Pi">
          450 80 callsubr
          157 -152 -84 callgsubr
          534 296 hintmask 00000000
          hintmask 11001100
          1374 70 callgsubr
          hintmask 11001100
          135 -1418 vlineto
          hintmask 10101100
          -158 vlineto
          -100 callgsubr
          760 vlineto
          hintmask 11001100
          163 53 10 89 5 vhcurveto
          392 5 rlineto
          -966 -104 callsubr
          endchar
        </CharString>
        <CharString name="Q">
          404 -446 137 276 150 1200 150 hstem
          73 322 786 323 vstem
          1626 -446 rmoveto
          137 vlineto
          -89 -10 28 177 -190 hvcurveto
          99 -106 -72 16 -117 hhcurveto
          2 vlineto
          308 116 154 316 272 vvcurveto
          341 -214 409 -498 -485 -234 -407 -343 -352 189 -398 504 169 76 -149 -153 174 vhcurveto
          -102 116 48 -9 189 hhcurveto
          -773 1763 rmoveto
          285 7 131 -267 -375 vvcurveto
          -251 -91 -312 -283 -2 vhcurveto
          -310 -2 -102 370 256 vvcurveto
          253 89 316 281 7 vhcurveto
          endchar
        </CharString>
        <CharString name="R">
          17 callsubr
          hintmask 00000000
          hintmask 01110100
          102 1438 -74 callsubr
          221 vlineto
          40 -1 24 0 44 1 25 -29 26 -35 35 -56 150 -245 rcurveline
          hintmask 10110110
          54 -88 48 -70 49 -35 rrcurveto
          337 135 hlineto
          -59 callsubr
          hintmask 01101110
          -20 callgsubr
          endchar
        </CharString>
        <CharString name="Racute">
          17 callsubr
          hintmask 00000000
          hintmask 01110100
          486 -91 callgsubr
          -611 -441 -74 callsubr
          221 vlineto
          40 -1 24 0 44 1 25 -29 26 -35 35 -56 150 -245 rcurveline
          hintmask 10110110
          54 -88 48 -70 49 -35 rrcurveto
          337 135 hlineto
          -59 callsubr
          hintmask 01101110
          -20 callgsubr
          endchar
        </CharString>
        <CharString name="Rcaron">
          17 callsubr
          hintmask 10110110
          1109 -65 callgsubr
          -589 -128 rmoveto
          -162 -100 callsubr
          608 158 vlineto
          hintmask 01110110
          12 callgsubr
          54 -88 48 -70 49 -35 rrcurveto
          337 hlineto
          hintmask 10110110
          135 vlineto
          -59 callsubr
          hintmask 10101110
          -20 callgsubr
          endchar
        </CharString>
        <CharString name="Rcommaaccent">
          -31 callsubr
          59 237 121 308 hintmask 00000000
          hintmask 01110100
          102 1438 -74 callsubr
          221 vlineto
          40 -1 24 0 44 1 25 -29 26 -35 35 -56 150 -245 rcurveline
          hintmask 10110101
          54 -88 48 -70 49 -35 rrcurveto
          337 135 hlineto
          -59 callsubr
          hintmask 01101111
          -20 callgsubr
          36 -834 -95 callgsubr
        </CharString>
        <CharString name="Ring">
          -444 1538 110 304 109 hstem
          91 182 181 183 vstem
          362 2061 rmoveto
          85 callgsubr
          -172 6 137 -76 131 hhcurveto
          131 146 102 172 -5 hvcurveto
          170 -8 -141 79 -126 hhcurveto
          -7 -109 rmoveto
          65 callgsubr
          -60 -4 -43 60 109 vvcurveto
          83 33 52 49 4 vhcurveto
          endchar
        </CharString>
        <CharString name="S">
          53 -33 148 -35 callgsubr
          605 273 -245 154 hintmask 00000000
          hintmask 10100101
          121 460 -89 callsubr
        </CharString>
        <CharString name="Sacute">
          53 -33 148 -35 callgsubr
          605 273 -245 154 hintmask 00000000
          hintmask 10100101
          397 -91 callgsubr
          -503 -1419 -89 callsubr
        </CharString>
        <CharString name="Scaron">
          53 -33 148 -35 callgsubr
          605 273 hintmask 01100110
          1039 -65 callgsubr
          -500 -1106 rmoveto
          -479 158 vlineto
          -7 87 rlineto
          2 hlineto
          hintmask 10101010
          -66 109 138 -35 107 hhcurveto
          317 209 171 242 268 -262 126 -206 83 hvcurveto
          -226 91 -105 67 128 vvcurveto
          102 104 73 116 1 vhcurveto
          191 2 127 -118 24 callgsubr
          hintmask 10011010
          479 -22 callsubr
          -70 callgsubr
        </CharString>
        <CharString name="Scedilla">
          53 -244 135 79 145 -35 callgsubr
          460 235 -90 273 -245 154 hintmask 0000000000000000
          hintmask 0001001001000000
          1064 974 rmoveto
          hintmask 0000101001000000
          479 -22 callsubr
          7 -84 rlineto
          -2 hlineto
          hintmask 0101010010000000
          -85 callgsubr
          hintmask 0011001001000000
          70 callsubr
          hintmask 1101001100000000
          91 -55 111 -33 96 -10 -51 -210 rcurveline
          76 -32 rlineto
          -65 callsubr
          -37 1 -69 -15 -34 -18 rrcurveto
          -2 hlineto
          42 113 rlineto
          hintmask 0101010010000000
          264 31 168 160 217 vvcurveto
          268 -262 126 -206 83 vhcurveto
          -226 91 -105 67 128 vvcurveto
          102 104 73 116 1 vhcurveto
          191 2 127 60 callsubr
          endchar
        </CharString>
        <CharString name="Scommaaccent">
          53 -33 148 -35 callgsubr
          272 237 96 273 -245 154 hintmask 0000000000000000
          hintmask 1010010010000000
          121 460 rmoveto
          hintmask 0110010010000000
          -479 158 vlineto
          -7 87 rlineto
          2 hlineto
          hintmask 1010100100000000
          -66 109 138 -35 107 hhcurveto
          317 209 171 242 268 -262 126 -206 83 hvcurveto
          -226 91 -105 67 128 vvcurveto
          102 104 73 116 1 vhcurveto
          191 2 127 60 callsubr
          hintmask 1001010010000000
          23 callsubr
          7 -84 rlineto
          -2 hlineto
          hintmask 1010101100000000
          -85 callgsubr
          270 -582 -95 callgsubr
        </CharString>
        <CharString name="T">
          -3 callgsubr
          1297 970 rmoveto
          -12 464 -77 callgsubr
          960 47 callsubr
          -106 -222 vvcurveto
          endchar
        </CharString>
        <CharString name="Tcaron">
          -3 callgsubr
          1119 -65 callgsubr
          596 -596 rmoveto
          -12 464 -77 callgsubr
          960 47 callsubr
          -106 -222 vvcurveto
          endchar
        </CharString>
        <CharString name="Thorn">
          124 0 152 157 148 568 144 113 -84 callgsubr
          403 316 hintmask 00000000
          hintmask 11110110
          -25 callgsubr
          588 -93 callsubr
          4 31 3 61 1 65 41 -1 36 1 56 2 387 11 193 194 6 219 9 326 -244 113 -359 -4 -123 -2 rcurveline
          hintmask 11101110
          10 119 52 7 82 5 rrcurveto
          -146 -275 rmoveto
          1 33 39 0 50 hhcurveto
          85 196 -8 -263 -199 -101 -98 -226 -27 -25 1 3 -24 hvcurveto
          endchar
        </CharString>
        <CharString name="Tilde">
          -126 1631 189 -88 189 hstemhm
          92 862 hintmask 00000000
          hintmask 01100000
          838 1953 rmoveto
          hintmask 10100000
          -78 -40 -72 -55 -55 hhcurveto
          hintmask 01100000
          -24 callsubr
          hintmask 10100000
          2 callgsubr
          endchar
        </CharString>
        <CharString name="U">
          -49 callsubr
          1507 1434 -98 callsubr
        </CharString>
        <CharString name="Uacute">
          -49 callsubr
          572 -91 callgsubr
          708 -445 -98 callsubr
        </CharString>
        <CharString name="Ucircumflex">
          -49 callsubr
          1264 -47 callsubr
          307 -152 -98 callsubr
        </CharString>
        <CharString name="Udieresis">
          384 -33 77 callsubr
          hstemhm
          199 297 31 273 84 273 22 88 callgsubr
          hintmask 11011010
          665 1943 rmoveto
          -73 -65 -71 -86 -86 63 -68 73 73 64 68 86 86 -58 71 -77 hvcurveto
          hintmask 11011110
          357 hmoveto
          -73 -65 -71 -86 -86 63 -68 73 73 64 68 86 86 -58 71 -77 hvcurveto
          485 -509 rmoveto
          -474 -43 callgsubr
          hintmask 11011010
          -105 callgsubr
          -537 vlineto
          -302 -133 -144 -225 8 vhcurveto
          -166 6 -159 86 343 vvcurveto
          563 vlineto
          hintmask 10111010
          -97 callgsubr
          hintmask 11011010
          -72 callsubr
          -351 128 -284 462 327 245 170 471 vhcurveto
          513 vlineto
          hintmask 10111010
          -54 callgsubr
        </CharString>
        <CharString name="Ugrave">
          -49 callsubr
          917 -67 callgsubr
          881 -256 -98 callsubr
        </CharString>
        <CharString name="Uhungarumlaut">
          -49 callsubr
          489 -46 callsubr
          460 -407 -98 callsubr
        </CharString>
        <CharString name="Umacron">
          384 -33 77 callsubr
          264 192 hstemhm
          199 297 683 182 87 callsubr
          1079 1702 -23 callgsubr
          1010 -261 -88 callgsubr
          hintmask 10111100
          -97 callgsubr
          hintmask 11011100
          -72 callsubr
          -351 128 -284 462 327 245 170 471 vhcurveto
          513 vlineto
          hintmask 10111100
          -54 callgsubr
        </CharString>
        <CharString name="Uogonek">
          384 -534 186 315 77 callsubr
          hstemhm
          199 297 82 203 398 88 callgsubr
          hintmask 01101010
          1507 1434 -88 callgsubr
          hintmask 01011010
          -97 callgsubr
          hintmask 11101110
          -72 callsubr
          -344 123 -280 440 -11 vhcurveto
          -109 -80 -75 -101 -109 -58 callgsubr
          -4 115 134 105 130 55 rrcurveto
          193 77 127 183 339 vvcurveto
          513 vlineto
          hintmask 01011010
          -54 callgsubr
        </CharString>
        <CharString name="Uring">
          384 -33 77 callsubr
          129 76 callgsubr
          hstemhm
          199 297 50 74 callsubr
          149 182 hintmask 0000000000000000
          hintmask 1101111110000000
          787 2038 -76 callsubr
          721 -481 -88 callgsubr
          hintmask 1011111110000000
          -97 callgsubr
          hintmask 1101111110000000
          -72 callsubr
          -351 128 -284 462 327 245 170 471 vhcurveto
          513 vlineto
          hintmask 1011111110000000
          -54 callgsubr
        </CharString>
        <CharString name="V">
          277 62 callsubr
          17 1433 hintmask 00000000
          hintmask 10010000
          1450 48 callgsubr
          -461 -43 callgsubr
          hintmask 01010000
          29 1 84 4 44 3 rrcurveto
          -2 vlineto
          -35 -42 -33 -99 -16 -45 -155 -429 rcurveline
          -33 -93 -36 -107 -30 -81 rrcurveto
          -2 hlineto
          -42 104 -27 74 -47 113 -189 464 rcurveline
          hintmask 00110000
          -48 121 65 39 31 callgsubr
          -83 29 -68 vhcurveto
          472 -1099 rlineto
          168 hlineto
          409 1092 rlineto
          hintmask 00110000
          59 157 66 57 92 5 rrcurveto
          endchar
        </CharString>
        <CharString name="W">
          908 62 callsubr
          27 2056 hintmask 00000000
          hintmask 10010000
          2083 48 callgsubr
          -461 -43 callgsubr
          hintmask 01010000
          29 1 84 4 44 3 rrcurveto
          -2 vlineto
          -41 -44 -25 -77 -18 -65 -114 -429 rcurveline
          -26 -99 -28 -94 -24 -90 rrcurveto
          -2 hlineto
          -23 102 -22 99 -29 94 rrcurveto
          hintmask 10010000
          -232 755 rlineto
          -185 hlineto
          -190 -628 -18 -59 -80 -285 -19 -75 rlinecurve
          -2 hlineto
          -25 132 -19 65 -25 93 -123 468 rcurveline
          hintmask 00110000
          -35 125 54 31 31 callgsubr
          -79 29 -68 vhcurveto
          365 -1103 rlineto
          178 hlineto
          233 768 28 92 18 82 15 93 rlinecurve
          2 hlineto
          19 -93 19 -102 36 -107 243 -733 rcurveline
          181 hlineto
          335 1092 rlineto
          hintmask 00110000
          52 159 73 55 92 5 rrcurveto
          endchar
        </CharString>
        <CharString name="X">
          -81 callsubr
        </CharString>
        <CharString name="Y">
          193 80 callsubr
          -20 callsubr
          562 296 hintmask 00000000
          hintmask 10101000
          1357 1434 -63 callsubr
        </CharString>
        <CharString name="Yacute">
          193 80 callsubr
          -20 callsubr
          562 296 hintmask 00000000
          hintmask 10101000
          491 -91 callgsubr
          639 -445 -63 callsubr
        </CharString>
        <CharString name="Ydieresis">
          193 80 callsubr
          -20 callsubr
          392 273 -103 296 -109 273 hintmask 00000000
          530 -85 callsubr
          470 -509 rmoveto
          -452 hlineto
          hintmask 10101010
          -22 callsubr
          hintmask 11000010
          -53 callgsubr
          hintmask 10100010
          -65 113 67 52 119 -7 rrcurveto
          hintmask 10010100
          135 -603 vlineto
          hintmask 10100100
          -22 callsubr
          hintmask 11000100
          29 1 26 -78 callsubr
          rrcurveto
          -44 39 -88 39 -63 vhcurveto
          378 -595 rlineto
          -179 -66 callgsubr
          598 158 vlineto
          -48 callgsubr
          232 vlineto
          267 512 rlineto
          hintmask 10100100
          80 148 57 56 95 15 rrcurveto
          endchar
        </CharString>
        <CharString name="Z">
          -11 callsubr
          1147 1280 -82 callgsubr
        </CharString>
        <CharString name="Zacute">
          -11 callsubr
          427 -91 callgsubr
          493 -599 -82 callgsubr
        </CharString>
        <CharString name="Zcaron">
          -11 callsubr
          1108 -65 callgsubr
          457 -286 -82 callgsubr
        </CharString>
        <CharString name="Zdotaccent">
          -11 callsubr
          644 1953 -36 callgsubr
          503 -673 -82 callgsubr
        </CharString>
        <CharString name="a">
          -50 callsubr
          632 616 -29 callgsubr
          hintmask 10110100
          -58 callsubr
          hintmask 01101100
          -103 callgsubr
          hintmask 10110100
          -84 callsubr
        </CharString>
        <CharString name="aacute">
          -50 callsubr
          317 1241 -87 callsubr
          147 -911 -29 callgsubr
          hintmask 10110100
          -58 callsubr
          hintmask 01101100
          -103 callgsubr
          hintmask 10110100
          -84 callsubr
        </CharString>
        <CharString name="abreve">
          -44 callgsubr
          172 189 -14 callsubr
          260 284 hintmask 00000000
          hintmask 01111010
          707 -31 callgsubr
          -207 -889 -29 callgsubr
          hintmask 10111010
          -58 callsubr
          hintmask 01110110
          -103 callgsubr
          hintmask 10111010
          -84 callsubr
        </CharString>
        <CharString name="acircumflex">
          -50 callsubr
          865 -51 callgsubr
          -145 -535 -29 callgsubr
          hintmask 10110100
          -58 callsubr
          hintmask 01101100
          -103 callgsubr
          hintmask 10110100
          -84 callsubr
        </CharString>
        <CharString name="acute">
          -594 1158 444 hstem
          90 397 vstem
          90 1241 -87 callsubr
          endchar
        </CharString>
        <CharString name="adieresis">
          -44 callgsubr
          481 -20 -14 callsubr
          -169 272 84 272 -199 284 hintmask 0000000000000000
          339 1538 -88 callsubr
          hintmask 0111001100000000
          -63 -922 -6 callgsubr
          hintmask 1011100010000000
          -103 callgsubr
          hintmask 0111010010000000
          -84 callsubr
        </CharString>
        <CharString name="ae">
          405 -33 183 -183 200 378 138 228 146 hstemhm
          60 290 -290 1477 -1432 265 263 295 -288 275 310 271 hintmask 0000000000000000
          hintmask 0011010000000000
          799 884 rmoveto
          128 -36 -101 45 -139 hhcurveto
          hintmask 0011001100000000
          -240 -178 -119 -151 -75 46 -63 81 -2 hvcurveto
          96 -2 42 73 57 vvcurveto
          20 -4 39 -21 23 vhcurveto
          34 36 58 16 54 2 rrcurveto
          102 4 40 -82 -106 vvcurveto
          -111 vlineto
          hintmask 0111100000000000
          -274 -11 -299 -106 -259 vvcurveto
          -156 107 -117 176 134 155 28 144 126 vhcurveto
          hintmask 1011000011000000
          -92 69 107 -80 153 hhcurveto
          139 164 39 211 147 hvcurveto
          -92 87 rlineto
          -115 -94 -104 -39 -83 hhcurveto
          -200 -48 165 224 -1 hvcurveto
          581 12 4 375 -195 129 -181 2 rlinecurve
          hintmask 0011010000000000
          -157 -91 -48 -125 -75 hvcurveto
          hintmask 0011000101000000
          127 -201 rmoveto
          121 10 41 107 111 hhcurveto
          66 64 -59 -169 5 hvcurveto
          hintmask 0111100010000000
          -593 -212 rmoveto
          1 -73 1 -75 6 -78 rrcurveto
          -46 -42 -62 -32 -63 hhcurveto
          -58 -63 31 76 -2 hvcurveto
          -3 117 132 65 153 15 rrcurveto
          endchar
        </CharString>
        <CharString name="agrave">
          -50 callsubr
          621 -68 callsubr
          260 -758 -29 callgsubr
          hintmask 10110100
          -58 callsubr
          hintmask 01101100
          -103 callgsubr
          hintmask 10110100
          -84 callsubr
        </CharString>
        <CharString name="amacron">
          -44 callgsubr
          231 192 -14 callsubr
          260 284 hintmask 00000000
          hintmask 01111010
          807 1292 -23 callgsubr
          407 -669 -29 callgsubr
          hintmask 10111010
          -58 callsubr
          hintmask 01110110
          -103 callgsubr
          hintmask 10111010
          -84 callsubr
        </CharString>
        <CharString name="ampersand">
          200 -33 146 -113 135 528 146 513 145 hstemhm
          48 277 -127 245 271 232 -61 344 -235 145 hintmask 0000000000000000
          1382 hmoveto
          135 vlineto
          -55 -91 64 89 -105 hvcurveto
          -32 27 rlineto
          26 67 14 74 80 vvcurveto
          49 -8 44 -14 32 vhcurveto
          2 vlineto
          hintmask 0111011010000000
          43 -3 42 -4 27 -1 rrcurveto
          154 -344 -131 vlineto
          hintmask 1011010100000000
          72 -5 37 -38 -113 vvcurveto
          -35 -3 -35 -8 -32 vhcurveto
          -2 hlineto
          -154 144 -161 164 -15 18 rrcurveto
          152 89 143 140 170 vvcurveto
          172 -141 150 -216 -234 -155 -132 -206 -2 vhcurveto
          -1 -114 23 -107 147 -160 rrcurveto
          hintmask 1011011010000000
          -185 -68 -134 -149 -182 vvcurveto
          -267 249 -115 238 173 148 55 95 106 vhcurveto
          hintmask 1011101010000000
          -75 95 83 -42 24 hhcurveto
          -585 1322 rmoveto
          85 50 -69 -98 -85 -51 -136 -103 -79 hvcurveto
          -66 80 -51 122 82 vvcurveto
          118 59 65 77 vhcurveto
          hintmask 0111011010000000
          278 -1113 rmoveto
          -60 -67 -88 -36 -101 hhcurveto
          -171 -105 101 186 59 23 109 78 63 hvcurveto
          84 -96 86 -91 158 -142 rrcurveto
          endchar
        </CharString>
        <CharString name="aogonek">
          -98 -534 186 315 200 -167 150 760 147 -14 callsubr
          132 203 -76 285 hintmask 00000000
          hintmask 10111001
          1040 hmoveto
          156 vlineto
          -29 -1 -59 24 callsubr
          61 2 79 39 140 2 57 139 vvcurveto
          273 -139 119 -240 vhcurveto
          hintmask 10110101
          -240 -192 -109 -161 -75 46 -63 81 -2 hvcurveto
          96 -2 42 73 57 vvcurveto
          20 -4 33 -21 23 vhcurveto
          34 36 52 21 54 2 rrcurveto
          112 4 34 -85 -106 vvcurveto
          -107 vlineto
          hintmask 11011001
          -274 -11 -297 -106 -259 vvcurveto
          -58 callsubr
          hintmask 10111010
          2 -35 1 -20 5 -39 rrcurveto
          83 hlineto
          -135 -84 -98 -115 -124 -58 callgsubr
          -4 109 120 100 124 57 rrcurveto
          hintmask 11011001
          -316 242 rmoveto
          -46 -42 -57 -29 -63 hhcurveto
          -58 -55 31 76 -2 hvcurveto
          -3 117 128 65 152 15 rrcurveto
          endchar
        </CharString>
        <CharString name="approxequal">
          -3 251 211 -82 211 61 211 -82 211 hstemhm
          131 909 hintmask 00000000
          hintmask 01011000
          131 698 rmoveto
          45 74 66 38 112 hhcurveto
          hintmask 01101000
          -1 callsubr
          -604 vmoveto
          45 74 66 38 112 hhcurveto
          hintmask 10011000
          -1 callsubr
          endchar
        </CharString>
        <CharString name="aring">
          -44 callgsubr
          96 76 callgsubr
          -14 callsubr
          -97 74 callsubr
          -127 284 hintmask 0000000000000000
          hintmask 0111100110000000
          515 1628 -76 callsubr
          hintmask 1011110001000000
          118 -889 -6 callgsubr
          hintmask 0111101001000000
          -103 callgsubr
          hintmask 1011110001000000
          -84 callsubr
        </CharString>
        <CharString name="asciicircum">
          514 1316 151 0 -20 hstemhm
          123 1440 hintmask 00000000
          hintmask 01100000
          1563 894 rmoveto
          -627 573 rlineto
          -182 hlineto
          -631 -563 rlineto
          268 hlineto
          hintmask 10100000
          444 412 rlineto
          2 hlineto
          445 -422 rlineto
          endchar
        </CharString>
        <CharString name="asciitilde">
          -66 565 252 hstem
          99 910 vstem
          99 466 rmoveto
          54 74 66 45 112 164 45 -154 205 hhcurveto
          108 80 45 62 56 hvcurveto
          242 vlineto
          -70 -64 -92 -41 -98 8 rrcurveto
          13 -146 -33 141 -211 hhcurveto
          -108 -66 -39 -70 -86 hvcurveto
          endchar
        </CharString>
        <CharString name="asterisk">
          -80 547 64 callsubr
          -89 -18 -76 -71 -56 17 -83 40 -121 hvcurveto
          -103 75 -73 41 -55 19 -67 22 -77 5 -28 -83 -27 -84 66 -41 68 -22 rrcurveto
          -18 54 83 -9 128 hhcurveto
          -104 -73 -61 -57 -35 -47 -41 -57 -29 -72 70 -52 72 -52 59 51 42 58 34 45 34 77 40 121 37 -121 35 -76 34 -48 41 -56 60 -51 72 52 71 52 -30 71 -42 59 rrcurveto
          -33 45 -62 57 -104 74 127 -1 82 10 57 17 66 21 67 42 -27 84 -28 83 -77 -5 -69 -22 -53 -18 -73 -42 -102 -74 rrcurveto
          40 121 17 82 57 vvcurveto
          71 -18 76 -88 vhcurveto
          endchar
        </CharString>
        <CharString name="at">
          452 -203 100 249 98 -88 141 594 102 223 88 hstemhm
          97 161 186 204 277 169 284 150 hintmask 0000000000000000
          hintmask 1101111110000000
          1370 112 rmoveto
          -144 -131 -198 -71 -166 hhcurveto
          -337 -280 226 414 351 237 328 350 302 231 -204 -373 -142 -47 -253 -162 -57 -18 61 60 105 41 296 25 184 hvcurveto
          29 -91 -94 14 -60 hhcurveto
          -307 -164 -274 -266 hvcurveto
          hintmask 1011111110000000
          -210 104 -87 114 88 101 69 185 74 vhcurveto
          hintmask 1101111110000000
          -17 -210 107 -48 98 -6 171 -10 235 149 9 336 rrcurveto
          338 9 -231 345 -449 hhcurveto
          -493 -267 -431 -348 -391 253 -348 500 11 hvcurveto
          212 5 203 85 151 170 rrcurveto
          -546 834 rmoveto
          24 2 34 -3 18 -6 rrcurveto
          hintmask 1011111110000000
          -232 -10 -115 -355 -104 hhcurveto
          -42 -27 54 95 hvcurveto
          hintmask 1101111110000000
          190 81 243 141 12 vhcurveto
          endchar
        </CharString>
        <CharString name="atilde">
          -44 callgsubr
          186 196 -117 195 25 -20 -14 callsubr
          260 284 hintmask 0000000000000000
          hintmask 0111011010000000
          766 3 callsubr
          hintmask 0110101010000000
          -6 callsubr
          hintmask 1011011010000000
          13 callgsubr
          -250 -867 -6 callgsubr
          hintmask 0111010110000000
          -103 callgsubr
          hintmask 1011011010000000
          -84 callsubr
        </CharString>
        <CharString name="b">
          1 -33 150 755 41 callsubr
          -16 callsubr
          -1157 124 vlineto
          59 91 rlineto
          2 hlineto
          -104 97 126 -20 74 hhcurveto
          309 188 241 330 317 -167 202 -246 -85 -99 -28 -82 -92 hvcurveto
          -162 vmoveto
          36 51 63 34 66 2 rrcurveto
          158 5 66 -182 -188 vvcurveto
          -201 -55 -195 -184 6 vhcurveto
          -73 2 -77 48 140 vvcurveto
          endchar
        </CharString>
        <CharString name="backslash">
          260 1547 -20 hstem
          51 1329 vstem
          1380 -450 rmoveto
          -1143 1997 -186 -120 1170 -1982 rlineto
          endchar
        </CharString>
        <CharString name="bar">
          -641 1556 -20 hstem
          124 283 vstem
          407 -555 rmoveto
          2111 -283 -2111 vlineto
          endchar
        </CharString>
        <CharString name="braceleft">
          66 callgsubr
          -6 178 45 277 hintmask 00000000
          hintmask 10111000
          739 1556 rmoveto
          -57 hlineto
          -311 -154 -133 -289 hvcurveto
          -121 21 -116 -106 vvcurveto
          -140 -45 -39 -152 vhcurveto
          -47 -146 47 hlineto
          152 45 -48 -139 hvcurveto
          -107 -21 -168 -121 vvcurveto
          -288 154 -150 311 vhcurveto
          57 145 hlineto
          -171 -6 -74 37 234 vvcurveto
          66 14 127 8 102 vhcurveto
          16 219 -152 145 -208 23 rrcurveto
          4 vlineto
          214 21 149 143 -21 223 rrcurveto
          -8 83 -12 91 61 vvcurveto
          hintmask 11011000
          233 74 23 171 -7 vhcurveto
          endchar
        </CharString>
        <CharString name="braceright">
          66 callgsubr
          260 277 45 178 hintmask 00000000
          hintmask 10111000
          15 1556 rmoveto
          hintmask 11011000
          -144 vlineto
          171 7 74 -23 -233 vvcurveto
          -61 -12 -91 -8 -83 vhcurveto
          -21 -223 149 -143 214 -21 rrcurveto
          -4 vlineto
          -208 -23 -152 -145 16 -219 rrcurveto
          8 -102 14 -127 -66 vvcurveto
          -234 -74 -37 -171 6 vhcurveto
          -145 57 vlineto
          311 154 150 288 hvcurveto
          121 -21 168 107 vvcurveto
          139 45 48 152 vhcurveto
          47 146 -47 hlineto
          -152 -45 39 140 hvcurveto
          106 21 116 121 vvcurveto
          289 -154 133 -311 vhcurveto
          endchar
        </CharString>
        <CharString name="bracketleft">
          71 callgsubr
          129 256 vstem
          784 1401 rmoveto
          145 -655 -2068 659 145 vlineto
          -403 6 rlineto
          1766 vlineto
          endchar
        </CharString>
        <CharString name="bracketright">
          71 callgsubr
          406 256 vstem
          7 -377 rmoveto
          -145 655 2068 -659 -145 vlineto
          403 -6 rlineto
          -1766 vlineto
          endchar
        </CharString>
        <CharString name="breve">
          -345 1229 189 hstem
          90 647 vstem
          605 -31 callgsubr
          endchar
        </CharString>
        <CharString name="brokenbar">
          -665 1557 -20 hstem
          138 227 vstem
          361 767 rmoveto
          8 790 rlineto
          -231 -790 hlineto
          223 -1322 rmoveto
          8 786 rlineto
          -231 -786 hlineto
          endchar
        </CharString>
        <CharString name="bullet">
          -390 422 643 hstem
          64 654 vstem
          390 1065 rmoveto
          -181 -145 -141 -181 -180 145 -141 181 179 149 141 180 181 -149 141 -179 hvcurveto
          endchar
        </CharString>
        <CharString name="c">
          61 callsubr
          941 307 -90 callsubr
          -332 227 -191 277 149 169 43 206 150 vhcurveto
          endchar
        </CharString>
        <CharString name="cacute">
          61 callsubr
          416 1241 -87 callsubr
          357 -1220 -90 callsubr
          -332 227 -191 277 149 169 43 206 150 vhcurveto
          endchar
        </CharString>
        <CharString name="caron">
          -303 1140 452 hstem
          59 689 vstem
          748 -64 callgsubr
          endchar
        </CharString>
        <CharString name="ccaron">
          61 callsubr
          958 -64 callgsubr
          318 -833 -90 callsubr
          -332 227 -191 277 149 169 43 206 150 vhcurveto
          endchar
        </CharString>
        <CharString name="ccedilla">
          -112 -244 135 1022 59 callsubr
          284 235 vstem
          941 307 -90 callsubr
          -298 183 -184 238 -35 vhcurveto
          -52 -213 76 -32 rlineto
          -65 callsubr
          -37 1 -69 -15 -34 -18 rrcurveto
          -2 hlineto
          41 111 132 13 143 57 128 176 rlinecurve
          endchar
        </CharString>
        <CharString name="cedilla">
          -507 -244 264 hstem
          338 235 vstem
          282 -141 rmoveto
          60 161 rlineto
          -156 hlineto
          -63 -260 76 -32 rlineto
          -65 callsubr
          -37 1 -69 -15 -34 -18 rrcurveto
          endchar
        </CharString>
        <CharString name="cent">
          -15 1047 -20 26 -20 hstemhm
          104 300 123 171 -166 180 hintmask 00000000
          712 1282 rmoveto
          -181 hlineto
          -48 1 -114 -73 vvcurveto
          -258 -51 -170 -234 -272 vvcurveto
          hintmask 10101000
          -299 184 -184 239 -33 vhcurveto
          -254 170 vlineto
          54 1 122 78 vvcurveto
          125 17 132 59 121 166 -94 91 rcurveline
          -76 -98 -118 -63 -114 4 rrcurveto
          -201 7 -69 188 203 vvcurveto
          232 93 125 132 8 vhcurveto
          37 2 81 -10 32 -60 rrcurveto
          -17 -27 -8 -38 -24 vvcurveto
          -57 34 -79 105 3 vhcurveto
          88 2 50 71 80 vvcurveto
          hintmask 01110000
          129 -108 125 -211 23 vhcurveto
          endchar
        </CharString>
        <CharString name="circumflex">
          -293 1151 452 hstem
          90 699 vstem
          789 -51 callgsubr
          endchar
        </CharString>
        <CharString name="colon">
          -665 -33 1145 hstem
          105 297 vstem
          254 1112 -36 callsubr
          -825 vmoveto
          11 callsubr
        </CharString>
        <CharString name="comma">
          -19 callgsubr
        </CharString>
        <CharString name="commaaccentcomb">
          -1172 -582 509 hstem
          215 237 vstem
          192 -122 -95 callgsubr
        </CharString>
        <CharString name="copyright">
          702 -146 118 220 179 695 142 220 118 hstem
          95 145 224 244 474 153 302 143 vstem
          -32 callsubr
          352 -907 rmoveto
          -81 -101 -102 -51 -98 2 rrcurveto
          -191 4 -113 155 185 vvcurveto
          204 115 147 145 109 101 -60 -164 21 vhcurveto
          136 359 -156 hlineto
          1 -8 0 -39 2 -17 -72 50 -72 18 -82 3 rrcurveto
          -331 12 -161 -286 -241 vvcurveto
          -281 207 -220 284 116 182 49 187 137 vhcurveto
          endchar
        </CharString>
        <CharString name="currency">
          -12 276 999 rmoveto
          -148 -119 123 -141 rlineto
          -39 -67 -21 -77 -75 vvcurveto
          -75 19 -74 36 -62 vhcurveto
          -118 -134 149 -119 97 122 rlineto
          -33 56 69 -19 80 hhcurveto
          81 69 19 34 57 hvcurveto
          98 -123 148 119 -118 134 rlineto
          36 62 19 74 75 vvcurveto
          75 -21 77 -40 67 vhcurveto
          124 141 -148 118 -102 -128 rlineto
          35 -56 -68 22 -78 hhcurveto
          -79 -67 -21 -35 -56 hvcurveto
          202 -94 rmoveto
          106 34 -148 -79 -102 -29 -166 -111 -111 -28 166 102 79 33 148 106 hvcurveto
          endchar
        </CharString>
        <CharString name="d">
          49 28 callgsubr
          hintmask 00000000
          hintmask 01111110
          1045 1546 -4 callsubr
          hintmask 10111110
          -317 29 callgsubr
          hintmask 01111110
          11 -95 rlineto
          389 156 hlineto
          -29 -1 -60 79 callsubr
          79 39 vvcurveto
          hintmask 10111110
          9 callgsubr
        </CharString>
        <CharString name="dagger">
          -107 811 234 0 -20 520 -20 hstemhm
          470 125 hintmask 00000000
          hintmask 01110000
          595 -554 rmoveto
          22 355 20 428 45 344 rrcurveto
          hintmask 10110000
          -25 60 -21 129 -22 96 69 -14 69 -22 111 -11 rrcurveto
          74 71 24 94 93 -69 23 -74 -86 -91 -32 -17 -86 hvcurveto
          20 108 34 146 10 107 rrcurveto
          82 7 -32 106 -106 hhcurveto
          -107 -36 -106 -82 7 hvcurveto
          10 -110 33 -142 20 -108 rrcurveto
          16 -87 -89 32 -86 hhcurveto
          -73 -70 -23 -93 -94 72 -24 74 14 87 7 41 146 hvcurveto
          -22 -97 -20 -127 -25 -62 44 -342 22 -435 21 -350 rrcurveto
          endchar
        </CharString>
        <CharString name="daggerdbl">
          -57 -44 234 615 233 0 -20 532 -20 hstemhm
          82 951 hintmask 00000000
          hintmask 10111000
          407 498 rmoveto
          79 -357 rlineto
          14 -68 -93 35 -97 hhcurveto
          -74 -72 -24 -94 -91 69 -25 75 70 95 32 16 87 hvcurveto
          -20 -109 -24 -150 -9 -111 rrcurveto
          -82 -8 32 -107 107 hhcurveto
          106 37 107 82 -8 hvcurveto
          -10 110 -23 151 -20 109 rrcurveto
          -19 100 81 -29 71 hhcurveto
          75 68 25 91 94 -71 24 -74 -83 -23 -12 -36 -153 hvcurveto
          73 356 rlineto
          hintmask 11011000
          -63 354 67 -13 70 -23 112 -11 rlinecurve
          74 71 23 94 93 -69 23 -73 -87 -88 -31 -18 -88 hvcurveto
          20 110 32 153 11 110 rrcurveto
          82 7 -31 106 -107 hhcurveto
          -106 -36 -106 -82 7 hvcurveto
          10 -110 34 -153 19 -109 rrcurveto
          17 -88 -88 31 -87 hhcurveto
          -73 -70 -23 -93 -94 72 -23 74 14 91 5 42 143 hvcurveto
          endchar
        </CharString>
        <CharString name="dcaron">
          246 28 callgsubr
          206 185 hintmask 00000000
          hintmask 01111111
          1226 1608 -35 callsubr
          -363 -28 -4 callsubr
          hintmask 10111111
          -317 29 callgsubr
          hintmask 01111111
          11 -95 rlineto
          389 156 hlineto
          -29 -1 -60 79 callsubr
          79 39 vvcurveto
          hintmask 10111111
          9 callgsubr
        </CharString>
        <CharString name="dcroat">
          49 -33 187 -154 150 655 152 115 158 105 150 61 -20 hstemhm
          66 300 389 290 hintmask 00000000
          hintmask 01111111
          1045 1078 rmoveto
          156 152 -156 316 -111 hlineto
          -26 -28 -97 -35 -190 hhcurveto
          -9 callsubr
          71 -78 callsubr
          -3 -33 -2 -38 -2 -34 rrcurveto
          -337 -158 336 -152 hlineto
          19 -50 -57 18 -75 hhcurveto
          -304 -203 -225 -306 hvcurveto
          hintmask 10111111
          -257 29 callgsubr
          hintmask 01111111
          11 -95 rlineto
          389 156 hlineto
          -29 -1 -60 79 callsubr
          79 39 vvcurveto
          hintmask 10111111
          -290 -78 rmoveto
          -57 -36 -64 -40 -69 hhcurveto
          -158 -62 127 176 184 77 164 167 58 59 -18 -20 28 hvcurveto
          endchar
        </CharString>
        <CharString name="degree">
          -390 808 147 368 144 hstem
          58 174 320 174 vstem
          394 64 callsubr
          -182 -154 -142 -186 -187 129 -144 202 182 155 144 187 186 -129 142 -203 hvcurveto
          -3 -144 rmoveto
          97 64 -86 -98 -99 -64 -85 -96 -95 -65 85 99 98 65 86 94 hvcurveto
          endchar
        </CharString>
        <CharString name="dieresis">
          -298 260 1538 -88 callsubr
          endchar
        </CharString>
        <CharString name="divide">
          -597 90 1022 hstem
          139 297 vstem
          288 1112 -36 callsubr
          -702 vmoveto
          11 callsubr
        </CharString>
        <CharString name="dollar">
          33 -19 87 1251 147 -97 84 -7 -20 hstemhm
          103 266 -244 154 233 192 -168 189 119 273 -252 154 hintmask 0000000000000000
          705 1714 rmoveto
          -192 -248 hlineto
          -328 -17 -82 -211 -162 vvcurveto
          -269 207 -140 236 -97 vhcurveto
          156 -64 143 -48 -138 vvcurveto
          -118 -81 -87 -146 -191 -131 116 229 -37 vhcurveto
          hintmask 1100101010000000
          70 callsubr
          81 -49 92 -32 86 -13 rrcurveto
          -289 189 289 vlineto
          252 34 140 158 214 vvcurveto
          268 -235 117 -203 92 vhcurveto
          hintmask 1001010110000000
          -235 106 -76 52 128 vvcurveto
          102 77 73 116 1 vhcurveto
          191 2 97 -118 24 callgsubr
          hintmask 1100100101000000
          479 -22 callsubr
          7 -84 rlineto
          -2 hlineto
          hintmask 1010010101000000
          -49 35 -57 26 -57 16 rrcurveto
          endchar
        </CharString>
        <CharString name="dotaccent">
          -681 1543 -20 hstem
          91 311 vstem
          247 1543 -36 callgsubr
          endchar
        </CharString>
        <CharString name="dotlessi">
          43 callgsubr
          hstem
          -4 callgsubr
          vstem
          495 1044 rmoveto
          -111 -76 callgsubr
          -69 -49 vvcurveto
          -340 -107 callgsubr
          endchar
        </CharString>
        <CharString name="e">
          -69 callsubr
          954 304 -27 callgsubr
          hintmask 11110100
          -102 callgsubr
        </CharString>
        <CharString name="eacute">
          -69 callsubr
          382 1241 -87 callsubr
          404 -1223 -27 callgsubr
          hintmask 11110100
          -102 callgsubr
        </CharString>
        <CharString name="ecaron">
          -69 callsubr
          924 -64 callgsubr
          365 -836 -27 callgsubr
          hintmask 11110100
          -102 callgsubr
        </CharString>
        <CharString name="ecircumflex">
          -69 callsubr
          930 -51 callgsubr
          112 -847 -27 callgsubr
          hintmask 11110100
          -102 callgsubr
        </CharString>
        <CharString name="edieresis">
          -70 -33 183 395 138 230 144 481 -20 hstemhm
          267 44 callgsubr
          404 1538 -88 callsubr
          194 -1234 -27 callgsubr
          hintmask 11111100
          -102 callgsubr
        </CharString>
        <CharString name="edotaccent">
          -70 -33 183 395 138 230 144 486 -20 69 callsubr
          -301 983 -292 283 hintmask 00000000
          hintmask 11110100
          582 1543 -36 callgsubr
          372 -1239 -27 callgsubr
          hintmask 11111010
          -102 callgsubr
        </CharString>
        <CharString name="egrave">
          -69 callsubr
          686 -68 callsubr
          517 -1070 -27 callgsubr
          hintmask 11110100
          -102 callgsubr
        </CharString>
        <CharString name="eight">
          0 -33 144 1212 144 hstemhm
          115 250 -227 285 369 294 -283 222 hintmask 00000000
          385 702 rmoveto
          hintmask 11010100
          -135 -77 -135 -145 -157 vvcurveto
          -269 270 -87 194 266 241 118 267 156 -97 147 -208 128 vhcurveto
          2 vlineto
          hintmask 11101000
          114 68 130 124 142 vvcurveto
          224 -211 124 -212 -210 -254 -124 -267 -111 66 -147 181 -114 vhcurveto
          233 619 rmoveto
          105 1 86 -76 -6 -139 -3 -74 -66 -104 -86 -64 rrcurveto
          -122 48 -103 112 106 vvcurveto
          103 76 86 119 1 vhcurveto
          hintmask 11010100
          -92 -694 rmoveto
          203 -101 63 -117 -102 vvcurveto
          -112 -80 -88 -131 2 vhcurveto
          -130 2 -93 102 7 129 4 77 48 122 109 86 rrcurveto
          endchar
        </CharString>
        <CharString name="ellipsis">
          412 -33 320 hstem
          90 1403 vstem
          239 287 -36 callsubr
          553 hmoveto
          -66 callsubr
          553 hmoveto
          11 callsubr
        </CharString>
        <CharString name="emacron">
          -70 -33 183 395 138 230 144 231 192 69 callsubr
          -301 983 -292 283 hintmask 00000000
          hintmask 11110100
          872 1292 -23 callgsubr
          664 -981 -27 callgsubr
          hintmask 11111010
          -102 callgsubr
        </CharString>
        <CharString name="emdash">
          186 532 221 hstem
          106 1146 vstem
          1252 532 rmoveto
          221 -1146 -221 vlineto
          endchar
        </CharString>
        <CharString name="endash">
          -19 532 221 hstem
          106 941 vstem
          1047 532 rmoveto
          221 -941 -221 vlineto
          endchar
        </CharString>
        <CharString name="eogonek">
          -70 -534 186 316 182 395 138 230 144 69 callsubr
          -22 203 209 283 hintmask 00000000
          hintmask 01110110
          805 13 rmoveto
          83 36 85 63 73 105 -92 87 rcurveline
          -115 -94 -124 -39 -83 hhcurveto
          hintmask 01111010
          -213 -75 165 224 -1 hvcurveto
          673 12 rlineto
          395 3 -238 111 -227 hhcurveto
          -309 -203 -260 -287 -317 186 -206 279 -19 hvcurveto
          hintmask 11110110
          -110 -80 -76 -102 -109 -58 callgsubr
          hintmask 01110110
          -4 115 134 105 130 55 rrcurveto
          -428 674 rmoveto
          136 20 67 94 121 hhcurveto
          96 68 -61 -169 5 hvcurveto
          endchar
        </CharString>
        <CharString name="equal">
          9 349 197 184 196 hstem
          130 922 vstem
          1052 926 rmoveto
          -922 -196 922 hlineto
          -184 vmoveto
          -922 -197 922 hlineto
          endchar
        </CharString>
        <CharString name="estimated">
          -33 -26 70 463 71 396 67 hstem
          63 221 570 221 vstem
          946 275 rmoveto
          -153 -90 -126 -78 -162 hhcurveto
          -108 -96 39 75 -80 hvcurveto
          349 791 vlineto
          293 -10 -172 241 -325 hhcurveto
          -303 -202 -231 -303 -300 196 -233 309 190 145 91 169 111 hvcurveto
          -160 344 rmoveto
          -570 279 hlineto
          79 77 94 38 111 hhcurveto
          110 96 -38 -79 82 hvcurveto
          endchar
        </CharString>
        <CharString name="eth">
          -62 -33 175 713 160 541 -20 hstem
          67 284 400 264 vstem
          682 1512 rmoveto
          -119 106 -105 -137 -63 31 -92 33 -120 11 rlinecurve
          -30 -150 73 -14 65 -22 50 -29 rlinecurve
          -100 -117 124 -109 118 145 87 -57 118 -138 29 -108 rlinecurve
          -2 hlineto
          48 -58 -75 10 -47 hhcurveto
          -320 1 -153 -289 5 -266 rrcurveto
          -318 6 197 -176 267 hhcurveto
          322 156 266 320 376 -170 311 -250 169 hvcurveto
          -45 -554 rmoveto
          151 1 50 -206 -160 vvcurveto
          -229 -90 -119 -110 -111 -89 133 230 183 73 166 126 1 vhcurveto
          endchar
        </CharString>
        <CharString name="exclam">
          -644 1467 -20 hstem
          115 297 vstem
          194 437 rmoveto
          139 hlineto
          77 844 rlineto
          87 8 -44 99 -110 hhcurveto
          -104 -51 -99 -87 8 hvcurveto
          147 -994 rmoveto
          -79 -70 -72 -89 -88 67 -71 80 78 72 71 88 89 -63 72 -85 hvcurveto
          endchar
        </CharString>
        <CharString name="exclamdown">
          -686 1057 -20 hstem
          94 297 vstem
          242 41 callgsubr
          70 -150 rmoveto
          -139 hlineto
          -77 -844 rlineto
          -87 -8 44 -99 110 hhcurveto
          104 51 99 87 -8 hvcurveto
          endchar
        </CharString>
        <CharString name="f">
          -417 0 150 704 169 -161 160 379 143 hstemhm
          210 290 120 253 hintmask 00000000
          hintmask 10111000
          210 1024 rmoveto
          -148 hlineto
          hintmask 11011000
          -28 callgsubr
          hintmask 10111100
          528 vlineto
          225 5 rlineto
          158 -229 252 vlineto
          -1 59 15 65 68 3 rrcurveto
          11 22 -3 -14 13 hvcurveto
          -20 -90 48 -70 93 2 rrcurveto
          83 2 45 64 72 vvcurveto
          85 -68 95 -193 -246 -156 -132 -330 vhcurveto
          endchar
        </CharString>
        <CharString name="fi">
          195 0 150 704 169 -156 156 20 -20 377 145 hstemhm
          210 290 402 290 -265 256 hintmask 00000000
          hintmask 10101110
          62 1024 rmoveto
          hintmask 11001110
          -28 callgsubr
          hintmask 10101110
          530 vlineto
          410 10 69 callgsubr
          -69 -49 vvcurveto
          -379 -107 callgsubr
          hintmask 10011110
          715 -111 vlineto
          hintmask 10101110
          -26 -28 -198 6 -190 hhcurveto
          -169 49 hlineto
          162 -1 24 166 222 hhcurveto
          135 48 -53 -12 10 hvcurveto
          hintmask 10101101
          -27 -92 58 -76 93 2 83 2 41 65 1 72 rrcurveto
          68 1 -57 169 -385 hhcurveto
          -309 -206 -146 -376 -16 hvcurveto
          endchar
        </CharString>
        <CharString name="five">
          -66 -33 145 646 149 321 205 hstemhm
          141 152 430 316 -217 122 hintmask 00000000
          hintmask 11110100
          937 1234 rmoveto
          30 callsubr
          -19 -93 vhcurveto
          -530 hlineto
          7 -684 88 -67 rlineto
          56 95 93 19 58 hhcurveto
          hintmask 11111000
          230 15 -232 -123 -140 -63 -151 -163 -57 -84 30 46 -19 hvcurveto
          16 27 7 35 22 vvcurveto
          55 -32 80 -102 -3 vhcurveto
          -84 -3 -53 -73 -81 vvcurveto
          -131 155 -149 268 266 261 162 318 243 -158 217 -339 -82 -105 -22 -27 -62 vhcurveto
          365 vlineto
          endchar
        </CharString>
        <CharString name="fl">
          210 0 150 704 169 -161 160 367 155 hstemhm
          210 290 416 290 hintmask 00000000
          hintmask 10111100
          1206 1546 rmoveto
          -111 hlineto
          -29 -33 -32 -15 -55 -104 -95 44 -154 hhcurveto
          -246 -166 -138 -354 hvcurveto
          -30 -148 vlineto
          hintmask 11011100
          -28 callgsubr
          hintmask 10111100
          528 vlineto
          225 5 rlineto
          158 -229 147 vlineto
          112 -2 47 108 134 hhcurveto
          111 48 -23 -45 82 hvcurveto
          -1008 -107 callgsubr
          endchar
        </CharString>
        <CharString name="florin">
          -429 -555 150 1259 169 -161 160 382 150 hstemhm
          -231 249 -249 1098 -249 249 hintmask 00000000
          hintmask 10110100
          48 1024 rmoveto
          hintmask 11010100
          -171 vlineto
          171 3 -5 -60 -3 -59 -4 -57 rlinecurve
          -10 -148 -8 -159 -10 -148 -12 -202 -14 -198 -25 -114 rrcurveto
          -90 -20 -26 -26 -30 hhcurveto
          -13 -13 3 7 -11 hvcurveto
          hintmask 10111010
          88 16 -54 69 -82 hhcurveto
          -77 -49 -65 -72 -81 62 -99 171 345 62 441 424 28 hvcurveto
          17 263 7 142 4 86 3 60 rcurveline
          273 5 rlineto
          158 -261 vlineto
          8 104 10 102 10 60 rrcurveto
          91 14 32 25 30 hhcurveto
          13 13 -3 -7 11 hvcurveto
          -88 -16 54 -69 82 hhcurveto
          77 49 65 72 81 -62 99 -171 -264 -91 -249 -283 -41 hvcurveto
          endchar
        </CharString>
        <CharString name="foundry">
          1338 -395 53 345 52 -44 56 -42 46 741 48 163 -20 hstemhm
          85 187 139 102 -73 153 -90 159 83 148 168 8 112 130 27 147 64 60 32 130 59 144 68 166 72 94 hintmask 000000000000000000000000
          297 1023 rmoveto
          -157 -137 -57 -236 2 -234 rrcurveto
          -204 5 85 -209 217 hhcurveto
          97 47 68 58 20 hvcurveto
          -62 31 46 -42 69 hhcurveto
          18 18 15 12 7 hvcurveto
          hintmask 010001110000000000000000
          -23 -190 -2 -127 -120 -77 rrcurveto
          -4 19 -3 23 24 vvcurveto
          40 6 41 4 35 vhcurveto
          38 -38 -57 15 -47 hhcurveto
          -11 -39 -10 -43 -46 vvcurveto
          -103 26 -57 100 231 96 330 367 89 -5 90 -10 88 vhcurveto
          -38 40 -80 34 -50 -7 rrcurveto
          11 -74 24 -130 -132 vvcurveto
          -56 -4 -58 -12 -53 vhcurveto
          hintmask 100000001010000000000000
          -3 -10 -6 -23 -21 -5 rrcurveto
          -29 90 -8 99 103 vvcurveto
          47 1 47 3 48 vhcurveto
          -37 35 -69 12 -30 6 rrcurveto
          -17 -33 -10 -48 -72 vvcurveto
          -76 6 -78 20 -66 vhcurveto
          -21 -47 -47 -83 -74 -24 rrcurveto
          -83 59 -32 155 159 vvcurveto
          187 44 190 51 48 vhcurveto
          hintmask 010000100100000000000000
          20 -25 24 -89 -73 vvcurveto
          -13 -1 -14 -1 -13 vhcurveto
          -3 -8 0 -14 17 19 rrcurveto
          53 45 37 57 70 vvcurveto
          hintmask 000001010000000000000000
          179 -130 31 -86 18 vhcurveto
          hintmask 010001110000000000000000
          1775 -876 rmoveto
          -12 -22 -31 -65 -28 7 rrcurveto
          -20 68 -7 89 90 vvcurveto
          100 9 100 11 79 vhcurveto
          -22 22 -72 30 -31 -9 -13 -8 -15 -79 -5 -14 rrcurveto
          11 -30 -38 8 -33 hhcurveto
          -66 -70 -23 -97 -5 -103 rrcurveto
          -77 vlineto
          -18 -45 -32 -67 -56 -24 -27 18 -9 40 -10 40 rrcurveto
          78 24 42 109 98 vvcurveto
          85 -31 53 -52 26 vhcurveto
          -2 1 0 0 1 vvcurveto
          -11 20 -13 26 -13 26 134 21 45 176 43 87 20 24 rcurveline
          0 1 0 -1 1 vhcurveto
          -24 hlineto
          5 28 rlineto
          0 4 1 -5 vhcurveto
          -25 -9 rlineto
          8 -11 -13 1 -14 hhcurveto
          -36 -36 -24 -42 -12 hvcurveto
          -21 -21 -136 -22 -138 -26 rrcurveto
          -27 -169 15 4 -2 hvcurveto
          -8 -3 -8 -7 7 hvcurveto
          37 -34 94 4 27 -24 57 -68 69 -68 77 -16 6 -19 8 -21 10 -17 rrcurveto
          1 -9 -9 1 -8 hhcurveto
          -8 -8 -1 -1 -9 hvcurveto
          -36 -58 -22 -124 -2 -105 rrcurveto
          -1 -10 0 -9 -10 vvcurveto
          -128 54 -113 139 vhcurveto
          63 7 42 44 24 39 rrcurveto
          hintmask 000110000001011110000000
          -52 14 40 -38 76 hhcurveto
          36 5 49 30 10 40 rrcurveto
          -40 17 43 -49 55 hhcurveto
          47 34 44 43 11 hvcurveto
          -55 34 52 -32 70 hhcurveto
          142 35 158 112 12 0 9 -1 10 hvcurveto
          -5 -5 2 -5 -10 hvcurveto
          -30 -122 -45 -76 -58 -44 rrcurveto
          -41 60 -20 80 99 vvcurveto
          107 50 57 198 164 vvcurveto
          174 -45 73 -169 28 vhcurveto
          -77 -139 -41 -212 -204 vvcurveto
          -94 8 -93 19 -83 vhcurveto
          203 643 rmoveto
          6 -28 2 -36 -40 vvcurveto
          -116 -24 -146 -48 -70 vhcurveto
          7 149 29 171 28 116 rrcurveto
          -826 -175 rmoveto
          22 hlineto
          10 -24 13 -23 13 -17 -13 4 -13 1 -15 3 rrcurveto
          -274 35 rmoveto
          -11 -22 -11 -44 -25 vvcurveto
          -13 -39 -22 -43 -32 -62 -6 76 -19 55 -22 38 -15 18 -21 12 -25 5 -23 5 -30 4 -39 2 62 -150 7 -256 11 -170 rrcurveto
          -2 7 6 -1 7 hhcurveto
          52 32 42 53 16 hvcurveto
          14 41 0 79 48 vvcurveto
          13 53 40 39 14 40 rrcurveto
          -63 9 30 -32 52 hhcurveto
          15 14 3 5 18 hvcurveto
          -5 27 -3 32 32 vvcurveto
          49 6 51 7 41 vhcurveto
          -19 37 -56 16 -60 6 rrcurveto
          hintmask 001000000000100101100000
          335 -131 rmoveto
          10 -20 15 -42 -42 vvcurveto
          -71 -20 -83 -44 -6 vhcurveto
          91 14 94 25 79 vhcurveto
          308 -15 rmoveto
          -2 -16 0 -25 -30 vvcurveto
          -63 5 -84 17 -72 vhcurveto
          -2 -40 -40 -41 -23 -19 rrcurveto
          -11 34 -5 41 42 vvcurveto
          111 30 124 31 38 vhcurveto
          endchar
        </CharString>
        <CharString name="four">
          -51 0 152 218 189 908 -20 hstem
          561 291 vstem
          852 555 rmoveto
          912 -124 vlineto
          -703 -904 rlineto
          -193 534 -57 -66 callgsubr
          585 -28 callsubr
          34 200 185 vlineto
          -493 456 rmoveto
          2 -452 -346 hlineto
          endchar
        </CharString>
        <CharString name="fraction">
          -216 1467 -20 hstem
          -45 1046 vstem
          1001 1357 5 callsubr
          endchar
        </CharString>
        <CharString name="g">
          34 callsubr
          hstemhm
          98 283 344 67 callgsubr
          hintmask 11110100
          300 349 rmoveto
          -151 -46 -49 -104 -70 vvcurveto
          -78 40 -72 112 -31 vhcurveto
          -148 -55 -46 -95 -85 vvcurveto
          -138 112 -130 355 272 307 127 233 237 -211 71 -314 18 vhcurveto
          -192 11 -70 14 51 vvcurveto
          39 47 23 59 vhcurveto
          41 46 -7 37 hhcurveto
          hintmask 11111000
          240 225 168 238 103 -44 94 -78 67 hvcurveto
          8 44 39 79 38 9 9 -44 48 -34 42 -1 rrcurveto
          98 -2 29 78 48 vvcurveto
          80 -50 52 -92 -130 -85 -123 -125 -45 vhcurveto
          47 -68 -106 17 -71 hhcurveto
          -235 -230 -174 -246 9 hvcurveto
          hintmask 11110100
          5 -139 82 -103 115 -44 rrcurveto
          253 568 rmoveto
          hintmask 11111000
          4 callsubr
          hvcurveto
          hintmask 11110100
          -8 callsubr
        </CharString>
        <CharString name="gbreve">
          34 callsubr
          172 189 hstemhm
          98 283 344 67 callgsubr
          hintmask 11111010
          730 -31 callgsubr
          -562 -1156 -62 callsubr
          253 568 rmoveto
          hintmask 11111100
          4 callsubr
          hvcurveto
          hintmask 11111010
          -8 callsubr
        </CharString>
        <CharString name="gcommaaccent">
          34 callsubr
          hstemhm
          98 283 8 237 99 67 callgsubr
          hintmask 11101010
          649 1231 rmoveto
          -27 143 -25 52 106 182 -112 83 rcurveline
          -119 -110 -83 -130 -121 vvcurveto
          -48 14 -52 29 -48 vhcurveto
          hintmask 11111010
          -132 -833 -62 callsubr
          hintmask 11111100
          253 568 rmoveto
          4 callsubr
          126 64 116 108 hvcurveto
          -178 -1017 rmoveto
          60 -10 88 -3 60 -3 rrcurveto
          hintmask 11101010
          200 -9 96 -43 -83 vvcurveto
          -77 -103 -87 -193 -172 -107 70 111 5 vhcurveto
          hintmask 11111100
          2 47 22 54 42 33 rrcurveto
          endchar
        </CharString>
        <CharString name="germandbls">
          407 -33 148 -129 62 -48 150 705 168 24 -20 364 154 hstemhm
          209 290 253 238 -220 156 84 272 24 244 hintmask 0000000000000000
          hintmask 0011011011000000
          61 1024 rmoveto
          -171 vlineto
          148 5 rlineto
          -543 vlineto
          -75 callgsubr
          547 156 vlineto
          -29 -1 -70 -2 -44 -3 6 61 3 83 -1 39 rrcurveto
          664 vlineto
          314 132 77 123 4 vhcurveto
          hintmask 0010111011000000
          103 3 153 -33 1 -314 rrcurveto
          hintmask 1001011101100000
          -185 -37 -74 -137 -137 vvcurveto
          -221 157 -63 170 -66 vhcurveto
          155 -60 72 -33 1 -77 rrcurveto
          -66 1 -74 -36 -58 hhcurveto
          -175 -91 97 126 -12 hvcurveto
          hintmask 0101011011000000
          -132 hlineto
          8 -352 rlineto
          156 hlineto
          -7 62 rlineto
          2 hlineto
          hintmask 1001011101100000
          -48 64 81 -33 118 hhcurveto
          191 172 103 213 193 -144 101 -207 71 hvcurveto
          -141 48 -70 24 1 84 1 108 150 7 136 -10 rrcurveto
          hintmask 0011011011000000
          596 60 -415 41 -155 hhcurveto
          -286 -238 -115 -407 -31 hvcurveto
          endchar
        </CharString>
        <CharString name="grave">
          -594 1158 444 hstem
          91 397 vstem
          394 -68 callsubr
          endchar
        </CharString>
        <CharString name="greater">
          -44 146 996 hstem
          127 922 vstem
          127 362 rmoveto
          -216 vlineto
          922 409 rlineto
          186 vlineto
          53 callsubr
          endchar
        </CharString>
        <CharString name="greaterequal">
          -12 0 179 hstem
          134 923 vstem
          1056 841 rmoveto
          53 callsubr
          -637 -280 rlineto
          -216 vlineto
          922 409 rlineto
          1 -655 66 callsubr
        </CharString>
        <CharString name="guillemotleft">
          -162 1040 -20 hstem
          41 895 vstem
          678 1040 rmoveto
          -96 94 -541 -551 rlineto
          -48 vlineto
          547 -569 97 99 -387 497 rlineto
          2 vlineto
          635 331 rmoveto
          -95 80 -347 -397 rlineto
          -47 vlineto
          349 -409 96 79 -205 345 rlineto
          3 vlineto
          endchar
        </CharString>
        <CharString name="guillemotright">
          -162 1040 -20 hstem
          74 895 vstem
          969 583 rmoveto
          -541 551 -96 -94 380 -476 rlineto
          -2 vlineto
          -387 -497 97 -99 547 569 rlineto
          -450 43 rmoveto
          -347 397 -95 -80 202 -346 rlineto
          -3 vlineto
          -205 -345 96 -79 349 409 rlineto
          endchar
        </CharString>
        <CharString name="guilsinglleft">
          -398 -33 1166 hstem
          38 669 vstem
          707 1020 rmoveto
          -117 113 -552 -552 rlineto
          -44 vlineto
          556 -570 113 113 -374 482 rlineto
          2 vlineto
          endchar
        </CharString>
        <CharString name="guilsinglright">
          -398 -33 1166 hstem
          67 669 vstem
          736 581 rmoveto
          -552 552 -117 -113 374 -456 rlineto
          -2 vlineto
          -374 -482 113 -113 556 570 rlineto
          endchar
        </CharString>
        <CharString name="h">
          99 0 150 718 189 279 39 callsubr
          353 291 vstem
          -17 callgsubr
          -2 callgsubr
          113 52 -91 callsubr
          -83 -135 -51 -63 -80 hvcurveto
          endchar
        </CharString>
        <CharString name="hungarumlaut">
          -295 1172 464 hstem
          93 727 vstem
          93 -46 callgsubr
          endchar
        </CharString>
        <CharString name="hungarumlaut.case">
          -263 1528 434 hstem
          61 787 vstem
          61 -46 callsubr
          endchar
        </CharString>
        <CharString name="hyphen">
          -208 33 callgsubr
        </CharString>
        <CharString name="i">
          43 callgsubr
          hstem
          -4 callgsubr
          vstem
          370 1562 rmoveto
          -83 -73 -75 -94 -92 65 -75 94 92 60 75 92 94 -66 75 -89 hvcurveto
          125 20 callsubr
          -340 -107 callgsubr
          endchar
        </CharString>
        <CharString name="iacute">
          43 callgsubr
          hstem
          -4 callgsubr
          vstem
          218 1241 -87 callsubr
          109 -483 rmoveto
          -111 -76 callgsubr
          -69 -49 vvcurveto
          -340 -107 callgsubr
          endchar
        </CharString>
        <CharString name="icircumflex">
          -503 -61 callgsubr
          61 -20 hstem
          -4 callgsubr
          vstem
          657 1256 rmoveto
          -298 347 rlineto
          -21 hlineto
          -320 -339 86 -98 232 199 rlineto
          2 hlineto
          231 -214 rlineto
          -74 -107 rmoveto
          -111 -76 callgsubr
          -69 -49 vvcurveto
          -340 -107 callgsubr
          endchar
        </CharString>
        <CharString name="idieresis">
          -57 callgsubr
        </CharString>
        <CharString name="igrave">
          43 callgsubr
          hstem
          -4 callgsubr
          vstem
          333 -68 callsubr
          411 -330 rmoveto
          -111 -76 callgsubr
          -69 -49 vvcurveto
          -340 -107 callgsubr
          endchar
        </CharString>
        <CharString name="imacron">
          43 callgsubr
          264 192 hstem
          -4 callgsubr
          vstem
          613 1292 -23 callgsubr
          464 -241 rmoveto
          -111 -76 callgsubr
          -69 -49 vvcurveto
          -340 -107 callgsubr
          endchar
        </CharString>
        <CharString name="infinity">
          513 259 240 -232 232 393 246 -218 227 hstemhm
          101 144 1194 144 hintmask 00000000
          hintmask 01011100
          857 905 rmoveto
          hintmask 01101100
          148 -100 -139 85 -147 hhcurveto
          -227 -143 -187 -238 -209 103 -237 277 141 126 100 120 79 hvcurveto
          2 hlineto
          hintmask 10011100
          -168 125 138 -60 131 hhcurveto
          219 141 201 238 248 -98 201 -248 hvcurveto
          hintmask 01011100
          -147 -126 -87 -155 -105 hvcurveto
          373 15 rmoveto
          127 80 -82 -124 hvcurveto
          hintmask 10011100
          -127 -82 -88 -123 -105 -114 129 127 -67 vhcurveto
          hintmask 01011100
          125 89 114 40 81 hhcurveto
          hintmask 01101100
          -806 -28 rmoveto
          117 119 -123 -127 71 hvcurveto
          -95 -66 -143 -48 -79 hhcurveto
          -114 -86 74 127 136 89 56 92 hvcurveto
          endchar
        </CharString>
        <CharString name="integral">
          -319 -555 173 1770 168 hstemhm
          296 258 -248 258 hintmask 00000000
          hintmask 11100000
          307 -223 rmoveto
          hintmask 11010000
          2 -94 -6 -67 -70 2 rrcurveto
          3 11 1 9 8 vvcurveto
          51 -28 73 -94 -3 vhcurveto
          -76 -3 -50 -65 -73 vvcurveto
          -116 105 -65 118 251 106 211 262 -4 vhcurveto
          hintmask 11100000
          -21 1328 -2 126 34 29 50 -17 rlinecurve
          -3 -11 -2 -11 -8 vvcurveto
          -51 28 -73 94 3 vhcurveto
          76 3 50 65 73 vvcurveto
          116 -105 66 -118 vhcurveto
          -259 7 -106 -223 4 -259 rrcurveto
          endchar
        </CharString>
        <CharString name="iogonek">
          -502 -542 186 356 133 -133 -50 callgsubr
          61 -20 hstemhm
          155 203 -153 290 hintmask 00000000
          hintmask 11011010
          373 1226 rmoveto
          92 60 75 92 94 -66 75 -89 -83 -73 -75 -94 -92 65 -75 94 hvcurveto
          202 -1523 rmoveto
          hintmask 10111100
          -38 -43 -45 -21 -40 hhcurveto
          -55 -32 33 49 -2 hvcurveto
          -4 114 132 105 130 55 rrcurveto
          4 156 hlineto
          hintmask 10111010
          -29 -1 -60 79 callsubr
          79 39 vvcurveto
          715 -47 callgsubr
          -340 vlineto
          hintmask 11011010
          -75 callgsubr
          318 vlineto
          hintmask 11011100
          -141 -85 -105 -118 -128 vvcurveto
          -140 90 -71 132 97 101 62 95 72 vhcurveto
          endchar
        </CharString>
        <CharString name="j">
          -55 callgsubr
        </CharString>
        <CharString name="k">
          18 callsubr
          -131 131 312 81 callgsubr
          174 290 -56 callgsubr
          hintmask 11101110
          -43 callsubr
          endchar
        </CharString>
        <CharString name="kcommaaccent">
          18 callsubr
          -131 131 312 81 callgsubr
          174 290 46 237 -56 callgsubr
          hintmask 11101111
          -43 callsubr
          -77 -734 -95 callgsubr
        </CharString>
        <CharString name="l">
          -533 22 callsubr
          vstem
          -17 callgsubr
          endchar
        </CharString>
        <CharString name="lacute">
          -533 22 callsubr
          vstem
          121 1650 -87 callsubr
          174 -390 rmoveto
          -111 -76 callgsubr
          -69 -49 vvcurveto
          -842 -107 callgsubr
          endchar
        </CharString>
        <CharString name="lcaron">
          -362 22 callsubr
          178 185 vstem
          616 1588 -35 callsubr
          -335 -8 rmoveto
          -111 -76 callgsubr
          -69 -49 vvcurveto
          -842 -107 callgsubr
          endchar
        </CharString>
        <CharString name="lcommaaccent">
          -533 0 150 1186 81 callgsubr
          173 290 -248 237 hintmask 00000000
          hintmask 11110000
          -17 callgsubr
          hintmask 11101000
          -271 -451 -95 callgsubr
        </CharString>
        <CharString name="less">
          -44 146 996 hstem
          79 922 vstem
          1001 926 21 callsubr
          endchar
        </CharString>
        <CharString name="lessequal">
          -12 0 179 hstem
          102 923 vstem
          1025 1024 21 callsubr
          637 -744 66 callsubr
        </CharString>
        <CharString name="logicalnot">
          18 541 200 hstem
          868 182 vstem
          1050 741 rmoveto
          -921 -200 736 hlineto
          6 -235 rlineto
          179 hlineto
          endchar
        </CharString>
        <CharString name="lozenge">
          -132 1555 -20 hstem
          87 865 vstem
          952 794 rmoveto
          -368 761 rlineto
          -109 hlineto
          -388 -773 rlineto
          -75 vlineto
          379 -741 rlineto
          109 hlineto
          377 757 rlineto
          -426 513 rmoveto
          227 -479 -223 -462 rlineto
          -2 hlineto
          -230 464 75 152 78 177 73 148 rlinecurve
          endchar
        </CharString>
        <CharString name="lslash">
          -515 0 150 1186 45 callsubr
          186 290 vstem
          476 913 rmoveto
          633 -47 callgsubr
          -449 vlineto
          -151 -106 rlineto
          -231 vlineto
          151 108 rlineto
          -164 -107 callgsubr
          357 vlineto
          131 94 rlineto
          226 vlineto
          endchar
        </CharString>
        <CharString name="m">
          713 -61 callgsubr
          -117 191 -13 47 callgsubr
          323 291 320 291 hintmask 00000000
          494 943 rmoveto
          hintmask 10101110
          -2 25 -3 48 -4 28 rrcurveto
          -94 callsubr
          527 156 vlineto
          -29 -1 -50 79 callsubr
          79 39 vvcurveto
          hintmask 11011110
          464 vlineto
          45 41 62 35 68 -1 91 -2 56 -53 1 -178 rrcurveto
          -320 vlineto
          -108 1 -8 -74 -104 hhcurveto
          -133 527 156 vlineto
          -29 -1 -60 79 callsubr
          79 39 vvcurveto
          275 vlineto
          74 -6 65 -11 56 vhcurveto
          48 38 62 31 71 -2 93 -3 62 -56 1 -178 rrcurveto
          -314 vlineto
          -108 1 -8 -74 -94 hhcurveto
          -133 517 156 vlineto
          -29 -1 -60 79 callsubr
          79 39 vvcurveto
          302 vlineto
          314 -115 112 -220 -110 -126 -53 -82 -98 vhcurveto
          90 -49 -81 45 -124 hhcurveto
          -106 -114 -52 -62 -80 hvcurveto
          endchar
        </CharString>
        <CharString name="macron">
          -406 1288 192 hstem
          92 582 vstem
          674 1292 -23 callgsubr
          endchar
        </CharString>
        <CharString name="minus">
          9 551 220 hstem
          129 923 vstem
          1052 771 rmoveto
          -923 -220 923 hlineto
          endchar
        </CharString>
        <CharString name="mu">
          -57 callsubr
        </CharString>
        <CharString name="multiply">
          -25 134 973 hstem
          92 964 vstem
          1051 958 rmoveto
          -138 149 -100 -98 -129 -133 -106 -104 rlinecurve
          -322 325 -161 -152 325 -322 -328 -321 146 -151 328 325 333 -342 157 153 -333 342 rlineto
          endchar
        </CharString>
        <CharString name="n">
          -30 callsubr
          353 291 hintmask 00000000
          494 943 rmoveto
          hintmask 10101100
          -2 25 -3 48 -4 28 rrcurveto
          -94 callsubr
          537 156 vlineto
          -29 -1 -60 79 callsubr
          79 39 vvcurveto
          hintmask 11011100
          -2 callgsubr
          120 45 -91 callsubr
          36 callgsubr
          endchar
        </CharString>
        <CharString name="nacute">
          -30 callsubr
          353 291 87 callsubr
          505 1241 -87 callsubr
          hintmask 10101100
          -179 -584 -60 callgsubr
        </CharString>
        <CharString name="ncaron">
          -30 callsubr
          353 291 87 callsubr
          1047 -64 callgsubr
          hintmask 10101100
          -218 -197 -60 callgsubr
        </CharString>
        <CharString name="ncommaaccent">
          -30 callsubr
          54 237 62 291 hintmask 00000000
          494 943 rmoveto
          hintmask 10101110
          -2 25 -3 48 -4 28 rrcurveto
          -94 callsubr
          537 156 vlineto
          -29 -1 -60 79 callsubr
          79 39 vvcurveto
          hintmask 11011110
          -2 callgsubr
          120 45 -91 callsubr
          36 callgsubr
          hintmask 10101110
          29 -1065 -95 callgsubr
        </CharString>
        <CharString name="nine">
          7 -33 146 408 163 639 144 hstem
          88 310 388 297 vstem
          581 64 callsubr
          -292 -201 -195 -274 -280 139 -206 302 9 hvcurveto
          102 3 112 61 44 51 11 -259 -76 -252 -198 -12 -68 -4 -50 29 -22 33 rrcurveto
          20 21 9 44 22 vvcurveto
          55 -28 75 -102 -84 -51 -79 -73 -137 104 -132 270 479 82 502 305 400 -137 293 -365 vhcurveto
          -1 -144 rmoveto
          160 47 -241 -263 -1 hvcurveto
          -74 -36 -78 -61 -87 hhcurveto
          -170 -17 238 123 141 58 137 124 hvcurveto
          endchar
        </CharString>
        <CharString name="noBreak">
          -633 endchar
        </CharString>
        <CharString name="nonmarkingreturn">
          -633 endchar
        </CharString>
        <CharString name="notequal">
          -58 327 191 188 194 136 -20 hstem
          95 922 vstem
          965 1036 rmoveto
          -157 105 -157 -241 rlineto
          -556 -194 431 hlineto
          -121 -186 rlineto
          -310 -195 184 hlineto
          -107 -164 154 -107 177 273 rlineto
          514 191 -388 hlineto
          122 190 rlineto
          266 191 -141 hlineto
          endchar
        </CharString>
        <CharString name="ntilde">
          131 -61 callgsubr
          -115 189 -13 -20 219 196 -117 195 25 47 callgsubr
          353 291 hintmask 0000000000000000
          hintmask 1101101110000000
          954 3 callsubr
          hintmask 1101010110000000
          -6 callsubr
          hintmask 1010101110000000
          13 callgsubr
          -576 -540 rmoveto
          hintmask 1101101110000000
          -2 25 -3 48 -4 28 rrcurveto
          -94 callsubr
          537 156 vlineto
          -29 -1 -60 79 callsubr
          79 39 vvcurveto
          hintmask 1010101110000000
          -2 callgsubr
          120 45 -91 callsubr
          36 callgsubr
          endchar
        </CharString>
        <CharString name="numbersign">
          612 315 182 404 182 384 -20 hstem
          75 1633 vstem
          1365 1083 rmoveto
          78 callsubr
          -355 hlineto
          78 callsubr
          -341 hlineto
          -43 -182 rlineto
          345 hlineto
          -102 -404 rlineto
          -335 hlineto
          -43 -182 rlineto
          340 hlineto
          -83 -348 rlineto
          217 hlineto
          80 348 rlineto
          349 hlineto
          -83 -348 rlineto
          218 hlineto
          80 348 rlineto
          337 hlineto
          42 182 rlineto
          -342 hlineto
          97 404 rlineto
          340 hlineto
          41 180 rlineto
          2 vlineto
          -944 -182 rmoveto
          354 hlineto
          -102 -404 rlineto
          -350 hlineto
          endchar
        </CharString>
        <CharString name="o">
          -45 callsubr
          579 1057 -101 callsubr
        </CharString>
        <CharString name="oacute">
          -45 callsubr
          381 1241 -87 callsubr
          30 -470 -101 callsubr
        </CharString>
        <CharString name="ocircumflex">
          -45 callsubr
          929 -51 callgsubr
          -262 -94 -101 callsubr
        </CharString>
        <CharString name="odieresis">
          -13 -33 145 801 144 481 -20 hstemhm
          266 44 callgsubr
          403 1538 -88 callsubr
          hintmask 11111000
          -180 -481 -101 callsubr
        </CharString>
        <CharString name="oe">
          647 -33 145 -145 183 395 138 230 144 69 callsubr
          428 279 393 283 hintmask 00000000
          hintmask 10111110
          941 891 rmoveto
          104 -84 -92 62 -186 hhcurveto
          -281 -235 -227 -341 -322 225 -200 297 138 122 58 102 84 hvcurveto
          2 hlineto
          hintmask 01111110
          -103 79 135 -57 141 hhcurveto
          139 191 39 211 147 hvcurveto
          -92 87 rlineto
          -115 -94 -124 -39 -83 hhcurveto
          -224 -74 193 196 -1 hvcurveto
          676 12 rlineto
          388 3 -230 118 -223 hhcurveto
          hintmask 10111110
          -172 -92 -67 -99 -89 hvcurveto
          -369 22 rmoveto
          167 4 46 -234 4 -173 4 -157 -19 -238 -184 -3 rrcurveto
          -166 -3 -63 227 208 vvcurveto
          179 52 186 159 4 vhcurveto
          512 -230 rmoveto
          136 20 67 94 121 hhcurveto
          96 68 -61 -169 5 hvcurveto
          endchar
        </CharString>
        <CharString name="ogonek">
          -500 -542 186 hstem
          90 203 vstem
          553 95 rmoveto
          -236 -70 -227 -167 -189 -58 callgsubr
          -4 115 134 105 130 55 rrcurveto
          endchar
        </CharString>
        <CharString name="ograve">
          -45 callsubr
          685 -68 callsubr
          143 -317 -101 callsubr
        </CharString>
        <CharString name="ohungarumlaut">
          -45 callsubr
          269 -46 callgsubr
          -186 -464 -101 callsubr
        </CharString>
        <CharString name="omacron">
          -13 -33 145 801 144 231 192 hstem
          63 301 429 302 vstem
          871 1292 -23 callgsubr
          290 -228 -101 callsubr
        </CharString>
        <CharString name="one">
          -341 0 152 1315 -20 hstem
          309 296 vstem
          605 64 callsubr
          -124 hlineto
          -468 -343 72 -123 224 133 rlineto
          -821 -104 callsubr
          endchar
        </CharString>
        <CharString name="onehalf">
          456 -7 170 453 90 16 119 625 -20 hstemhm
          214 199 541 200 139 223 -70 91 hintmask 00000000
          hintmask 11011001
          -40 callsubr
          884 548 5 callsubr
          1148 26 32 callgsubr
          hintmask 11111110
          -24 callgsubr
        </CharString>
        <CharString name="onequarter">
          420 -8 56 callgsubr
          301 90 760 -20 hstemhm
          214 199 784 188 hintmask 00000000
          hintmask 10111110
          -40 callsubr
          884 548 5 callsubr
          hintmask 11011110
          1002 344 38 callgsubr
          hintmask 10111110
          -119 310 -29 vlineto
          -94 -32 -22 callgsubr
          hintmask 11011110
          9 callsubr
          hintmask 10111110
          63 callsubr
        </CharString>
        <CharString name="onesuperior">
          -603 617 90 760 -20 hstem
          214 199 vstem
          -40 callsubr
          endchar
        </CharString>
        <CharString name="ordfeminine">
          -382 752 144 -144 152 149 97 203 114 hstemhm
          72 210 -180 201 137 198 hintmask 00000000
          hintmask 01111010
          440 1150 rmoveto
          -172 -12 -196 -67 -155 vvcurveto
          -105 73 -59 128 58 87 41 76 39 vhcurveto
          2 hlineto
          hintmask 10110110
          -80 8 59 -37 58 hhcurveto
          58 66 39 56 41 hvcurveto
          -40 60 rlineto
          -10 -15 -9 -1 -11 hhcurveto
          -32 -4 45 26 hvcurveto
          69 2 94 70 vvcurveto
          185 2 -92 82 -162 hhcurveto
          -166 -120 -97 -105 -57 36 -42 62 -1 hvcurveto
          75 -1 28 64 39 vvcurveto
          17 -4 26 -11 16 vhcurveto
          19 19 34 9 26 -1 rrcurveto
          68 -3 5 -57 -54 vvcurveto
          hintmask 01111010
          -285 vmoveto
          -34 -34 -34 -16 -32 hhcurveto
          -39 -17 22 24 -2 hvcurveto
          -5 59 82 37 81 7 rrcurveto
          endchar
        </CharString>
        <CharString name="ordmasculine">
          -397 746 115 494 112 hstem
          62 219 218 213 vstem
          391 4 callgsubr
          -3 -112 18 callgsubr
          endchar
        </CharString>
        <CharString name="oslash">
          -45 callsubr
          1049 1088 rmoveto
          -137 88 -106 -165 rlineto
          30 -68 -77 16 -82 hhcurveto
          -281 -235 -227 -341 -167 60 -133 99 -91 hvcurveto
          -110 -172 126 -96 118 182 rlineto
          -29 68 78 -16 83 hhcurveto
          300 210 219 345 166 -58 134 -95 91 hvcurveto
          -557 -572 rmoveto
          -2 hlineto
          -14 62 -5 67 65 vvcurveto
          179 52 186 159 4 vhcurveto
          54 1 42 -24 32 -40 rrcurveto
          73 -183 rmoveto
          2 hlineto
          11 -60 4 -66 -61 -42 callsubr
          -55 -1 -43 24 -34 40 rrcurveto
          endchar
        </CharString>
        <CharString name="otilde">
          -13 -33 145 801 144 186 196 -117 195 25 -20 69 callsubr
          429 302 hintmask 00000000
          hintmask 11101110
          830 3 callsubr
          hintmask 11010110
          -6 callsubr
          hintmask 11101110
          13 callgsubr
          -367 -426 -101 callsubr
        </CharString>
        <CharString name="p">
          -73 callgsubr
        </CharString>
        <CharString name="paragraph">
          2 1291 143 hstem
          344 225 196 229 vstem
          994 -522 rmoveto
          1956 -599 vlineto
          -157 -155 -99 -210 -203 129 -77 132 -24 hvcurveto
          -1343 225 vlineto
          546 3 717 1 549 vhcurveto
          192 2 rlineto
          -1814 vlineto
          endchar
        </CharString>
        <CharString name="parenleft">
          -565 1556 -20 hstem
          50 277 vstem
          586 -484 rmoveto
          -211 280 -48 508 185 vvcurveto
          185 48 530 211 281 vhcurveto
          -75 71 rlineto
          -203 -186 -258 -426 -455 vvcurveto
          -455 259 -403 203 -186 vhcurveto
          endchar
        </CharString>
        <CharString name="parenright">
          -565 1556 -20 hstem
          280 277 vstem
          21 1485 rmoveto
          211 -280 48 -508 -185 vvcurveto
          -185 -48 -530 -211 -281 vhcurveto
          75 -71 rlineto
          203 186 258 426 455 vvcurveto
          455 -259 403 -203 186 vhcurveto
          endchar
        </CharString>
        <CharString name="partialdiff">
          -83 -33 147 772 145 519 9 hstem
          91 268 373 249 vstem
          265 1402 rmoveto
          320 28 109 -256 28 -202 rrcurveto
          -2 hlineto
          35 -33 -87 24 -46 hhcurveto
          -266 -197 -235 -369 -301 182 -159 192 266 250 190 537 489 -192 449 -529 -82 hvcurveto
          323 -664 rmoveto
          84 2 45 -53 12 -20 28 -261 -44 -432 -196 -8 rrcurveto
          -85 -68 80 243 263 106 183 118 3 hvcurveto
          endchar
        </CharString>
        <CharString name="percent">
          680 55 callgsubr
          84 60 callgsubr
          144 60 callgsubr
          hintmask 00000000
          hintmask 10111111
          467 1467 7 callsubr
          1111 -135 rmoveto
          -149 135 -1167 -1377 133 -124 rlineto
          74 1343 -3 callsubr
          hintmask 11011111
          913 -540 7 callsubr
          2 -158 -3 callsubr
          endchar
        </CharString>
        <CharString name="period">
          -694 -33 320 hstem
          90 297 vstem
          239 287 rmoveto
          11 callsubr
        </CharString>
        <CharString name="periodcentered">
          -709 540 320 hstem
          83 297 vstem
          232 860 rmoveto
          11 callsubr
        </CharString>
        <CharString name="perthousand">
          1523 55 callgsubr
          89 60 callgsubr
          144 60 callgsubr
          73 60 callgsubr
          hintmask 0000000000000000
          hintmask 1101111111000000
          472 64 callsubr
          -244 -7 -139 -209 -192 vvcurveto
          hintmask 0010110000000000
          -15 callgsubr
          vhcurveto
          hintmask 1101111111000000
          189 -137 205 -251 -4 vhcurveto
          1111 -135 rmoveto
          -149 135 -1167 -1377 133 -124 rlineto
          74 1343 rmoveto
          104 31 -156 -106 hvcurveto
          hintmask 0010110000000000
          6 callsubr
          vhcurveto
          hintmask 1101111111000000
          80 callgsubr
          vhcurveto
          913 -540 rmoveto
          8 callgsubr
          844 hmoveto
          8 callgsubr
          -842 -158 -3 callsubr
          844 hmoveto
          104 31 -156 -106 6 callsubr
          80 callgsubr
          hvcurveto
          endchar
        </CharString>
        <CharString name="pi">
          83 -33 203 877 -20 hstem
          317 144 290 277 vstem
          1133 1066 rmoveto
          -44 -89 -67 -11 -55 -227 -117 36 -204 hhcurveto
          -136 -114 -86 -88 -72 hvcurveto
          68 -105 68 32 73 15 56 5 rlinecurve
          -206 -3 -330 -57 -71 vhcurveto
          13 -22 -25 6 -33 hhcurveto
          -50 -77 -42 -90 -82 65 -51 74 103 76 69 127 44 hvcurveto
          47 135 2 300 217 vvcurveto
          70 -7 144 -11 76 -6 rrcurveto
          -112 -2 -259 -1 -141 vhcurveto
          -112 4 -200 216 100 86 58 73 60 vhcurveto
          -62 90 rlineto
          -59 -33 -65 1 123 176 2 184 176 vvcurveto
          69 33 74 63 36 53 rrcurveto
          endchar
        </CharString>
        <CharString name="plus">
          -94 555 191 hstem
          435 202 vstem
          637 1112 rmoveto
          -202 -366 -353 -193 hlineto
          110 127 1 116 hhcurveto
          -386 202 387 359 189 vlineto
          -106 -139 2 -114 hhcurveto
          endchar
        </CharString>
        <CharString name="plusminus">
          -33 1 188 377 192 296 -20 hstem
          466 205 vstem
          671 1054 rmoveto
          -205 -296 -357 -194 hlineto
          105 140 1 112 hhcurveto
          -311 205 312 359 191 vlineto
          -107 -138 1 -114 hhcurveto
          359 -757 rmoveto
          188 -921 -188 vlineto
          endchar
        </CharString>
        <CharString name="product">
          500 -522 152 1645 158 -152 -84 callgsubr
          584 296 hintmask 00000000
          hintmask 11001100
          1570 48 callgsubr
          -1468 hlineto
          hintmask 10101100
          -89 callgsubr
          -1307 -104 callsubr
          hintmask 11001100
          1458 vlineto
          584 7 rlineto
          -1488 -104 callsubr
          1307 vlineto
          hintmask 10011100
          -54 callgsubr
        </CharString>
        <CharString name="q">
          2 -522 150 339 185 755 150 -13 -20 hstemhm
          66 300 390 290 hintmask 00000000
          hintmask 11100100
          758 82 rmoveto
          -289 vlineto
          -108 -3 -7 -74 -114 hhcurveto
          -133 537 156 vlineto
          -29 -1 -60 79 callsubr
          79 39 vvcurveto
          hintmask 11010100
          1237 -111 vlineto
          hintmask 11101100
          -21 -16 -34 -12 -20 -55 -81 46 -151 hhcurveto
          -310 -202 -241 -330 -317 167 -202 246 hvcurveto
          hintmask 11100100
          97 93 30 85 87 hvcurveto
          165 vmoveto
          -56 -36 -66 -39 -68 hhcurveto
          hintmask 11101100
          -158 -59 189 176 -3 hvcurveto
          -3 191 54 198 180 1 rrcurveto
          69 90 -26 -153 hvcurveto
          endchar
        </CharString>
        <CharString name="question">
          -141 371 141 812 143 hstemhm
          75 862 -630 204 127 299 hintmask 00000000
          hintmask 11100000
          655 521 rmoveto
          hintmask 11011000
          -100 -25 -44 32 45 131 426 148 289 vvcurveto
          163 -110 163 -325 -245 -182 -158 -146 -81 41 -61 88 -4 vhcurveto
          100 -5 41 91 53 vvcurveto
          28 -10 46 -28 28 vhcurveto
          31 26 63 35 67 hhcurveto
          138 37 -97 -127 -156 -68 -85 -96 -95 hvcurveto
          -139 -137 -28 -48 -66 vvcurveto
          -103 90 -39 88 52 81 9 36 69 vhcurveto
          -180 -129 rmoveto
          -79 -70 -72 -89 -88 67 -71 80 78 72 71 88 89 -63 72 -85 hvcurveto
          endchar
        </CharString>
        <CharString name="questiondown">
          -162 -443 143 812 141 404 -20 hstemhm
          82 299 -299 862 -436 204 64 callgsubr
          512 41 callgsubr
          -148 -234 rmoveto
          hintmask 11110100
          100 25 44 -32 -45 -131 -426 -148 -289 vvcurveto
          -163 110 -163 325 245 182 158 146 81 -41 61 -88 4 vhcurveto
          -100 5 -41 -91 -53 vvcurveto
          -28 10 -46 28 -28 vhcurveto
          -31 -26 -63 -35 -67 hhcurveto
          -138 -37 97 127 156 68 85 96 95 hvcurveto
          139 137 28 48 66 vvcurveto
          103 -90 39 -88 -52 -81 -9 -36 -69 vhcurveto
          endchar
        </CharString>
        <CharString name="quotedbl">
          -505 1467 -20 hstem
          96 181 112 181 vstem
          269 1006 rmoveto
          78 callgsubr
          457 hmoveto
          78 callgsubr
          endchar
        </CharString>
        <CharString name="quotedblbase">
          -250 -382 663 -290 290 hstemhm
          275 150 260 150 hintmask 00000000
          hintmask 10110000
          237 -382 rmoveto
          -21 callgsubr
          hintmask 01110000
          123 -62 95 -126 -2 vhcurveto
          -89 -1 -58 -72 -81 vvcurveto
          -95 68 -41 73 15 9 1 6 20 vhcurveto
          3 -119 -78 -150 -42 -54 rrcurveto
          489 -57 rmoveto
          -86 callgsubr
          endchar
        </CharString>
        <CharString name="quotedblleft">
          -305 892 290 373 -20 hstem
          69 150 260 150 vstem
          257 1555 -39 callgsubr
          331 57 -39 callgsubr
          endchar
        </CharString>
        <CharString name="quotedblright">
          -331 1267 290 0 -20 hstemhm
          228 150 260 150 hintmask 00000000
          hintmask 01110000
          20 callgsubr
          hintmask 10110000
          -95 68 -41 73 15 9 1 6 20 vhcurveto
          3 -119 -78 -150 -42 -54 rrcurveto
          489 -57 rmoveto
          -86 callgsubr
          endchar
        </CharString>
        <CharString name="quoteleft">
          -715 1555 -20 hstem
          69 150 vstem
          257 1555 -39 callgsubr
          endchar
        </CharString>
        <CharString name="quoteright">
          -741 1557 -20 hstem
          228 150 vstem
          190 894 rmoveto
          -86 callgsubr
          endchar
        </CharString>
        <CharString name="quotesinglbase">
          -19 callgsubr
        </CharString>
        <CharString name="quotesingle">
          -786 1467 -20 hstem
          96 193 vstem
          281 1006 rmoveto
          18 461 rlineto
          -212 hlineto
          19 -461 rlineto
          endchar
        </CharString>
        <CharString name="r">
          26 callgsubr
          494 868 -92 callgsubr
          endchar
        </CharString>
        <CharString name="racute">
          26 callgsubr
          390 1241 -87 callsubr
          -64 -659 -92 callgsubr
          endchar
        </CharString>
        <CharString name="radical">
          557 878 146 588 152 hstem
          -6 1775 vstem
          1769 1609 rmoveto
          156 -625 vlineto
          -326 -1051 -47 -153 -43 -140 -20 -87 rlinecurve
          -2 hlineto
          -18 83 -39 120 -37 96 -153 391 rcurveline
          -465 -143 hlineto
          233 -6 6 -30 7 -34 31 -76 rlinecurve
          304 -740 rlineto
          174 hlineto
          146 497 219 625 148 499 rrcurveto
          endchar
        </CharString>
        <CharString name="rcaron">
          26 callgsubr
          932 -64 callgsubr
          -103 -272 -92 callgsubr
          endchar
        </CharString>
        <CharString name="rcommaaccent">
          -18 callgsubr
          -186 237 hintmask 00000000
          hintmask 11001100
          494 868 -92 callgsubr
          hintmask 11001010
          -211 -990 -95 callgsubr
        </CharString>
        <CharString name="registered">
          702 -146 118 269 103 -103 107 261 116 361 114 228 118 hstemhm
          95 145 392 201 265 214 325 143 hintmask 0000000000000000
          hintmask 1101111101000000
          -32 callsubr
          -407 -228 rmoveto
          -108 vlineto
          20 54 2 2 30 hvcurveto
          -3 -22 -3 -51 -53 vvcurveto
          -518 vlineto
          -112 -35 -5 -63 -4 vhcurveto
          -90 413 vlineto
          hintmask 1011111101000000
          107 vlineto
          hintmask 1101111101000000
          -19 -2 -68 0 -29 -2 rrcurveto
          1 23 1 52 49 vvcurveto
          141 vlineto
          29 -1 20 0 29 1 15 -22 0 -12 123 -205 rrcurveto
          hintmask 1011111111000000
          35 -58 37 -46 32 -25 rrcurveto
          215 90 hlineto
          -63 4 -24 33 -61 93 -55 88 rcurveline
          -24 38 -23 35 -35 14 rrcurveto
          1 vlineto
          161 46 64 104 4 117 7 219 -157 78 -241 -1 rrcurveto
          -88 -225 rmoveto
          89 28 22 57 57 123 -12 -159 -121 -73 -69 -135 -22 -12 1 5 -23 vhcurveto
          endchar
        </CharString>
        <CharString name="ring">
          -438 1153 76 callgsubr
          hstem
          125 74 callsubr
          vstem
          366 1628 -76 callsubr
          endchar
        </CharString>
        <CharString name="s">
          -48 callsubr
          93 338 -96 callgsubr
        </CharString>
        <CharString name="sacute">
          -48 callsubr
          282 1241 -87 callsubr
          -357 -1189 -96 callgsubr
        </CharString>
        <CharString name="scaron">
          -48 callsubr
          824 -64 callgsubr
          -396 -802 -96 callgsubr
        </CharString>
        <CharString name="scedilla">
          -179 -244 135 95 62 865 144 -69 58 hstemhm
          79 238 -220 156 362 235 -167 244 -217 154 hintmask 0000000000000000
          hintmask 1110010010000000
          560 -141 rmoveto
          41 110 rlineto
          hintmask 1110100100000000
          173 15 154 103 196 vvcurveto
          193 -154 93 -207 71 vhcurveto
          -141 48 -109 21 95 vvcurveto
          79 65 30 70 148 109 -88 -141 25 vhcurveto
          hintmask 1101010010000000
          132 362 -156 hlineto
          3 -58 rlineto
          -2 hlineto
          hintmask 1110100100000000
          47 -66 -106 22 -74 hhcurveto
          -269 -117 -172 -158 -221 197 -61 170 -66 hvcurveto
          155 -60 82 -25 1 -77 rrcurveto
          -71 1 -74 -31 -68 hhcurveto
          -175 -131 97 126 -12 hvcurveto
          hintmask 1110011000000000
          -132 hlineto
          8 -352 rlineto
          156 hlineto
          -7 62 rlineto
          2 hlineto
          45 -34 75 -27 81 -12 -52 -215 rcurveline
          76 -32 rlineto
          -65 callsubr
          hintmask 1110010010000000
          16 callsubr
          endchar
        </CharString>
        <CharString name="scommaaccent">
          -179 -33 148 -129 62 865 144 -69 58 hstemhm
          79 238 -220 156 174 237 19 244 -217 154 hintmask 0000000000000000
          hintmask 1010011010000000
          93 338 rmoveto
          hintmask 0110011010000000
          8 -352 rlineto
          156 hlineto
          -7 62 rlineto
          2 hlineto
          hintmask 1010101100000000
          -48 64 121 -33 118 hhcurveto
          191 182 103 213 193 -154 93 -207 71 hvcurveto
          -141 48 -109 21 95 vvcurveto
          79 65 30 70 148 109 -88 -141 25 vhcurveto
          hintmask 1001011010000000
          132 362 -156 hlineto
          3 -58 rlineto
          -2 hlineto
          hintmask 1010101100000000
          47 -66 -106 22 -74 hhcurveto
          -269 -117 -172 -158 -221 197 -61 170 -66 hvcurveto
          155 -60 82 -25 1 -77 rrcurveto
          -71 1 -74 -31 -68 hhcurveto
          -175 -131 97 126 -12 hvcurveto
          hintmask 1010011010000000
          180 -460 -95 callgsubr
        </CharString>
        <CharString name="section">
          -48 -467 146 1731 146 hstemhm
          90 235 -157 229 332 229 -155 232 hintmask 00000000
          hintmask 11100100
          574 1556 rmoveto
          hintmask 11010100
          -299 -112 -234 -156 5 hvcurveto
          3 -78 15 -85 63 -79 rrcurveto
          hintmask 11101000
          -97 -92 -62 -115 -108 vvcurveto
          -201 145 -121 150 -97 vhcurveto
          123 -79 221 -99 -167 vvcurveto
          -82 -59 -84 -126 -61 -62 29 43 -20 vhcurveto
          17 26 6 30 29 vvcurveto
          45 -36 76 -97 -3 vhcurveto
          -79 -3 -45 -65 -77 vvcurveto
          -133 154 -143 225 299 113 234 156 100 -46 68 -36 54 vhcurveto
          hintmask 11010100
          93 93 66 118 107 vvcurveto
          196 -139 124 -148 95 vhcurveto
          -139 90 -207 88 -5 185 rrcurveto
          79 2 57 90 126 hhcurveto
          61 56 -29 -43 20 hvcurveto
          -17 -26 -6 -30 -29 vvcurveto
          -45 36 -76 97 3 vhcurveto
          79 3 45 65 77 vvcurveto
          hintmask 11100100
          133 -154 143 -225 vhcurveto
          -219 -747 rmoveto
          147 -112 301 -116 -188 vvcurveto
          -43 -11 -50 -19 -40 vhcurveto
          -146 114 -302 115 189 vvcurveto
          44 10 46 20 41 vhcurveto
          endchar
        </CharString>
        <CharString name="semicolon">
          -626 -382 1494 hstem
          288 150 vstem
          283 1112 -36 callsubr
          -33 -1494 rmoveto
          -86 callgsubr
          endchar
        </CharString>
        <CharString name="seven">
          -212 1228 205 hstem
          38 122 vstem
          918 48 callgsubr
          -872 hlineto
          -16 -349 rlineto
          130 hlineto
          114 62 34 93 -2 vhcurveto
          431 -5 -368 -852 -70 -169 -12 -92 rlinecurve
          -9 -67 26 -78 97 -1 80 -1 47 81 19 75 108 435 70 313 184 378 rrcurveto
          endchar
        </CharString>
        <CharString name="six">
          6 -33 144 639 163 410 144 hstemhm
          94 298 -298 996 -310 310 64 callgsubr
          655 64 callsubr
          hintmask 11110100
          -464 -97 -571 -236 -424 128 -269 365 292 211 215 258 280 -134 202 -302 -9 hvcurveto
          -102 -3 -117 -61 -44 -51 7 222 57 291 198 12 68 4 50 -29 22 -33 rrcurveto
          -23 -26 -6 -41 -22 vvcurveto
          -55 33 -75 102 84 46 73 73 vhcurveto
          hintmask 11101000
          124 -116 151 -258 vhcurveto
          -59 -717 rmoveto
          hintmask 11110100
          170 14 -238 -123 -141 -39 -137 -143 -160 -47 312 192 1 hvcurveto
          hintmask 11101000
          74 36 81 61 87 hhcurveto
          endchar
        </CharString>
        <CharString name="slash">
          260 1547 -20 hstem
          52 1329 vstem
          1381 1427 rmoveto
          -186 120 -1143 -1997 159 -105 rlineto
          endchar
        </CharString>
        <CharString name="space">
          -633 endchar
        </CharString>
        <CharString name="sterling">
          1 -33 235 396 169 -161 161 556 143 hstemhm
          223 260 -165 233 403 134 hintmask 00000000
          132 768 rmoveto
          -171 vlineto
          161 3 rlineto
          14 -56 11 -58 -69 vvcurveto
          -43 -17 -66 -19 -36 vhcurveto
          -101 -37 -76 -73 -81 vvcurveto
          -58 30 -56 85 72 72 81 100 25 vhcurveto
          70 -2 86 -41 64 -40 rrcurveto
          -48 76 76 -50 89 hhcurveto
          151 79 151 202 8 hvcurveto
          -134 hlineto
          -81 -5 -36 -37 -31 -77 -77 103 -152 hhcurveto
          -47 -52 -7 -26 -65 hvcurveto
          2 vlineto
          hintmask 11010110
          116 81 40 129 -23 120 290 6 rcurveline
          158 vlineto
          hintmask 00110110
          -322 hlineto
          -16 81 -14 93 106 vvcurveto
          126 46 150 147 46 29 -16 -16 13 vhcurveto
          -26 -32 -9 -39 -36 vvcurveto
          -48 38 -80 102 3 vhcurveto
          84 3 47 69 81 vvcurveto
          104 -92 150 -254 -227 -204 -178 -316 vhcurveto
          hintmask 00111010
          -81 10 -65 14 -59 vhcurveto
          endchar
        </CharString>
        <CharString name="summation">
          218 -521 156 1646 153 -136 136 hstemhm
          1100 129 -83 129 hintmask 00000000
          1235 1037 rmoveto
          -12 397 rlineto
          -1153 hlineto
          hintmask 10110000
          -26 callgsubr
          30 1 44 3 9 -22 20 -52 18 -34 409 -745 rcurveline
          -2 vlineto
          -302 -606 -77 -146 -39 -55 -92 -5 rlinecurve
          -135 1150 vlineto
          12 451 rlineto
          -135 hlineto
          -222 -128 -73 -121 vhcurveto
          -499 hlineto
          33 46 32 56 15 29 395 789 rcurveline
          33 vlineto
          hintmask 11001000
          -386 710 rlineto
          364 hlineto
          111 4 138 -43 -222 vvcurveto
          endchar
        </CharString>
        <CharString name="t">
          56 callsubr
          hstem
          174 288 vstem
          466 1024 -63 callgsubr
          endchar
        </CharString>
        <CharString name="tcaron">
          56 callsubr
          hstem
          174 288 191 185 vstem
          628 1629 -35 callsubr
          -344 -571 -63 callgsubr
          endchar
        </CharString>
        <CharString name="thorn">
          1 -522 150 339 153 752 41 callsubr
          946 rmoveto
          600 -47 callgsubr
          -1364 -107 callgsubr
          197 vlineto
          -19 50 58 -18 74 hhcurveto
          304 203 241 330 317 -167 202 -246 -85 -95 -28 -83 -93 hvcurveto
          -3 -163 rmoveto
          36 52 62 35 67 2 rrcurveto
          158 5 66 -182 -188 vvcurveto
          -201 -52 -182 -189 -4 vhcurveto
          -58 -1 -62 19 -28 20 rrcurveto
          endchar
        </CharString>
        <CharString name="three">
          -26 -33 150 569 139 497 145 hstemhm
          72 992 -372 298 -235 309 hintmask 00000000
          hintmask 11110000
          346 680 rmoveto
          2 24 63 4 19 hhcurveto
          hintmask 11100100
          236 5 67 -164 -139 vvcurveto
          -155 -88 -116 -171 -76 -81 31 50 -27 vhcurveto
          22 29 10 40 25 vvcurveto
          55 -31 80 -102 -3 vhcurveto
          -84 -3 -55 -71 -81 vvcurveto
          -143 135 -159 309 320 228 153 281 174 -120 159 -262 46 vhcurveto
          2 vlineto
          hintmask 11101000
          226 49 82 165 107 vvcurveto
          268 -202 96 -254 -288 -142 -192 -121 -81 46 -65 84 -3 vhcurveto
          102 -3 37 86 48 vvcurveto
          26 -8 45 -25 30 vhcurveto
          42 23 65 43 74 hhcurveto
          140 53 -100 -141 -3 hvcurveto
          -151 -3 -103 -105 -180 hhcurveto
          -22 -16 0 2 -22 hvcurveto
          endchar
        </CharString>
        <CharString name="threequarters">
          500 -8 56 callgsubr
          282 27 callsubr
          598 188 hintmask 0000000000000000
          hintmask 1011111001100000
          79 callgsubr
          -17 callsubr
          hintmask 1101110110100000
          -18 callsubr
          1145 255 5 callsubr
          1002 344 38 callgsubr
          hintmask 1011111001100000
          -119 310 -29 vlineto
          -94 -32 -22 callgsubr
          hintmask 1101111001100000
          9 callsubr
          hintmask 1011111001100000
          63 callsubr
        </CharString>
        <CharString name="threesuperior">
          -424 598 27 callsubr
          hintmask 00000000
          hintmask 11110100
          79 callgsubr
          hintmask 11110010
          -17 callsubr
          hintmask 11101100
          -18 callsubr
          endchar
        </CharString>
        <CharString name="tilde">
          -300 1243 196 -117 195 25 -20 hstemhm
          70 732 hintmask 00000000
          hintmask 10110000
          686 3 callsubr
          hintmask 01010000
          -6 callsubr
          hintmask 10110000
          13 callgsubr
          endchar
        </CharString>
        <CharString name="trademark">
          1101 588 108 628 110 -97 97 hstemhm
          136 76 215 211 217 76 133 117 677 194 hintmask 00000000
          hintmask 11011111
          936 1131 rmoveto
          -7 303 rlineto
          -789 hlineto
          -7 -303 rlineto
          80 hlineto
          131 58 60 91 vhcurveto
          66 -530 hlineto
          -97 -32 -5 -54 -3 vhcurveto
          -99 389 113 vlineto
          -17 -1 -54 -1 -26 -2 rrcurveto
          3 21 2 44 44 vvcurveto
          518 68 vlineto
          91 1 58 -63 -131 vvcurveto
          1277 303 rmoveto
          -323 hlineto
          -184 -479 -12 -30 -34 -100 -14 -48 rlinecurve
          -1 hlineto
          -19 58 -16 55 -31 74 -201 470 rcurveline
          -313 -110 hlineto
          17 49 2 1 26 hvcurveto
          -3 -20 -2 -45 -1 -43 -10 -428 rcurveline
          -1 -97 -28 -5 -54 -3 rrcurveto
          -98 293 112 vlineto
          -17 -1 -49 -1 -26 -2 rrcurveto
          3 21 6 44 44 vvcurveto
          -2 199 1 73 -3 75 -1 82 rlinecurve
          1 hlineto
          23 -96 43 -120 19 -44 176 -398 rcurveline
          160 hlineto
          242 662 rlineto
          1 hlineto
          3 -74 3 -107 1 -29 10 -237 rcurveline
          3 -97 -35 -5 -54 -3 rrcurveto
          -98 369 112 vlineto
          -17 -1 -48 -1 -26 -2 3 21 3 44 -1 44 -16 427 rcurveline
          hintmask 10111111
          -3 98 35 4 55 3 rrcurveto
          endchar
        </CharString>
        <CharString name="two">
          -81 0 205 1115 146 hstemhm
          674 314 -125 122 67 callsubr
          977 hmoveto
          30 callsubr
          -22 -93 3 vhcurveto
          -401 11 13 54 66 107 151 123 rlinecurve
          hintmask 11100000
          371 303 80 143 139 vvcurveto
          287 -240 100 -220 -288 -158 -197 -123 -81 46 -65 84 -3 vhcurveto
          102 -3 38 86 48 vvcurveto
          29 -11 47 -29 30 vhcurveto
          46 29 63 40 73 hhcurveto
          155 1 42 -138 -129 vvcurveto
          -147 -75 -144 -199 -184 vhcurveto
          -158 -146 -162 -150 -284 vvcurveto
          endchar
        </CharString>
        <CharString name="twosuperior">
          -405 618 170 559 119 hstemhm
          88 200 139 223 -70 91 64 callgsubr
          666 618 32 callgsubr
          hintmask 11110000
          -24 callgsubr
        </CharString>
        <CharString name="u">
          -30 callgsubr
          1091 1044 -104 callgsubr
        </CharString>
        <CharString name="uacute">
          -30 callgsubr
          427 1241 -87 callsubr
          496 -483 -104 callgsubr
        </CharString>
        <CharString name="ucircumflex">
          -30 callgsubr
          975 -51 callgsubr
          204 -107 -104 callgsubr
        </CharString>
        <CharString name="udieresis">
          49 callgsubr
          514 -20 hstemhm
          312 44 callgsubr
          449 1538 -88 callsubr
          hintmask 11111100
          286 -494 -104 callgsubr
        </CharString>
        <CharString name="ugrave">
          -30 callgsubr
          731 -68 callsubr
          609 -330 -104 callgsubr
        </CharString>
        <CharString name="uhungarumlaut">
          -30 callgsubr
          315 -46 callgsubr
          280 -477 -104 callgsubr
        </CharString>
        <CharString name="umacron">
          49 callgsubr
          264 192 hstem
          167 291 343 290 vstem
          917 1292 -23 callgsubr
          756 -241 -104 callgsubr
        </CharString>
        <CharString name="underscore">
          532 -317 215 hstem
          221 1259 vstem
          1480 -102 rmoveto
          -1259 -215 1259 hlineto
          endchar
        </CharString>
        <CharString name="uni00A0">
          -633 endchar
        </CharString>
        <CharString name="uni00AD">
          -572 33 callgsubr
        </CharString>
        <CharString name="uni00B5">
          -57 callsubr
        </CharString>
        <CharString name="uni0149">
          -30 callsubr
          -276 150 479 291 hintmask 00000000
          hintmask 11011010
          181 1176 rmoveto
          hintmask 10100110
          -86 callgsubr
          392 -290 rmoveto
          hintmask 11011010
          -2 25 -3 48 -4 28 rrcurveto
          -94 callsubr
          537 156 vlineto
          -29 -1 -60 79 callsubr
          79 39 vvcurveto
          hintmask 10101010
          -2 callgsubr
          120 45 -91 callsubr
          hintmask 10100110
          36 callgsubr
          endchar
        </CharString>
        <CharString name="uni0162">
          159 -244 135 109 152 1144 138 hstemhm
          17 callgsubr
          -69 235 185 129 hintmask 00000000
          hintmask 11111010
          1297 970 rmoveto
          -12 464 rlineto
          -1241 hlineto
          -12 -464 rlineto
          135 hlineto
          222 98 101 155 1 vhcurveto
          95 -981 -15 callsubr
          216 vlineto
          -58 -240 76 -32 rlineto
          hintmask 11110110
          -65 callsubr
          -37 1 -69 -15 -34 -18 rrcurveto
          -2 hlineto
          53 141 rlineto
          228 158 hlineto
          hintmask 11111010
          -48 callgsubr
          960 47 callsubr
          -106 -222 vvcurveto
          endchar
        </CharString>
        <CharString name="uni0163">
          -326 -244 135 972 160 hstem
          174 288 89 235 vstem
          772 281 rmoveto
          -108 -78 -72 -15 -36 hhcurveto
          -105 -19 104 95 10 1 107 2 387 hvcurveto
          261 5 rlineto
          158 -261 257 -150 vlineto
          -31 -105 -109 -150 -141 -2 rrcurveto
          -171 vlineto
          32 60 2 48 hhcurveto
          -494 vlineto
          -5 -262 109 -92 111 -28 -53 -219 rcurveline
          76 -32 rlineto
          -65 callsubr
          -37 1 -69 -15 -34 -18 rrcurveto
          -2 hlineto
          41 110 83 6 130 35 122 179 rlinecurve
          endchar
        </CharString>
        <CharString name="uni021A">
          159 0 152 1144 138 hstemhm
          17 callgsubr
          -257 237 371 129 hintmask 00000000
          hintmask 11110100
          1297 970 rmoveto
          -12 464 -77 callgsubr
          960 47 callsubr
          -106 -222 vvcurveto
          hintmask 11101100
          -631 -1092 -95 callgsubr
        </CharString>
        <CharString name="uni021B">
          56 callsubr
          hstemhm
          174 288 hintmask 00000000
          466 1024 -63 callgsubr
          hintmask 11100000
          -386 -1146 -95 callgsubr
        </CharString>
        <CharString name="uni02C9">
          -572 1174 192 hstem
          22 582 vstem
          604 1178 -23 callgsubr
          endchar
        </CharString>
        <CharString name="uni0400">
          -79 callgsubr
          hintmask 00000000
          hintmask 11101101
          792 -67 callgsubr
          hintmask 11101110
          638 -653 -97 callsubr
          vlineto
          hintmask 11011101
          1081 hlineto
          -103 callsubr
          -40 callgsubr
          74 2 rlineto
          hintmask 11011110
          -55 callsubr
          endchar
        </CharString>
        <CharString name="uni0401">
          -80 callgsubr
        </CharString>
        <CharString name="uni0402">
          513 -35 134 -99 135 540 189 432 138 hstemhm
          17 callgsubr
          133 253 -35 129 -4 254 hintmask 0000000000000000
          hintmask 0111110100000000
          811 1296 rmoveto
          98 hlineto
          155 2 98 -90 -184 vvcurveto
          135 hlineto
          -12 410 rlineto
          -1241 hlineto
          -12 -464 rlineto
          135 hlineto
          222 98 101 155 1 vhcurveto
          95 -981 -15 callsubr
          434 152 vlineto
          -78 callgsubr
          265 vlineto
          40 53 113 34 82 hhcurveto
          hintmask 1011111010000000
          151 77 -108 -207 -171 -21 -90 -39 -17 -12 8 10 -5 hvcurveto
          20 90 -55 68 -85 -2 rrcurveto
          -83 -2 -46 -66 -70 vvcurveto
          -87 70 -83 146 259 122 269 214 216 -123 200 -244 -123 -140 -52 -61 -100 vhcurveto
          endchar
        </CharString>
        <CharString name="uni0403">
          -3 0 152 1130 -51 callsubr
          460 73 callsubr
          443 -91 callgsubr
          469 -842 -97 callsubr
          616 -87 callgsubr
          -109 22 callgsubr
          -40 callgsubr
          74 2 rlineto
          -55 callsubr
          endchar
        </CharString>
        <CharString name="uni0404">
          273 -33 166 539 142 504 149 -101 87 0 -20 hstemhm
          859 135 144 154 hintmask 00000000
          hintmask 11100110
          1292 385 rmoveto
          -158 -114 -183 -94 -171 hhcurveto
          -259 -151 220 319 -18 hvcurveto
          262 hlineto
          111 1 90 -8 -172 vvcurveto
          135 498 -43 callgsubr
          3 -50 2 -71 4 -56 rrcurveto
          -448 hlineto
          21 266 136 239 261 -1 191 -1 116 -114 24 callgsubr
          hintmask 11001110
          479 -22 callsubr
          hintmask 11010110
          7 -87 rlineto
          -2 hlineto
          hintmask 11100110
          66 -109 -136 35 -107 hhcurveto
          -477 -239 -398 82 callgsubr
          280 -322 422 169 247 51 277 200 hvcurveto
          endchar
        </CharString>
        <CharString name="uni0405">
          53 -33 148 -35 callgsubr
          605 273 -245 154 hintmask 00000000
          hintmask 10100101
          121 460 -89 callsubr
        </CharString>
        <CharString name="uni0406">
          -380 62 callgsubr
          296 67 callsubr
          690 1434 rmoveto
          -588 -158 hlineto
          -100 callgsubr
          785 73 callgsubr
        </CharString>
        <CharString name="uni0407">
          84 callgsubr
          79 272 -103 296 -109 272 hintmask 00000000
          216 1948 -88 callsubr
          118 -514 19 callgsubr
          hintmask 11101000
          -100 callgsubr
          785 vlineto
          hintmask 11010000
          -54 callgsubr
        </CharString>
        <CharString name="uni0408">
          -53 callsubr
        </CharString>
        <CharString name="uni0409">
          980 -33 146 -113 145 545 145 443 155 -135 135 hstemhm
          1068 296 380 323 hintmask 00000000
          hintmask 01110100
          1364 75 callgsubr
          hintmask 01101100
          -97 callgsubr
          hintmask 10110100
          135 -1181 -22 callsubr
          279 6 rlineto
          -830 -81 -46 -339 -119 hhcurveto
          -16 -8 2 5 -7 hvcurveto
          12 24 7 28 -1 24 -3 69 -42 69 -95 -5 rrcurveto
          -98 -5 -51 -79 -95 vvcurveto
          -118 80 -65 172 243 93 125 1061 117 vhcurveto
          11 96 35 22 92 3 165 5 rcurveline
          -966 vlineto
          -98 callgsubr
          hintmask 01110110
          -135 647 -2 callsubr
          218 -141 232 -489 -20 hvcurveto
          -73 -148 -10 callsubr
          -33 callgsubr
        </CharString>
        <CharString name="uni040A">
          1020 0 145 -145 152 523 158 -144 54 callsubr
          564 296 hintmask 00000000
          1404 834 rmoveto
          287 46 callsubr
          hintmask 10010111
          -64 callsubr
          -264 -564 287 vlineto
          hintmask 10101011
          -97 callgsubr
          hintmask 10100111
          135 -588 -158 vlineto
          -100 callgsubr
          336 vlineto
          564 7 rlineto
          -366 vlineto
          -98 callgsubr
          hintmask 01101011
          -135 647 -2 callsubr
          218 -141 232 -489 -20 hvcurveto
          -73 -148 -10 callsubr
          -33 callgsubr
        </CharString>
        <CharString name="uni040B">
          659 0 152 523 189 432 138 hstem
          17 callgsubr
          351 129 33 296 vstem
          1620 427 rmoveto
          305 -1 -149 132 -255 hhcurveto
          -160 -144 -52 -61 -100 hvcurveto
          545 47 callsubr
          -90 -184 vvcurveto
          135 hlineto
          -12 410 -77 callgsubr
          265 vlineto
          40 53 113 34 107 hhcurveto
          162 76 -78 -167 2 hvcurveto
          -117 -104 callsubr
          endchar
        </CharString>
        <CharString name="uni040C">
          -39 callsubr
          hintmask 00000000
          hintmask 01101010
          561 1651 -87 callsubr
          632 -503 -94 callgsubr
          hintmask 10100110
          -62 callgsubr
          endchar
        </CharString>
        <CharString name="uni040D">
          480 62 callgsubr
          296 589 296 5 callgsubr
          863 -67 callgsubr
          857 -569 rmoveto
          -45 callgsubr
          hintmask 11011000
          135 -588 -67 callsubr
          -3 -20 -2 -34 -1 -39 -591 -695 rcurveline
          627 vlineto
          -45 callgsubr
          hintmask 11011000
          135 -588 -95 callsubr
          588 -93 callsubr
          3 24 3 44 1 49 590 700 rcurveline
          -656 -104 callsubr
          endchar
        </CharString>
        <CharString name="uni040E">
          63 callgsubr
          123 102 hstemhm
          25 1324 -991 234 294 234 hintmask 00000000
          739 -23 callsubr
          610 -123 8 callsubr
          hintmask 01010110
          -63 114 65 51 119 -7 rrcurveto
          hintmask 00110100
          -26 callsubr
          hintmask 11011000
          86 callsubr
        </CharString>
        <CharString name="uni040F">
          470 50 callsubr
          219 148 167 296 87 callsubr
          1394 1121 rmoveto
          10 callgsubr
          -163 -53 -10 -89 -5 vhcurveto
          -392 -5 rlineto
          966 13 callsubr
          -785 vlineto
          -165 -54 -8 -92 -5 vhcurveto
          -135 526 43 callsubr
          363 609 158 hlineto
          -29 -1 -81 -21 callsubr
          endchar
        </CharString>
        <CharString name="uni0410">
          -5 callsubr
          747 1470 -106 callsubr
        </CharString>
        <CharString name="uni0411">
          182 0 145 546 144 446 152 -134 134 -44 callsubr
          430 323 -233 129 hintmask 00000000
          hintmask 11011010
          544 75 callgsubr
          159 51 18 86 1 vhcurveto
          134 2 rlineto
          111 2 138 -44 -222 vvcurveto
          135 hlineto
          -12 397 rlineto
          -1085 hlineto
          hintmask 11101100
          -95 callsubr
          697 vlineto
          287 211 144 272 229 -95 207 -535 -15 hvcurveto
          -123 -148 rmoveto
          3 53 45 -1 68 hhcurveto
          132 132 -57 -211 -157 -72 -110 -166 -8 hvcurveto
          -3 -64 -64 0 -72 hhcurveto
          5 35 40 callsubr
          endchar
        </CharString>
        <CharString name="uni0412">
          182 0 145 516 144 476 156 -144 144 -44 callsubr
          337 312 -219 323 hintmask 00000000
          hintmask 11101010
          12 callsubr
          697 -2 callsubr
          170 -126 155 -271 42 hvcurveto
          2 vlineto
          hintmask 11101100
          191 52 95 118 7 118 14 251 -210 125 -327 -2 rrcurveto
          -126 -634 rmoveto
          318 vlineto
          hintmask 11011100
          157 53 13 67 2 vhcurveto
          104 3 113 -53 -162 vvcurveto
          -150 -57 -122 -173 -3 vhcurveto
          -107 -148 rmoveto
          3 53 45 -1 68 hhcurveto
          hintmask 11101010
          132 132 -59 -188 -152 -72 -106 -166 -8 hvcurveto
          -3 -64 -64 0 -72 hhcurveto
          5 35 40 callsubr
          endchar
        </CharString>
        <CharString name="uni0413">
          -3 0 152 1130 -51 callsubr
          460 73 callsubr
          -33 callsubr
          616 -87 callgsubr
          -109 22 callgsubr
          -40 callgsubr
          74 2 rlineto
          -55 callsubr
          endchar
        </CharString>
        <CharString name="uni0414">
          353 0 55 callsubr
          55 148 753 296 60 148 hintmask 00000000
          hintmask 10101110
          1460 160 rmoveto
          -62 -2 -28 -1 -76 -2 -45 -3 rlinecurve
          -5 hlineto
          -78 callgsubr
          785 vlineto
          hintmask 10011110
          -97 callgsubr
          hintmask 10101110
          135 -1148 -22 callsubr
          212 6 rlineto
          -139 vlineto
          -636 6 -137 -355 -199 hhcurveto
          -77 -516 148 hlineto
          214 -3 31 150 107 hhcurveto
          839 hlineto
          107 31 -150 -214 -3 hvcurveto
          148 hlineto
          -1066 516 rmoveto
          119 167 99 315 6 519 rrcurveto
          hintmask 11001110
          1 96 46 23 91 2 rrcurveto
          hintmask 10101110
          200 5 rlineto
          -949 vlineto
          -165 -89 -8 -92 -5 vhcurveto
          endchar
        </CharString>
        <CharString name="uni0415">
          -79 callgsubr
          hintmask 00000000
          -33 callsubr
          vlineto
          hintmask 11101110
          1081 hlineto
          -103 callsubr
          -40 callgsubr
          74 2 rlineto
          hintmask 11011101
          -55 callsubr
          endchar
        </CharString>
        <CharString name="uni0416">
          978 2 callsubr
          -150 150 -135 135 hstemhm
          927 296 hintmask 00000000
          hintmask 01101010
          1655 654 rmoveto
          -32 45 -42 40 -54 33 rrcurveto
          3 vlineto
          246 314 rlineto
          hintmask 01100110
          132 169 93 36 92 5 rrcurveto
          hintmask 01101010
          135 -467 vlineto
          23 callgsubr
          57 4 44 3 rrcurveto
          -2 vlineto
          -36 -28 -25 -33 -111 -144 -206 -268 rcurveline
          -152 312 hlineto
          hintmask 01100110
          -97 callgsubr
          hintmask 01101010
          135 -588 vlineto
          hintmask 01110010
          -158 vlineto
          hintmask 01101010
          -105 callgsubr
          -289 -144 vlineto
          -206 268 -78 101 -60 77 -36 27 rlinecurve
          2 vlineto
          hintmask 01110010
          44 -3 57 -4 29 -1 rrcurveto
          hintmask 01101010
          158 -473 vlineto
          hintmask 10100110
          -135 vlineto
          92 -5 92 -36 133 -169 246 -314 rcurveline
          -3 vlineto
          -54 -33 -42 -40 -32 -45 -211 -297 rcurveline
          -83 -117 -94 -100 -92 -5 rrcurveto
          -135 316 vlineto
          33 2 112 126 55 80 202 295 rcurveline
          38 51 45 65 37 27 rrcurveto
          74 -333 hlineto
          -98 callgsubr
          hintmask 01101010
          -135 588 -28 callsubr
          309 74 vlineto
          37 -26 45 -65 38 -51 202 -295 rcurveline
          hintmask 10101010
          55 -80 112 -126 33 -2 rrcurveto
          316 81 callsubr
          -94 100 -83 117 rrcurveto
          endchar
        </CharString>
        <CharString name="uni0417">
          181 -33 166 528 146 511 149 -14 -20 hstemhm
          167 154 593 303 -245 323 64 callgsubr
          318 1366 rmoveto
          hintmask 11011000
          7 87 rlineto
          -158 -479 134 hlineto
          hintmask 11101100
          229 59 99 115 200 hhcurveto
          165 91 -80 -169 -142 -65 -120 -187 hvcurveto
          -183 -146 259 hlineto
          hintmask 11101010
          117 117 -81 -169 -195 -162 -83 -164 -181 -187 94 158 -116 hvcurveto
          -98 -90 rlineto
          -277 188 231 -51 197 hhcurveto
          338 -6 277 153 275 vvcurveto
          179 -114 148 -243 42 vhcurveto
          hintmask 11101100
          190 63 89 131 160 vvcurveto
          225 -186 137 -312 -7 vhcurveto
          hintmask 11101000
          -160 -99 -35 -66 -141 hvcurveto
          endchar
        </CharString>
        <CharString name="uni0418">
          480 62 callgsubr
          296 589 296 5 callgsubr
          1429 1121 rmoveto
          -45 callgsubr
          hintmask 11011000
          135 -588 -67 callsubr
          -3 -20 -2 -34 -1 -39 -591 -695 rcurveline
          627 vlineto
          -45 callgsubr
          hintmask 11011000
          135 -588 -95 callsubr
          588 -93 callsubr
          3 24 3 44 1 49 590 700 rcurveline
          -656 -104 callsubr
          endchar
        </CharString>
        <CharString name="uni0419">
          480 0 152 1130 -77 callsubr
          123 102 -44 callsubr
          -76 234 294 234 -97 296 hintmask 00000000
          849 -23 callsubr
          hintmask 11010110
          580 -436 rmoveto
          -97 callgsubr
          hintmask 10111001
          135 -588 -67 callsubr
          -3 -20 -2 -34 -1 -39 -591 -695 rcurveline
          627 vlineto
          hintmask 11011001
          -97 callgsubr
          hintmask 10111001
          135 -588 -95 callsubr
          588 -93 callsubr
          3 24 3 44 1 49 590 700 rcurveline
          -656 -104 callsubr
          endchar
        </CharString>
        <CharString name="uni041A">
          -39 callsubr
          hintmask 00000000
          hintmask 01101010
          1361 1434 -94 callgsubr
          hintmask 10100110
          -62 callgsubr
          endchar
        </CharString>
        <CharString name="uni041B">
          440 -33 166 -133 55 callsubr
          1068 296 hintmask 00000000
          hintmask 01010100
          1364 1121 rmoveto
          hintmask 01001100
          -97 callgsubr
          hintmask 10010100
          135 -1131 -22 callsubr
          235 6 -6 -238 rlineto
          -650 -16 -155 -261 -75 hhcurveto
          -12 -12 2 5 -7 hvcurveto
          13 15 5 16 25 vvcurveto
          74 -42 59 -97 -116 -52 -84 -95 -118 98 -65 146 243 219 303 883 17 vhcurveto
          hintmask 01100100
          2 91 44 27 92 3 rrcurveto
          hintmask 01010100
          165 5 rlineto
          -966 -104 callsubr
          endchar
        </CharString>
        <CharString name="uni041C">
          -80 callsubr
        </CharString>
        <CharString name="uni041D">
          480 0 152 489 158 482 -84 callgsubr
          564 296 87 callgsubr
          1550 -56 callsubr
          -298 -564 321 vlineto
          hintmask 11011100
          165 54 8 92 5 vhcurveto
          hintmask 11101100
          135 -588 -158 vlineto
          -100 callgsubr
          302 vlineto
          564 7 rlineto
          -332 14 callsubr
          hintmask 11011100
          -54 callgsubr
        </CharString>
        <CharString name="uni041E">
          -41 callsubr
          791 1467 -101 callgsubr
        </CharString>
        <CharString name="uni041F">
          450 80 callsubr
          157 -152 -84 callgsubr
          534 296 hintmask 00000000
          hintmask 11001100
          1374 70 callgsubr
          hintmask 11001100
          135 -1418 vlineto
          hintmask 10101100
          -158 vlineto
          -100 callgsubr
          760 vlineto
          hintmask 11001100
          163 53 10 89 5 vhcurveto
          392 5 rlineto
          -966 -104 callsubr
          endchar
        </CharString>
        <CharString name="uni0420">
          136 0 152 366 147 617 156 -144 144 -44 callsubr
          413 316 87 callgsubr
          102 1438 -74 callsubr
          181 vlineto
          48 -1 38 0 63 2 387 11 187 224 6 219 9 326 -238 141 -359 -2 rrcurveto
          -141 -306 rmoveto
          hintmask 11011100
          144 51 18 87 103 172 -29 -273 -209 -95 -118 -226 -32 -31 3 3 -29 vhcurveto
          endchar
        </CharString>
        <CharString name="uni0421">
          -12 callsubr
          1292 385 -75 callsubr
        </CharString>
        <CharString name="uni0422">
          -3 callgsubr
          1297 970 rmoveto
          -12 464 -77 callgsubr
          960 47 callsubr
          -106 -222 vvcurveto
          endchar
        </CharString>
        <CharString name="uni0423">
          63 callgsubr
          hstemhm
          25 1324 hintmask 00000000
          hintmask 01010000
          1349 1434 8 callsubr
          hintmask 00110000
          -63 114 65 51 119 -7 rrcurveto
          hintmask 11010000
          -26 callsubr
          hintmask 00110000
          86 callsubr
        </CharString>
        <CharString name="uni0424">
          583 -110 155 1375 155 hstem
          72 302 357 276 374 303 vstem
          1153 1575 rmoveto
          -568 -43 callgsubr
          154 6 -3 -23 -3 -40 -1 -46 rlinecurve
          -445 -41 -215 -258 -312 vvcurveto
          -276 181 -243 476 -36 vhcurveto
          -12 -112 -51 -7 -81 -4 rrcurveto
          -135 568 158 vlineto
          -154 -6 3 23 3 40 1 46 rlinecurve
          456 44 222 244 278 vvcurveto
          277 -205 271 -470 48 vhcurveto
          11 116 52 7 81 4 rrcurveto
          -422 -1155 rmoveto
          -240 42 -117 155 245 vvcurveto
          242 110 169 247 41 vhcurveto
          276 -3 rmoveto
          255 -49 119 -180 -265 vvcurveto
          -248 -116 -124 -258 -29 vhcurveto
          endchar
        </CharString>
        <CharString name="uni0425">
          -81 callsubr
        </CharString>
        <CharString name="uni0426">
          494 50 callsubr
          534 296 59 148 87 callsubr
          1601 160 rmoveto
          -61 -2 -29 -1 -81 -2 -44 -3 rlinecurve
          -78 callgsubr
          785 vlineto
          10 callgsubr
          -163 -53 -10 -89 -5 vhcurveto
          -392 -5 rlineto
          966 13 callsubr
          -785 vlineto
          -165 -54 -8 -92 -5 vhcurveto
          -135 1196 43 callsubr
          hlineto
          endchar
        </CharString>
        <CharString name="uni0427">
          423 0 152 368 189 573 -54 callsubr
          211 296 544 296 hintmask 00000000
          hintmask 10101100
          1347 1121 rmoveto
          14 callgsubr
          -314 vlineto
          -41 -59 -125 -34 -120 hhcurveto
          -162 -76 78 167 -2 hvcurveto
          167 vlineto
          14 callgsubr
          -141 vlineto
          -305 1 149 -132 255 hhcurveto
          141 188 52 62 106 hvcurveto
          -321 -104 callsubr
          endchar
        </CharString>
        <CharString name="uni0428">
          1080 71 callsubr
          248 296 434 296 434 296 cntrmask 00011100
          87 callsubr
          2004 1121 rmoveto
          10 callgsubr
          -165 -54 -12 -89 -1 vhcurveto
          -299 -5 rlineto
          5 36 3 73 72 vvcurveto
          785 vlineto
          10 callgsubr
          -165 -54 -8 -89 -5 vhcurveto
          -291 -5 rlineto
          966 13 callsubr
          -785 vlineto
          -165 -54 -8 -92 -5 vhcurveto
          -135 2048 -28 callsubr
          endchar
        </CharString>
        <CharString name="uni0429">
          1104 71 callsubr
          248 296 434 296 434 296 59 148 hintmask 00000000
          hintmask 11011110
          2211 160 rmoveto
          -61 -2 -29 -1 -81 -2 -44 -3 rlinecurve
          5 35 3 75 74 1 callgsubr
          -12 -89 -1 vhcurveto
          -299 -5 rlineto
          5 36 3 73 72 1 callgsubr
          -8 -89 -5 vhcurveto
          -291 -5 rlineto
          966 vlineto
          hintmask 10111110
          -97 callgsubr
          hintmask 11011110
          135 -588 -95 callsubr
          1826 43 callsubr
          hlineto
          endchar
        </CharString>
        <CharString name="uni042A">
          427 0 145 545 145 458 140 hstem
          17 callgsubr
          380 323 vstem
          811 834 rmoveto
          287 46 callsubr
          135 -913 vlineto
          -12 -464 rlineto
          135 hlineto
          222 98 101 155 1 vhcurveto
          95 -981 -15 callsubr
          647 -2 callsubr
          218 -141 232 -489 -20 hvcurveto
          -73 -148 -10 callsubr
          -33 callgsubr
        </CharString>
        <CharString name="uni042B">
          845 0 145 -145 152 538 42 callsubr
          226 296 hintmask 00000000
          hintmask 10110101
          544 75 callgsubr
          hintmask 10101101
          -97 callgsubr
          hintmask 10110111
          135 -588 -95 callsubr
          647 -2 callsubr
          218 -141 232 -489 -20 hvcurveto
          1298 597 19 callgsubr
          -106 callgsubr
          hintmask 01101111
          -135 588 158 vlineto
          32 callsubr
          -1371 -610 -10 callsubr
          hintmask 10110111
          -33 callgsubr
        </CharString>
        <CharString name="uni042C">
          160 0 145 545 42 callsubr
          64 callgsubr
          544 75 callgsubr
          hintmask 11011000
          19 callsubr
          -785 vlineto
          -165 -54 -8 -92 -5 vhcurveto
          -135 647 -2 callsubr
          218 -141 232 -489 -20 hvcurveto
          -73 -148 -10 callsubr
          -33 callgsubr
        </CharString>
        <CharString name="uni042D">
          272 -33 166 540 141 504 149 -14 -20 hstemhm
          152 154 92 125 525 324 87 callgsubr
          303 1366 rmoveto
          hintmask 11011100
          7 87 rlineto
          -158 -449 134 hlineto
          hintmask 11101110
          37 208 116 105 191 1 261 1 136 -239 21 -266 rrcurveto
          -510 hlineto
          9 127 rlineto
          -148 -448 125 hlineto
          172 90 8 111 vhcurveto
          324 hlineto
          -320 -18 -151 -220 -259 hhcurveto
          -171 -183 94 158 -114 hvcurveto
          -98 -90 rlineto
          -277 200 247 -51 169 hhcurveto
          422 280 322 407 373 -239 398 -477 hvcurveto
          hintmask 11101100
          -107 -136 -35 -66 -109 hvcurveto
          endchar
        </CharString>
        <CharString name="uni042E">
          1120 -33 150 -117 152 488 160 482 -77 callsubr
          -117 150 -44 callsubr
          1354 323 hintmask 00000000
          hintmask 10110010
          544 800 rmoveto
          321 vlineto
          hintmask 10101010
          -97 callgsubr
          hintmask 01110010
          135 -588 -158 vlineto
          -100 callgsubr
          302 vlineto
          279 4 rlineto
          hintmask 10100111
          -334 25 192 -341 463 hhcurveto
          484 234 411 339 341 -214 409 -498 -427 -225 -345 -322 -33 hvcurveto
          700 -683 rmoveto
          -286 -2 -96 370 256 vvcurveto
          253 83 316 257 7 vhcurveto
          285 7 131 -267 -375 vvcurveto
          -251 -91 -312 -283 -2 vhcurveto
          endchar
        </CharString>
        <CharString name="uni042F">
          336 -5 callgsubr
          406 147 577 152 -140 140 hstemhm
          235 316 413 296 hintmask 00000000
          hintmask 01001110
          1406 48 callgsubr
          -583 hlineto
          -359 6 -238 -159 9 -270 5 -188 116 -125 238 -72 -73 -22 -55 -37 -55 -92 -77 -118 rcurveline
          hintmask 10101110
          -79 -121 -98 -96 -92 -5 rrcurveto
          -135 301 vlineto
          33 2 115 124 52 82 131 206 rcurveline
          84 132 63 9 120 3 rrcurveto
          -221 vlineto
          hintmask 01010110
          -74 3 -76 5 -35 vhcurveto
          -44 3 -101 2 -29 1 rrcurveto
          -158 608 135 vlineto
          -92 5 -54 8 165 vvcurveto
          785 vlineto
          74 -3 75 -5 35 vhcurveto
          44 -3 81 -2 29 -1 rrcurveto
          hintmask 01101110
          -442 18 rmoveto
          -583 vlineto
          -3 -29 -30 -3 -33 hhcurveto
          -218 -103 115 197 217 112 59 163 1 hvcurveto
          endchar
        </CharString>
        <CharString name="uni0430">
          -50 callsubr
          632 616 -29 callgsubr
          hintmask 10110100
          -58 callsubr
          hintmask 01101100
          -103 callgsubr
          hintmask 10110100
          -84 callsubr
        </CharString>
        <CharString name="uni0431">
          -13 -33 145 731 144 467 -20 110 -20 hstem
          83 291 419 302 vstem
          915 1576 rmoveto
          -31 -52 -17 -14 -33 -16 -100 -49 -211 15 -177 -112 rrcurveto
          -176 -113 -87 -320 -274 vvcurveto
          -448 217 -226 293 292 210 219 345 290 -204 167 -265 -1 vhcurveto
          -162 -1 -167 -76 -78 -179 -8 1 rcurveline
          31 256 102 149 137 44 164 53 94 -24 107 32 89 35 31 58 45 209 rrcurveto
          -418 -1432 rmoveto
          -147 -3 -72 227 208 vvcurveto
          144 62 152 139 3 vhcurveto
          167 4 51 -201 -166 -42 callsubr
          endchar
        </CharString>
        <CharString name="uni0432">
          14 0 139 316 125 313 132 -129 129 hstemhm
          208 290 288 267 -215 283 hintmask 00000000
          hintmask 11101010
          874 545 rmoveto
          hintmask 11101100
          129 48 50 82 107 vvcurveto
          164 -118 81 -232 -1 vhcurveto
          -615 hlineto
          -3 -136 23 1 72 1 34 2 rlinecurve
          -4 -25 -2 -53 -53 vvcurveto
          -504 16 callgsubr
          645 vlineto
          hintmask 11101010
          225 165 100 189 123 -75 92 -172 39 hvcurveto
          -376 36 rmoveto
          hintmask 11011100
          218 vlineto
          91 40 8 53 1 vhcurveto
          131 2 64 -28 -112 vvcurveto
          -102 -29 -68 -164 -7 vhcurveto
          -95 -129 rmoveto
          2 43 62 0 58 hhcurveto
          hintmask 11101010
          89 88 -38 -123 -87 -49 -61 -112 -5 hvcurveto
          -2 -42 -89 0 -60 21 callgsubr
        </CharString>
        <CharString name="uni0433">
          25 callsubr
          951 651 -25 callsubr
        </CharString>
        <CharString name="uni0434">
          197 0 160 704 160 -148 148 68 callgsubr
          45 134 651 280 70 134 hintmask 00000000
          hintmask 11001110
          1314 160 rmoveto
          -212 -9 rlineto
          6 61 2 78 29 callsubr
          hintmask 10011110
          -61 callsubr
          hintmask 11001110
          133 -1014 vlineto
          hintmask 10101110
          -13 callgsubr
          194 16 -10 -182 -45 -305 -62 -126 rlinecurve
          -70 -34 -49 -41 -63 hhcurveto
          -104 -534 134 hlineto
          214 -3 45 160 107 hhcurveto
          703 hlineto
          107 45 -160 -214 -3 hvcurveto
          134 hlineto
          -484 716 rmoveto
          -93 callgsubr
          -322 hlineto
          72 106 52 150 22 164 rrcurveto
          hintmask 11001110
          26 198 rlineto
          68 9 33 18 66 hhcurveto
          172 59 callgsubr
          endchar
        </CharString>
        <CharString name="uni0435">
          -69 callsubr
          954 304 -27 callgsubr
          hintmask 11110100
          -102 callgsubr
        </CharString>
</ttFont>
